<svg width="292" height="284" viewBox="0 0 292 284" fill="none" xmlns="http://www.w3.org/2000/svg">
<path opacity="0.4" d="M60.1336 278.16C59.099 278.16 58.155 277.92 57.3016 277.44C56.459 276.949 55.7923 276.267 55.3016 275.392C54.811 274.517 54.5656 273.52 54.5656 272.4C54.5656 271.28 54.811 270.283 55.3016 269.408C55.7923 268.533 56.459 267.856 57.3016 267.376C58.155 266.885 59.099 266.64 60.1336 266.64C61.1683 266.64 62.107 266.885 62.9496 267.376C63.803 267.856 64.475 268.533 64.9656 269.408C65.4563 270.283 65.7016 271.28 65.7016 272.4C65.7016 273.52 65.4563 274.517 64.9656 275.392C64.475 276.267 63.803 276.949 62.9496 277.44C62.107 277.92 61.1683 278.16 60.1336 278.16ZM60.1336 276.752C60.9336 276.752 61.6376 276.571 62.2456 276.208C62.8536 275.835 63.3176 275.323 63.6376 274.672C63.9683 274.011 64.1336 273.253 64.1336 272.4C64.1336 271.547 63.9683 270.795 63.6376 270.144C63.3176 269.483 62.8536 268.971 62.2456 268.608C61.6376 268.235 60.9336 268.048 60.1336 268.048C59.3336 268.048 58.6296 268.235 58.0216 268.608C57.4136 268.971 56.9443 269.483 56.6136 270.144C56.2936 270.795 56.1336 271.547 56.1336 272.4C56.1336 273.253 56.2936 274.011 56.6136 274.672C56.9443 275.323 57.4136 275.835 58.0216 276.208C58.6296 276.571 59.3336 276.752 60.1336 276.752ZM67.556 270H68.964V271.04C69.2733 270.709 69.6787 270.427 70.18 270.192C70.6813 269.957 71.2093 269.84 71.764 269.84C72.6067 269.84 73.2573 270.075 73.716 270.544C74.1747 271.013 74.404 271.659 74.404 272.48V278H72.996V272.736C72.996 272.203 72.852 271.797 72.564 271.52C72.2867 271.232 71.8867 271.088 71.364 271.088C70.9053 271.088 70.468 271.227 70.052 271.504C69.6467 271.781 69.284 272.155 68.964 272.624V278H67.556V270ZM79.87 266.8H81.406V276.592H86.926V278H79.87V266.8ZM91.8253 278.16C91.0253 278.16 90.3319 277.989 89.7453 277.648C89.1586 277.296 88.7053 276.811 88.3853 276.192C88.0759 275.563 87.9213 274.832 87.9213 274C87.9213 273.189 88.0973 272.469 88.4493 271.84C88.8013 271.211 89.2759 270.72 89.8733 270.368C90.4706 270.016 91.1213 269.84 91.8253 269.84C92.5399 269.84 93.1799 270.005 93.7453 270.336C94.3213 270.656 94.7693 271.12 95.0893 271.728C95.4199 272.336 95.5853 273.061 95.5853 273.904V274.448H89.3453C89.3666 275.205 89.6013 275.803 90.0493 276.24C90.5079 276.667 91.1053 276.88 91.8413 276.88C92.4493 276.88 92.9559 276.736 93.3613 276.448C93.7666 276.149 94.0439 275.755 94.1933 275.264H95.5052C95.2813 276.171 94.8546 276.88 94.2253 277.392C93.5959 277.904 92.7959 278.16 91.8253 278.16ZM94.2573 273.232C94.2039 272.56 93.9479 272.043 93.4893 271.68C93.0413 271.307 92.4866 271.12 91.8253 271.12C91.1853 271.12 90.6413 271.307 90.1933 271.68C89.7453 272.053 89.4679 272.571 89.3613 273.232H94.2573ZM99.8735 278.16C99.2548 278.16 98.7695 277.989 98.4175 277.648C98.0762 277.296 97.9055 276.795 97.9055 276.144V271.28H96.3215V270H97.9055V267.6L99.3135 268.112V270H101.234V271.28H99.3135V276.048C99.3135 276.325 99.3935 276.539 99.5535 276.688C99.7242 276.837 99.9748 276.912 100.306 276.912C100.508 276.912 100.684 276.901 100.834 276.88C100.994 276.848 101.1 276.827 101.154 276.816V278C100.738 278.107 100.311 278.16 99.8735 278.16ZM105.749 278.16C105.13 278.16 104.645 277.989 104.293 277.648C103.951 277.296 103.781 276.795 103.781 276.144V271.28H102.197V270H103.781V267.6L105.189 268.112V270H107.109V271.28H105.189V276.048C105.189 276.325 105.269 276.539 105.429 276.688C105.599 276.837 105.85 276.912 106.181 276.912C106.383 276.912 106.559 276.901 106.709 276.88C106.869 276.848 106.975 276.827 107.029 276.816V278C106.613 278.107 106.186 278.16 105.749 278.16ZM109.448 268.784C109.181 268.784 108.952 268.693 108.76 268.512C108.578 268.32 108.488 268.091 108.488 267.824C108.488 267.557 108.578 267.333 108.76 267.152C108.952 266.96 109.181 266.864 109.448 266.864C109.714 266.864 109.938 266.96 110.12 267.152C110.312 267.333 110.408 267.557 110.408 267.824C110.408 268.091 110.312 268.32 110.12 268.512C109.938 268.693 109.714 268.784 109.448 268.784ZM108.743 270H110.152V278H108.743V270ZM112.259 270H113.667V271.04C113.976 270.709 114.382 270.427 114.883 270.192C115.384 269.957 115.912 269.84 116.467 269.84C117.31 269.84 117.96 270.075 118.419 270.544C118.878 271.013 119.107 271.659 119.107 272.48V278H117.699V272.736C117.699 272.203 117.555 271.797 117.267 271.52C116.99 271.232 116.59 271.088 116.067 271.088C115.608 271.088 115.171 271.227 114.755 271.504C114.35 271.781 113.987 272.155 113.667 272.624V278H112.259V270ZM124.67 281.36C123.667 281.36 122.878 281.136 122.302 280.688C121.726 280.24 121.39 279.637 121.294 278.88H122.83C123.011 279.68 123.608 280.08 124.622 280.08C125.454 280.08 126.046 279.872 126.398 279.456C126.76 279.051 126.942 278.523 126.942 277.872V276.944C126.579 277.307 126.195 277.573 125.79 277.744C125.395 277.915 124.92 278 124.366 278C123.662 278 123.032 277.84 122.478 277.52C121.934 277.189 121.507 276.715 121.198 276.096C120.888 275.477 120.734 274.752 120.734 273.92C120.734 273.099 120.899 272.379 121.23 271.76C121.56 271.141 122.003 270.667 122.558 270.336C123.123 270.005 123.736 269.84 124.398 269.84C124.963 269.84 125.459 269.941 125.886 270.144C126.312 270.347 126.664 270.592 126.942 270.88V270H128.35V277.952C128.35 278.987 128.024 279.813 127.374 280.432C126.734 281.051 125.832 281.36 124.67 281.36ZM124.622 276.72C125.315 276.72 125.875 276.507 126.302 276.08C126.728 275.643 126.942 275.099 126.942 274.448V273.424C126.942 272.987 126.835 272.592 126.622 272.24C126.419 271.888 126.136 271.616 125.774 271.424C125.422 271.221 125.038 271.12 124.622 271.12C123.896 271.12 123.299 271.349 122.83 271.808C122.371 272.267 122.142 272.971 122.142 273.92C122.142 274.869 122.371 275.573 122.83 276.032C123.299 276.491 123.896 276.72 124.622 276.72ZM139.134 278.16C138.12 278.16 137.187 277.92 136.334 277.44C135.491 276.949 134.819 276.267 134.318 275.392C133.816 274.517 133.566 273.52 133.566 272.4C133.566 271.28 133.816 270.283 134.318 269.408C134.819 268.533 135.491 267.856 136.334 267.376C137.187 266.885 138.12 266.64 139.134 266.64C139.987 266.64 140.76 266.795 141.454 267.104C142.147 267.413 142.712 267.845 143.15 268.4C143.598 268.955 143.891 269.595 144.03 270.32H142.494C142.259 269.573 141.859 269.008 141.294 268.624C140.728 268.24 140.003 268.048 139.118 268.048C138.318 268.048 137.614 268.235 137.006 268.608C136.408 268.981 135.944 269.499 135.614 270.16C135.294 270.821 135.134 271.568 135.134 272.4C135.134 273.232 135.294 273.979 135.614 274.64C135.944 275.301 136.408 275.819 137.006 276.192C137.614 276.565 138.318 276.752 139.118 276.752C140.184 276.752 141.022 276.459 141.63 275.872C142.238 275.275 142.584 274.448 142.67 273.392H138.206V271.984H144.222V272.896C144.222 273.909 144.014 274.816 143.598 275.616C143.182 276.405 142.59 277.029 141.822 277.488C141.054 277.936 140.158 278.16 139.134 278.16ZM149.768 278.16C148.968 278.16 148.253 277.984 147.624 277.632C147.005 277.269 146.52 276.773 146.168 276.144C145.826 275.504 145.656 274.789 145.656 274C145.656 273.211 145.826 272.501 146.168 271.872C146.52 271.232 147.005 270.736 147.624 270.384C148.253 270.021 148.968 269.84 149.768 269.84C150.568 269.84 151.277 270.021 151.896 270.384C152.525 270.736 153.01 271.232 153.352 271.872C153.704 272.501 153.88 273.211 153.88 274C153.88 274.789 153.704 275.504 153.352 276.144C153.01 276.773 152.525 277.269 151.896 277.632C151.277 277.984 150.568 278.16 149.768 278.16ZM149.768 276.88C150.557 276.88 151.202 276.629 151.704 276.128C152.216 275.627 152.472 274.917 152.472 274C152.472 273.083 152.216 272.373 151.704 271.872C151.202 271.371 150.557 271.12 149.768 271.12C148.978 271.12 148.328 271.371 147.816 271.872C147.314 272.373 147.064 273.083 147.064 274C147.064 274.917 147.314 275.627 147.816 276.128C148.328 276.629 148.978 276.88 149.768 276.88ZM158.675 272.24H164.067V273.52H158.675V272.24ZM169.339 266.8H172.571C173.776 266.8 174.816 267.035 175.691 267.504C176.576 267.963 177.253 268.613 177.723 269.456C178.192 270.299 178.427 271.28 178.427 272.4C178.427 273.52 178.192 274.501 177.723 275.344C177.253 276.187 176.576 276.843 175.691 277.312C174.816 277.771 173.776 278 172.571 278H169.339V266.8ZM172.507 276.592C173.872 276.592 174.944 276.251 175.723 275.568C176.501 274.875 176.891 273.819 176.891 272.4C176.891 270.981 176.501 269.931 175.723 269.248C174.944 268.555 173.872 268.208 172.507 268.208H170.875V276.592H172.507ZM182.263 278.16C181.506 278.16 180.892 277.952 180.423 277.536C179.954 277.109 179.719 276.544 179.719 275.84C179.719 275.093 179.975 274.507 180.487 274.08C180.999 273.653 181.644 273.403 182.423 273.328L184.919 273.072V272.528C184.919 272.069 184.754 271.723 184.423 271.488C184.103 271.243 183.676 271.12 183.143 271.12C182.695 271.12 182.316 271.227 182.007 271.44C181.708 271.653 181.506 271.979 181.399 272.416H180.071C180.188 271.573 180.546 270.933 181.143 270.496C181.751 270.059 182.45 269.84 183.239 269.84C184.178 269.84 184.924 270.075 185.479 270.544C186.044 271.003 186.327 271.611 186.327 272.368V276.112C186.327 276.379 186.386 276.587 186.503 276.736C186.62 276.875 186.796 276.944 187.031 276.944C187.17 276.944 187.308 276.923 187.447 276.88V277.936C187.127 278.043 186.828 278.096 186.551 278.096C185.687 278.096 185.159 277.68 184.967 276.848C184.658 277.2 184.258 277.509 183.767 277.776C183.276 278.032 182.775 278.16 182.263 278.16ZM182.423 276.88C183.255 276.88 184.087 276.464 184.919 275.632V274.192L182.519 274.464C182.071 274.517 181.724 274.667 181.479 274.912C181.244 275.147 181.127 275.435 181.127 275.776C181.127 276.139 181.244 276.416 181.479 276.608C181.724 276.789 182.039 276.88 182.423 276.88ZM190.833 277.648L187.665 270H189.137L191.281 275.104L191.489 276.08L193.825 270H195.249L190.801 281.2H189.409L190.833 277.648ZM199.625 276.688L204.249 272.528C204.718 272.101 205.07 271.701 205.305 271.328C205.54 270.944 205.657 270.491 205.657 269.968C205.657 269.371 205.46 268.901 205.065 268.56C204.681 268.219 204.19 268.048 203.593 268.048C202.9 268.048 202.334 268.245 201.897 268.64C201.47 269.035 201.241 269.579 201.209 270.272H199.737C199.769 269.579 199.956 268.955 200.297 268.4C200.638 267.845 201.092 267.413 201.657 267.104C202.222 266.795 202.862 266.64 203.577 266.64C204.249 266.64 204.852 266.773 205.385 267.04C205.929 267.307 206.356 267.685 206.665 268.176C206.974 268.667 207.129 269.237 207.129 269.888C207.129 270.581 206.969 271.205 206.649 271.76C206.34 272.304 205.876 272.848 205.257 273.392L201.625 276.592H207.353V278H199.625V276.688ZM216.299 278.16C215.499 278.16 214.784 277.984 214.155 277.632C213.536 277.269 213.051 276.773 212.699 276.144C212.358 275.504 212.187 274.789 212.187 274C212.187 273.211 212.358 272.501 212.699 271.872C213.051 271.232 213.536 270.736 214.155 270.384C214.784 270.021 215.499 269.84 216.299 269.84C217.099 269.84 217.808 270.021 218.427 270.384C219.056 270.736 219.542 271.232 219.883 271.872C220.235 272.501 220.411 273.211 220.411 274C220.411 274.789 220.235 275.504 219.883 276.144C219.542 276.773 219.056 277.269 218.427 277.632C217.808 277.984 217.099 278.16 216.299 278.16ZM216.299 276.88C217.088 276.88 217.734 276.629 218.235 276.128C218.747 275.627 219.003 274.917 219.003 274C219.003 273.083 218.747 272.373 218.235 271.872C217.734 271.371 217.088 271.12 216.299 271.12C215.51 271.12 214.859 271.371 214.347 271.872C213.846 272.373 213.595 273.083 213.595 274C213.595 274.917 213.846 275.627 214.347 276.128C214.859 276.629 215.51 276.88 216.299 276.88ZM222.512 271.28H221.136V270H222.512V268.48C222.512 267.701 222.72 267.12 223.136 266.736C223.562 266.352 224.101 266.16 224.752 266.16C225.146 266.16 225.482 266.213 225.76 266.32V267.584C225.408 267.467 225.104 267.408 224.848 267.408C224.57 267.408 224.346 267.493 224.176 267.664C224.005 267.835 223.92 268.08 223.92 268.4V270H225.712V271.28H223.92V278H222.512V271.28ZM235.883 268.208H230.235V266.8H237.467V268.016L233.179 278H231.691L235.883 268.208Z" fill="black"/>
<path d="M45.2068 176H48.4468L50.6068 184.26L50.8668 186.12H50.9868L51.2668 184.26L53.6468 176H56.5268L58.9268 184.26L59.1868 186.12H59.3068L59.5868 184.26L61.7268 176H64.9668L60.9068 190H57.7668L55.0868 180.1L52.4068 190H49.2668L45.2068 176ZM66.4412 175.4H69.2412V181.24C69.6412 180.813 70.1478 180.467 70.7612 180.2C71.3745 179.933 72.0212 179.8 72.7012 179.8C73.7812 179.8 74.6545 180.113 75.3212 180.74C75.9878 181.367 76.3212 182.213 76.3212 183.28V190H73.5212V183.98C73.5212 183.393 73.3545 182.953 73.0212 182.66C72.7012 182.353 72.2812 182.2 71.7612 182.2C71.2678 182.2 70.8012 182.327 70.3612 182.58C69.9212 182.82 69.5478 183.167 69.2412 183.62V190H66.4412V175.4ZM81.4263 190.2C80.853 190.2 80.3197 190.08 79.8263 189.84C79.3463 189.587 78.9597 189.233 78.6663 188.78C78.3863 188.313 78.2463 187.773 78.2463 187.16C78.2463 186.253 78.5597 185.527 79.1863 184.98C79.813 184.42 80.673 184.087 81.7663 183.98L84.4663 183.7V183.26C84.4663 182.807 84.3197 182.453 84.0263 182.2C83.7463 181.947 83.3463 181.82 82.8263 181.82C82.3597 181.82 81.9863 181.947 81.7063 182.2C81.4263 182.44 81.253 182.773 81.1863 183.2L78.8263 183L78.7263 182.88C78.9263 181.88 79.3997 181.12 80.1463 180.6C80.893 180.067 81.7997 179.8 82.8663 179.8C84.133 179.8 85.1597 180.12 85.9463 180.76C86.733 181.387 87.1263 182.273 87.1263 183.42V187C87.1263 187.307 87.1863 187.54 87.3063 187.7C87.4397 187.86 87.6197 187.94 87.8463 187.94C87.993 187.94 88.1197 187.92 88.2263 187.88L88.3263 188V189.92C87.9263 190.053 87.4663 190.12 86.9463 190.12C85.8663 190.12 85.1197 189.667 84.7063 188.76H84.5663C84.0997 189.24 83.6197 189.6 83.1263 189.84C82.633 190.08 82.0663 190.2 81.4263 190.2ZM82.0663 188.08C82.5463 188.08 82.9663 187.96 83.3263 187.72C83.6997 187.48 84.0797 187.113 84.4663 186.62V185.46L82.2663 185.74C81.7997 185.793 81.4397 185.933 81.1863 186.16C80.9463 186.387 80.8263 186.667 80.8263 187C80.8263 187.333 80.9397 187.6 81.1663 187.8C81.4063 187.987 81.7063 188.08 82.0663 188.08ZM93.4685 190.2C92.5352 190.2 91.7952 189.947 91.2485 189.44C90.7018 188.933 90.4285 188.173 90.4285 187.16V182.32H88.6485V180H90.4285V177.14H90.7885L93.2085 177.98V180H95.3285V182.32H93.2085V186.92C93.2085 187.24 93.3018 187.487 93.4885 187.66C93.6752 187.833 93.9418 187.92 94.2885 187.92C94.5018 187.92 94.7685 187.873 95.0885 187.78L95.2285 187.86V190C94.6552 190.133 94.0685 190.2 93.4685 190.2ZM99.0005 175.78C99.4805 175.78 99.8739 175.96 100.181 176.32C100.501 176.667 100.661 177.127 100.661 177.7C100.661 178.633 100.354 179.473 99.7405 180.22C99.1272 180.967 98.2872 181.473 97.2205 181.74L96.9405 181.06C98.0472 180.713 98.7205 180.067 98.9605 179.12C98.4672 179.08 98.0739 178.907 97.7805 178.6C97.4872 178.28 97.3405 177.9 97.3405 177.46C97.3405 176.967 97.5005 176.567 97.8205 176.26C98.1405 175.94 98.5339 175.78 99.0005 175.78ZM106.137 190.2C104.964 190.2 104.004 189.947 103.257 189.44C102.511 188.92 102.011 188.193 101.757 187.26L101.837 187L103.977 186.36C104.217 187.48 104.937 188.04 106.137 188.04C106.551 188.04 106.891 187.953 107.157 187.78C107.424 187.607 107.557 187.367 107.557 187.06C107.557 186.74 107.404 186.493 107.097 186.32C106.804 186.133 106.224 185.927 105.357 185.7C104.304 185.447 103.511 185.08 102.977 184.6C102.444 184.107 102.177 183.46 102.177 182.66C102.177 182.127 102.324 181.647 102.617 181.22C102.924 180.78 103.351 180.433 103.897 180.18C104.444 179.927 105.071 179.8 105.777 179.8C106.831 179.8 107.691 180.033 108.357 180.5C109.037 180.953 109.477 181.6 109.677 182.44L109.557 182.66L107.437 183.18C107.344 182.713 107.144 182.36 106.837 182.12C106.531 181.867 106.157 181.74 105.717 181.74C105.384 181.74 105.104 181.813 104.877 181.96C104.651 182.093 104.537 182.28 104.537 182.52C104.537 182.813 104.724 183.053 105.097 183.24C105.471 183.427 106.151 183.653 107.137 183.92C108.164 184.2 108.917 184.567 109.397 185.02C109.891 185.473 110.137 186.1 110.137 186.9C110.137 187.513 109.971 188.073 109.637 188.58C109.317 189.087 108.851 189.487 108.237 189.78C107.637 190.06 106.937 190.2 106.137 190.2ZM120.265 190.2C119.332 190.2 118.592 189.947 118.045 189.44C117.499 188.933 117.225 188.173 117.225 187.16V182.32H115.445V180H117.225V177.14H117.585L120.005 177.98V180H122.125V182.32H120.005V186.92C120.005 187.24 120.099 187.487 120.285 187.66C120.472 187.833 120.739 187.92 121.085 187.92C121.299 187.92 121.565 187.873 121.885 187.78L122.025 187.86V190C121.452 190.133 120.865 190.2 120.265 190.2ZM124.097 175.4H126.897V181.24C127.297 180.813 127.804 180.467 128.417 180.2C129.031 179.933 129.677 179.8 130.357 179.8C131.437 179.8 132.311 180.113 132.977 180.74C133.644 181.367 133.977 182.213 133.977 183.28V190H131.177V183.98C131.177 183.393 131.011 182.953 130.677 182.66C130.357 182.353 129.937 182.2 129.417 182.2C128.924 182.2 128.457 182.327 128.017 182.58C127.577 182.82 127.204 183.167 126.897 183.62V190H124.097V175.4ZM141.003 190.2C140.016 190.2 139.129 189.987 138.343 189.56C137.569 189.12 136.963 188.507 136.523 187.72C136.083 186.933 135.863 186.027 135.863 185C135.863 183.987 136.096 183.087 136.563 182.3C137.043 181.513 137.676 180.9 138.463 180.46C139.249 180.02 140.096 179.8 141.003 179.8C141.989 179.8 142.863 180.007 143.623 180.42C144.383 180.833 144.969 181.427 145.383 182.2C145.809 182.973 146.023 183.887 146.023 184.94V185.68H138.503C138.569 186.373 138.829 186.927 139.283 187.34C139.749 187.74 140.343 187.94 141.063 187.94C142.209 187.94 142.969 187.427 143.343 186.4L145.683 186.64L145.823 186.88C145.449 187.987 144.849 188.82 144.023 189.38C143.209 189.927 142.203 190.2 141.003 190.2ZM143.383 183.88C143.316 183.28 143.063 182.8 142.623 182.44C142.183 182.08 141.636 181.9 140.983 181.9C140.396 181.9 139.876 182.08 139.423 182.44C138.983 182.8 138.703 183.28 138.583 183.88H143.383ZM156.385 190.2C155.599 190.2 154.839 190.007 154.105 189.62C153.372 189.22 152.765 188.627 152.285 187.84C151.819 187.053 151.585 186.107 151.585 185C151.585 183.88 151.819 182.933 152.285 182.16C152.752 181.373 153.365 180.787 154.125 180.4C154.885 180 155.692 179.8 156.545 179.8C157.665 179.8 158.645 180.14 159.485 180.82V175.4H162.285V190H159.485V188.96C158.712 189.787 157.679 190.2 156.385 190.2ZM157.045 187.88C157.739 187.88 158.319 187.667 158.785 187.24C159.252 186.8 159.485 186.213 159.485 185.48V184.52C159.485 183.8 159.245 183.22 158.765 182.78C158.299 182.34 157.719 182.12 157.025 182.12C156.252 182.12 155.625 182.373 155.145 182.88C154.665 183.387 154.425 184.093 154.425 185C154.425 185.907 154.665 186.613 155.145 187.12C155.639 187.627 156.272 187.88 157.045 187.88ZM166.061 178.9C165.621 178.9 165.241 178.74 164.921 178.42C164.601 178.1 164.441 177.72 164.441 177.28C164.441 176.84 164.601 176.46 164.921 176.14C165.241 175.82 165.621 175.66 166.061 175.66C166.515 175.66 166.895 175.82 167.201 176.14C167.521 176.46 167.681 176.84 167.681 177.28C167.681 177.72 167.521 178.1 167.201 178.42C166.895 178.74 166.515 178.9 166.061 178.9ZM164.661 180H167.461V190H164.661V180ZM170.82 182.32H169.14V180H170.82V178.36C170.82 177.307 171.146 176.52 171.8 176C172.466 175.467 173.286 175.2 174.26 175.2C174.766 175.2 175.24 175.267 175.68 175.4V177.58L175.54 177.66C175.246 177.54 174.946 177.48 174.64 177.48C174.32 177.48 174.066 177.567 173.88 177.74C173.693 177.913 173.6 178.173 173.6 178.52V180H176.96V178.36C176.96 177.307 177.286 176.52 177.94 176C178.606 175.467 179.426 175.2 180.4 175.2C180.906 175.2 181.38 175.267 181.82 175.4V177.58L181.7 177.66C181.406 177.54 181.106 177.48 180.8 177.48C180.48 177.48 180.226 177.567 180.04 177.74C179.853 177.913 179.76 178.173 179.76 178.52V180H181.8V182.32H179.76V190H176.96V182.32H173.6V190H170.82V182.32ZM187.917 190.2C186.93 190.2 186.043 189.987 185.257 189.56C184.483 189.12 183.877 188.507 183.437 187.72C182.997 186.933 182.777 186.027 182.777 185C182.777 183.987 183.01 183.087 183.477 182.3C183.957 181.513 184.59 180.9 185.377 180.46C186.163 180.02 187.01 179.8 187.917 179.8C188.903 179.8 189.777 180.007 190.537 180.42C191.297 180.833 191.883 181.427 192.297 182.2C192.723 182.973 192.937 183.887 192.937 184.94V185.68H185.417C185.483 186.373 185.743 186.927 186.197 187.34C186.663 187.74 187.257 187.94 187.977 187.94C189.123 187.94 189.883 187.427 190.257 186.4L192.597 186.64L192.737 186.88C192.363 187.987 191.763 188.82 190.937 189.38C190.123 189.927 189.117 190.2 187.917 190.2ZM190.297 183.88C190.23 183.28 189.977 182.8 189.537 182.44C189.097 182.08 188.55 181.9 187.897 181.9C187.31 181.9 186.79 182.08 186.337 182.44C185.897 182.8 185.617 183.28 185.497 183.88H190.297ZM194.82 180H197.62V181.2C197.98 180.773 198.393 180.433 198.86 180.18C199.327 179.927 199.84 179.8 200.4 179.8C200.8 179.8 201.12 179.853 201.36 179.96L201 182.16L200.86 182.3C200.593 182.233 200.367 182.2 200.18 182.2C199.633 182.2 199.14 182.353 198.7 182.66C198.26 182.967 197.9 183.413 197.62 184V190H194.82V180ZM207.292 190.2C206.305 190.2 205.418 189.987 204.632 189.56C203.858 189.12 203.252 188.507 202.812 187.72C202.372 186.933 202.152 186.027 202.152 185C202.152 183.987 202.385 183.087 202.852 182.3C203.332 181.513 203.965 180.9 204.752 180.46C205.538 180.02 206.385 179.8 207.292 179.8C208.278 179.8 209.152 180.007 209.912 180.42C210.672 180.833 211.258 181.427 211.672 182.2C212.098 182.973 212.312 183.887 212.312 184.94V185.68H204.792C204.858 186.373 205.118 186.927 205.572 187.34C206.038 187.74 206.632 187.94 207.352 187.94C208.498 187.94 209.258 187.427 209.632 186.4L211.972 186.64L212.112 186.88C211.738 187.987 211.138 188.82 210.312 189.38C209.498 189.927 208.492 190.2 207.292 190.2ZM209.672 183.88C209.605 183.28 209.352 182.8 208.912 182.44C208.472 182.08 207.925 181.9 207.272 181.9C206.685 181.9 206.165 182.08 205.712 182.44C205.272 182.8 204.992 183.28 204.872 183.88H209.672ZM214.195 180H216.995V181.3C217.942 180.3 219.048 179.8 220.315 179.8C221.395 179.8 222.242 180.113 222.855 180.74C223.468 181.367 223.775 182.173 223.775 183.16V190H220.975V183.98C220.975 183.393 220.835 182.953 220.555 182.66C220.288 182.353 219.888 182.2 219.355 182.2C218.888 182.2 218.442 182.347 218.015 182.64C217.588 182.92 217.248 183.273 216.995 183.7V190H214.195V180ZM230.888 190.2C229.914 190.2 229.028 189.98 228.228 189.54C227.441 189.1 226.814 188.487 226.348 187.7C225.881 186.9 225.648 186 225.648 185C225.648 184 225.881 183.107 226.348 182.32C226.814 181.52 227.441 180.9 228.228 180.46C229.028 180.02 229.914 179.8 230.888 179.8C232.208 179.8 233.294 180.133 234.148 180.8C235.014 181.467 235.561 182.373 235.788 183.52L235.628 183.72L233.308 183.96C233.174 183.427 232.901 183.007 232.488 182.7C232.074 182.38 231.541 182.22 230.888 182.22C230.154 182.22 229.548 182.467 229.068 182.96C228.601 183.44 228.368 184.12 228.368 185C228.368 185.88 228.601 186.567 229.068 187.06C229.548 187.54 230.154 187.78 230.888 187.78C231.541 187.78 232.061 187.633 232.448 187.34C232.834 187.047 233.121 186.613 233.308 186.04L235.628 186.28L235.788 186.46C235.481 187.66 234.908 188.587 234.068 189.24C233.228 189.88 232.168 190.2 230.888 190.2ZM242.37 190.2C241.383 190.2 240.496 189.987 239.71 189.56C238.936 189.12 238.33 188.507 237.89 187.72C237.45 186.933 237.23 186.027 237.23 185C237.23 183.987 237.463 183.087 237.93 182.3C238.41 181.513 239.043 180.9 239.83 180.46C240.616 180.02 241.463 179.8 242.37 179.8C243.356 179.8 244.23 180.007 244.99 180.42C245.75 180.833 246.336 181.427 246.75 182.2C247.176 182.973 247.39 183.887 247.39 184.94V185.68H239.87C239.936 186.373 240.196 186.927 240.65 187.34C241.116 187.74 241.71 187.94 242.43 187.94C243.576 187.94 244.336 187.427 244.71 186.4L247.05 186.64L247.19 186.88C246.816 187.987 246.216 188.82 245.39 189.38C244.576 189.927 243.57 190.2 242.37 190.2ZM244.75 183.88C244.683 183.28 244.43 182.8 243.99 182.44C243.55 182.08 243.003 181.9 242.35 181.9C241.763 181.9 241.243 182.08 240.79 182.44C240.35 182.8 240.07 183.28 239.95 183.88H244.75ZM66.3377 216.2C65.031 216.2 63.9643 215.773 63.1377 214.92V216H60.3377V201.4H63.1377V206.96C64.031 206.187 65.0777 205.8 66.2777 205.8C67.1177 205.8 67.8977 205.993 68.6177 206.38C69.351 206.767 69.9377 207.353 70.3777 208.14C70.8177 208.927 71.0377 209.88 71.0377 211C71.0377 212.12 70.8043 213.073 70.3377 213.86C69.8843 214.633 69.2977 215.22 68.5777 215.62C67.8577 216.007 67.111 216.2 66.3377 216.2ZM65.5777 213.88C66.351 213.88 66.9777 213.627 67.4577 213.12C67.951 212.613 68.1977 211.907 68.1977 211C68.1977 210.093 67.9577 209.387 67.4777 208.88C66.9977 208.373 66.3777 208.12 65.6177 208.12C64.911 208.12 64.3177 208.34 63.8377 208.78C63.371 209.22 63.1377 209.8 63.1377 210.52V211.48C63.1377 212.2 63.3777 212.78 63.8577 213.22C64.3377 213.66 64.911 213.88 65.5777 213.88ZM77.6139 216.2C76.6272 216.2 75.7406 215.987 74.9539 215.56C74.1806 215.12 73.5739 214.507 73.1339 213.72C72.6939 212.933 72.4739 212.027 72.4739 211C72.4739 209.987 72.7072 209.087 73.1739 208.3C73.6539 207.513 74.2872 206.9 75.0739 206.46C75.8606 206.02 76.7072 205.8 77.6139 205.8C78.6006 205.8 79.4739 206.007 80.2339 206.42C80.9939 206.833 81.5806 207.427 81.9939 208.2C82.4206 208.973 82.6339 209.887 82.6339 210.94V211.68H75.1139C75.1806 212.373 75.4406 212.927 75.8939 213.34C76.3606 213.74 76.9539 213.94 77.6739 213.94C78.8206 213.94 79.5806 213.427 79.9539 212.4L82.2939 212.64L82.4339 212.88C82.0606 213.987 81.4606 214.82 80.6339 215.38C79.8206 215.927 78.8139 216.2 77.6139 216.2ZM79.9939 209.88C79.9272 209.28 79.6739 208.8 79.2339 208.44C78.7939 208.08 78.2472 207.9 77.5939 207.9C77.0072 207.9 76.4872 208.08 76.0339 208.44C75.5939 208.8 75.3139 209.28 75.1939 209.88H79.9939ZM88.283 216.2C87.3496 216.2 86.6096 215.947 86.063 215.44C85.5163 214.933 85.243 214.173 85.243 213.16V208.32H83.463V206H85.243V203.14H85.603L88.023 203.98V206H90.143V208.32H88.023V212.92C88.023 213.24 88.1163 213.487 88.303 213.66C88.4896 213.833 88.7563 213.92 89.103 213.92C89.3163 213.92 89.583 213.873 89.903 213.78L90.043 213.86V216C89.4696 216.133 88.883 216.2 88.283 216.2ZM91.235 206H94.095L95.515 211.1L95.715 212.7H95.815L96.055 211.1L97.595 206H100.155L101.715 211.1L101.955 212.7H102.055L102.255 211.1L103.655 206H106.535L103.535 216H100.595L98.875 209.44L97.155 216H94.215L91.235 206ZM112.477 216.2C111.491 216.2 110.604 215.987 109.817 215.56C109.044 215.12 108.437 214.507 107.997 213.72C107.557 212.933 107.337 212.027 107.337 211C107.337 209.987 107.571 209.087 108.037 208.3C108.517 207.513 109.151 206.9 109.937 206.46C110.724 206.02 111.571 205.8 112.477 205.8C113.464 205.8 114.337 206.007 115.097 206.42C115.857 206.833 116.444 207.427 116.857 208.2C117.284 208.973 117.497 209.887 117.497 210.94V211.68H109.977C110.044 212.373 110.304 212.927 110.757 213.34C111.224 213.74 111.817 213.94 112.537 213.94C113.684 213.94 114.444 213.427 114.817 212.4L117.157 212.64L117.297 212.88C116.924 213.987 116.324 214.82 115.497 215.38C114.684 215.927 113.677 216.2 112.477 216.2ZM114.857 209.88C114.791 209.28 114.537 208.8 114.097 208.44C113.657 208.08 113.111 207.9 112.457 207.9C111.871 207.9 111.351 208.08 110.897 208.44C110.457 208.8 110.177 209.28 110.057 209.88H114.857ZM124.001 216.2C123.014 216.2 122.127 215.987 121.341 215.56C120.567 215.12 119.961 214.507 119.521 213.72C119.081 212.933 118.861 212.027 118.861 211C118.861 209.987 119.094 209.087 119.561 208.3C120.041 207.513 120.674 206.9 121.461 206.46C122.247 206.02 123.094 205.8 124.001 205.8C124.987 205.8 125.861 206.007 126.621 206.42C127.381 206.833 127.967 207.427 128.381 208.2C128.807 208.973 129.021 209.887 129.021 210.94V211.68H121.501C121.567 212.373 121.827 212.927 122.281 213.34C122.747 213.74 123.341 213.94 124.061 213.94C125.207 213.94 125.967 213.427 126.341 212.4L128.681 212.64L128.821 212.88C128.447 213.987 127.847 214.82 127.021 215.38C126.207 215.927 125.201 216.2 124.001 216.2ZM126.381 209.88C126.314 209.28 126.061 208.8 125.621 208.44C125.181 208.08 124.634 207.9 123.981 207.9C123.394 207.9 122.874 208.08 122.421 208.44C121.981 208.8 121.701 209.28 121.581 209.88H126.381ZM130.904 206H133.704V207.3C134.651 206.3 135.757 205.8 137.024 205.8C138.104 205.8 138.951 206.113 139.564 206.74C140.177 207.367 140.484 208.173 140.484 209.16V216H137.684V209.98C137.684 209.393 137.544 208.953 137.264 208.66C136.997 208.353 136.597 208.2 136.064 208.2C135.597 208.2 135.151 208.347 134.724 208.64C134.297 208.92 133.957 209.273 133.704 209.7V216H130.904V206ZM150.776 216.2C149.603 216.2 148.643 215.947 147.896 215.44C147.149 214.92 146.649 214.193 146.396 213.26L146.476 213L148.616 212.36C148.856 213.48 149.576 214.04 150.776 214.04C151.189 214.04 151.529 213.953 151.796 213.78C152.063 213.607 152.196 213.367 152.196 213.06C152.196 212.74 152.043 212.493 151.736 212.32C151.443 212.133 150.863 211.927 149.996 211.7C148.943 211.447 148.149 211.08 147.616 210.6C147.083 210.107 146.816 209.46 146.816 208.66C146.816 208.127 146.963 207.647 147.256 207.22C147.563 206.78 147.989 206.433 148.536 206.18C149.083 205.927 149.709 205.8 150.416 205.8C151.469 205.8 152.329 206.033 152.996 206.5C153.676 206.953 154.116 207.6 154.316 208.44L154.196 208.66L152.076 209.18C151.983 208.713 151.783 208.36 151.476 208.12C151.169 207.867 150.796 207.74 150.356 207.74C150.023 207.74 149.743 207.813 149.516 207.96C149.289 208.093 149.176 208.28 149.176 208.52C149.176 208.813 149.363 209.053 149.736 209.24C150.109 209.427 150.789 209.653 151.776 209.92C152.803 210.2 153.556 210.567 154.036 211.02C154.529 211.473 154.776 212.1 154.776 212.9C154.776 213.513 154.609 214.073 154.276 214.58C153.956 215.087 153.489 215.487 152.876 215.78C152.276 216.06 151.576 216.2 150.776 216.2ZM160.392 216.2C159.459 216.2 158.719 215.947 158.172 215.44C157.626 214.933 157.352 214.173 157.352 213.16V208.32H155.572V206H157.352V203.14H157.712L160.132 203.98V206H162.252V208.32H160.132V212.92C160.132 213.24 160.226 213.487 160.412 213.66C160.599 213.833 160.866 213.92 161.212 213.92C161.426 213.92 161.692 213.873 162.012 213.78L162.152 213.86V216C161.579 216.133 160.992 216.2 160.392 216.2ZM168.91 216.2C167.87 216.2 166.937 215.973 166.11 215.52C165.283 215.067 164.637 214.447 164.17 213.66C163.703 212.873 163.47 211.987 163.47 211C163.47 210.013 163.703 209.127 164.17 208.34C164.637 207.553 165.283 206.933 166.11 206.48C166.937 206.027 167.87 205.8 168.91 205.8C169.963 205.8 170.903 206.027 171.73 206.48C172.557 206.933 173.203 207.553 173.67 208.34C174.137 209.127 174.37 210.013 174.37 211C174.37 211.987 174.137 212.873 173.67 213.66C173.203 214.447 172.557 215.067 171.73 215.52C170.903 215.973 169.963 216.2 168.91 216.2ZM168.91 213.78C169.683 213.78 170.317 213.533 170.81 213.04C171.317 212.533 171.57 211.853 171.57 211C171.57 210.147 171.317 209.473 170.81 208.98C170.317 208.473 169.683 208.22 168.91 208.22C168.137 208.22 167.503 208.473 167.01 208.98C166.517 209.473 166.27 210.147 166.27 211C166.27 211.853 166.517 212.533 167.01 213.04C167.503 213.533 168.137 213.78 168.91 213.78ZM176.334 206H179.134V207.08C179.96 206.227 181.034 205.8 182.354 205.8C183.127 205.8 183.874 206 184.594 206.4C185.314 206.787 185.9 207.373 186.354 208.16C186.807 208.933 187.034 209.88 187.034 211C187.034 212.12 186.794 213.073 186.314 213.86C185.847 214.633 185.227 215.22 184.454 215.62C183.694 216.007 182.88 216.2 182.014 216.2C181.454 216.2 180.92 216.107 180.414 215.92C179.92 215.733 179.494 215.487 179.134 215.18V220H176.334V206ZM181.614 213.88C182.374 213.88 182.994 213.627 183.474 213.12C183.954 212.613 184.194 211.907 184.194 211C184.194 210.093 183.947 209.387 183.454 208.88C182.974 208.373 182.347 208.12 181.574 208.12C180.88 208.12 180.3 208.34 179.834 208.78C179.367 209.207 179.134 209.787 179.134 210.52V211.48C179.134 212.2 179.367 212.78 179.834 213.22C180.314 213.66 180.907 213.88 181.614 213.88ZM188.99 206H191.79V207.08C192.617 206.227 193.69 205.8 195.01 205.8C195.783 205.8 196.53 206 197.25 206.4C197.97 206.787 198.557 207.373 199.01 208.16C199.463 208.933 199.69 209.88 199.69 211C199.69 212.12 199.45 213.073 198.97 213.86C198.503 214.633 197.883 215.22 197.11 215.62C196.35 216.007 195.537 216.2 194.67 216.2C194.11 216.2 193.577 216.107 193.07 215.92C192.577 215.733 192.15 215.487 191.79 215.18V220H188.99V206ZM194.27 213.88C195.03 213.88 195.65 213.627 196.13 213.12C196.61 212.613 196.85 211.907 196.85 211C196.85 210.093 196.603 209.387 196.11 208.88C195.63 208.373 195.003 208.12 194.23 208.12C193.537 208.12 192.957 208.34 192.49 208.78C192.023 209.207 191.79 209.787 191.79 210.52V211.48C191.79 212.2 192.023 212.78 192.49 213.22C192.97 213.66 193.563 213.88 194.27 213.88ZM202.946 204.9C202.506 204.9 202.126 204.74 201.806 204.42C201.486 204.1 201.326 203.72 201.326 203.28C201.326 202.84 201.486 202.46 201.806 202.14C202.126 201.82 202.506 201.66 202.946 201.66C203.4 201.66 203.78 201.82 204.086 202.14C204.406 202.46 204.566 202.84 204.566 203.28C204.566 203.72 204.406 204.1 204.086 204.42C203.78 204.74 203.4 204.9 202.946 204.9ZM201.546 206H204.346V216H201.546V206ZM206.724 206H209.524V207.3C210.471 206.3 211.578 205.8 212.844 205.8C213.924 205.8 214.771 206.113 215.384 206.74C215.998 207.367 216.304 208.173 216.304 209.16V216H213.504V209.98C213.504 209.393 213.364 208.953 213.084 208.66C212.818 208.353 212.418 208.2 211.884 208.2C211.418 208.2 210.971 208.347 210.544 208.64C210.118 208.92 209.778 209.273 209.524 209.7V216H206.724V206ZM223.417 220.2C222.057 220.2 220.977 219.907 220.177 219.32C219.39 218.733 218.897 218.02 218.697 217.18L218.917 216.96L221.457 216.68C221.71 217.547 222.39 217.98 223.497 217.98C224.23 217.98 224.797 217.78 225.197 217.38C225.597 216.98 225.797 216.42 225.797 215.7V214.98C225.384 215.34 224.97 215.6 224.557 215.76C224.144 215.92 223.617 216 222.977 216C222.11 216 221.31 215.793 220.577 215.38C219.844 214.967 219.257 214.373 218.817 213.6C218.39 212.827 218.177 211.927 218.177 210.9C218.177 209.873 218.397 208.973 218.837 208.2C219.29 207.427 219.884 206.833 220.617 206.42C221.364 206.007 222.157 205.8 222.997 205.8C224.117 205.8 225.05 206.16 225.797 206.88V206H228.457V215.6C228.457 217.053 228.017 218.18 227.137 218.98C226.27 219.793 225.03 220.2 223.417 220.2ZM223.417 213.76C224.137 213.76 224.71 213.547 225.137 213.12C225.577 212.693 225.797 212.133 225.797 211.44V210.38C225.797 209.673 225.57 209.107 225.117 208.68C224.664 208.253 224.097 208.04 223.417 208.04C222.67 208.04 222.05 208.273 221.557 208.74C221.077 209.207 220.837 209.927 220.837 210.9C220.837 211.873 221.077 212.593 221.557 213.06C222.05 213.527 222.67 213.76 223.417 213.76ZM80.4107 242.2C79.8374 242.2 79.304 242.08 78.8107 241.84C78.3307 241.587 77.944 241.233 77.6507 240.78C77.3707 240.313 77.2307 239.773 77.2307 239.16C77.2307 238.253 77.544 237.527 78.1707 236.98C78.7974 236.42 79.6574 236.087 80.7507 235.98L83.4507 235.7V235.26C83.4507 234.807 83.304 234.453 83.0107 234.2C82.7307 233.947 82.3307 233.82 81.8107 233.82C81.344 233.82 80.9707 233.947 80.6907 234.2C80.4107 234.44 80.2374 234.773 80.1707 235.2L77.8107 235L77.7107 234.88C77.9107 233.88 78.384 233.12 79.1307 232.6C79.8774 232.067 80.784 231.8 81.8507 231.8C83.1174 231.8 84.144 232.12 84.9307 232.76C85.7174 233.387 86.1107 234.273 86.1107 235.42V239C86.1107 239.307 86.1707 239.54 86.2907 239.7C86.424 239.86 86.604 239.94 86.8307 239.94C86.9774 239.94 87.104 239.92 87.2107 239.88L87.3107 240V241.92C86.9107 242.053 86.4507 242.12 85.9307 242.12C84.8507 242.12 84.104 241.667 83.6907 240.76H83.5507C83.084 241.24 82.604 241.6 82.1107 241.84C81.6174 242.08 81.0507 242.2 80.4107 242.2ZM81.0507 240.08C81.5307 240.08 81.9507 239.96 82.3107 239.72C82.684 239.48 83.064 239.113 83.4507 238.62V237.46L81.2507 237.74C80.784 237.793 80.424 237.933 80.1707 238.16C79.9307 238.387 79.8107 238.667 79.8107 239C79.8107 239.333 79.924 239.6 80.1507 239.8C80.3907 239.987 80.6907 240.08 81.0507 240.08ZM89.117 232H91.917V233.3C92.8636 232.3 93.9703 231.8 95.237 231.8C96.317 231.8 97.1636 232.113 97.777 232.74C98.3903 233.367 98.697 234.173 98.697 235.16V242H95.897V235.98C95.897 235.393 95.757 234.953 95.477 234.66C95.2103 234.353 94.8103 234.2 94.277 234.2C93.8103 234.2 93.3636 234.347 92.937 234.64C92.5103 234.92 92.1703 235.273 91.917 235.7V242H89.117V232ZM105.37 242.2C104.583 242.2 103.823 242.007 103.09 241.62C102.356 241.22 101.75 240.627 101.27 239.84C100.803 239.053 100.57 238.107 100.57 237C100.57 235.88 100.803 234.933 101.27 234.16C101.736 233.373 102.35 232.787 103.11 232.4C103.87 232 104.676 231.8 105.53 231.8C106.65 231.8 107.63 232.14 108.47 232.82V227.4H111.27V242H108.47V240.96C107.696 241.787 106.663 242.2 105.37 242.2ZM106.03 239.88C106.723 239.88 107.303 239.667 107.77 239.24C108.236 238.8 108.47 238.213 108.47 237.48V236.52C108.47 235.8 108.23 235.22 107.75 234.78C107.283 234.34 106.703 234.12 106.01 234.12C105.236 234.12 104.61 234.373 104.13 234.88C103.65 235.387 103.41 236.093 103.41 237C103.41 237.907 103.65 238.613 104.13 239.12C104.623 239.627 105.256 239.88 106.03 239.88ZM117.945 227.4H120.745V242H117.945V227.4ZM127.839 242.2C126.852 242.2 125.965 241.987 125.179 241.56C124.405 241.12 123.799 240.507 123.359 239.72C122.919 238.933 122.699 238.027 122.699 237C122.699 235.987 122.932 235.087 123.399 234.3C123.879 233.513 124.512 232.9 125.299 232.46C126.085 232.02 126.932 231.8 127.839 231.8C128.825 231.8 129.699 232.007 130.459 232.42C131.219 232.833 131.805 233.427 132.219 234.2C132.645 234.973 132.859 235.887 132.859 236.94V237.68H125.339C125.405 238.373 125.665 238.927 126.119 239.34C126.585 239.74 127.179 239.94 127.899 239.94C129.045 239.94 129.805 239.427 130.179 238.4L132.519 238.64L132.659 238.88C132.285 239.987 131.685 240.82 130.859 241.38C130.045 241.927 129.039 242.2 127.839 242.2ZM130.219 235.88C130.152 235.28 129.899 234.8 129.459 234.44C129.019 234.08 128.472 233.9 127.819 233.9C127.232 233.9 126.712 234.08 126.259 234.44C125.819 234.8 125.539 235.28 125.419 235.88H130.219ZM138.508 242.2C137.574 242.2 136.834 241.947 136.288 241.44C135.741 240.933 135.468 240.173 135.468 239.16V234.32H133.688V232H135.468V229.14H135.828L138.248 229.98V232H140.368V234.32H138.248V238.92C138.248 239.24 138.341 239.487 138.528 239.66C138.714 239.833 138.981 239.92 139.328 239.92C139.541 239.92 139.808 239.873 140.128 239.78L140.268 239.86V242C139.694 242.133 139.108 242.2 138.508 242.2ZM146.34 242.2C145.406 242.2 144.666 241.947 144.12 241.44C143.573 240.933 143.3 240.173 143.3 239.16V234.32H141.52V232H143.3V229.14H143.66L146.08 229.98V232H148.2V234.32H146.08V238.92C146.08 239.24 146.173 239.487 146.36 239.66C146.546 239.833 146.813 239.92 147.16 239.92C147.373 239.92 147.64 239.873 147.96 239.78L148.1 239.86V242C147.526 242.133 146.94 242.2 146.34 242.2ZM151.472 230.9C151.032 230.9 150.652 230.74 150.332 230.42C150.012 230.1 149.852 229.72 149.852 229.28C149.852 228.84 150.012 228.46 150.332 228.14C150.652 227.82 151.032 227.66 151.472 227.66C151.925 227.66 152.305 227.82 152.612 228.14C152.932 228.46 153.092 228.84 153.092 229.28C153.092 229.72 152.932 230.1 152.612 230.42C152.305 230.74 151.925 230.9 151.472 230.9ZM150.072 232H152.872V242H150.072V232ZM155.25 232H158.05V233.3C158.996 232.3 160.103 231.8 161.37 231.8C162.45 231.8 163.296 232.113 163.91 232.74C164.523 233.367 164.83 234.173 164.83 235.16V242H162.03V235.98C162.03 235.393 161.89 234.953 161.61 234.66C161.343 234.353 160.943 234.2 160.41 234.2C159.943 234.2 159.496 234.347 159.07 234.64C158.643 234.92 158.303 235.273 158.05 235.7V242H155.25V232ZM171.942 246.2C170.582 246.2 169.502 245.907 168.702 245.32C167.916 244.733 167.422 244.02 167.222 243.18L167.442 242.96L169.982 242.68C170.236 243.547 170.916 243.98 172.022 243.98C172.756 243.98 173.322 243.78 173.722 243.38C174.122 242.98 174.322 242.42 174.322 241.7V240.98C173.909 241.34 173.496 241.6 173.082 241.76C172.669 241.92 172.142 242 171.502 242C170.636 242 169.836 241.793 169.102 241.38C168.369 240.967 167.782 240.373 167.342 239.6C166.916 238.827 166.702 237.927 166.702 236.9C166.702 235.873 166.922 234.973 167.362 234.2C167.816 233.427 168.409 232.833 169.142 232.42C169.889 232.007 170.682 231.8 171.522 231.8C172.642 231.8 173.576 232.16 174.322 232.88V232H176.982V241.6C176.982 243.053 176.542 244.18 175.662 244.98C174.796 245.793 173.556 246.2 171.942 246.2ZM171.942 239.76C172.662 239.76 173.236 239.547 173.662 239.12C174.102 238.693 174.322 238.133 174.322 237.44V236.38C174.322 235.673 174.096 235.107 173.642 234.68C173.189 234.253 172.622 234.04 171.942 234.04C171.196 234.04 170.576 234.273 170.082 234.74C169.602 235.207 169.362 235.927 169.362 236.9C169.362 237.873 169.602 238.593 170.082 239.06C170.576 239.527 171.196 239.76 171.942 239.76ZM188.388 246.2C187.028 246.2 185.948 245.907 185.148 245.32C184.361 244.733 183.868 244.02 183.668 243.18L183.888 242.96L186.428 242.68C186.681 243.547 187.361 243.98 188.468 243.98C189.201 243.98 189.768 243.78 190.168 243.38C190.568 242.98 190.768 242.42 190.768 241.7V240.98C190.354 241.34 189.941 241.6 189.528 241.76C189.114 241.92 188.588 242 187.948 242C187.081 242 186.281 241.793 185.548 241.38C184.814 240.967 184.228 240.373 183.788 239.6C183.361 238.827 183.148 237.927 183.148 236.9C183.148 235.873 183.368 234.973 183.808 234.2C184.261 233.427 184.854 232.833 185.588 232.42C186.334 232.007 187.128 231.8 187.968 231.8C189.088 231.8 190.021 232.16 190.768 232.88V232H193.428V241.6C193.428 243.053 192.988 244.18 192.108 244.98C191.241 245.793 190.001 246.2 188.388 246.2ZM188.388 239.76C189.108 239.76 189.681 239.547 190.108 239.12C190.548 238.693 190.768 238.133 190.768 237.44V236.38C190.768 235.673 190.541 235.107 190.088 234.68C189.634 234.253 189.068 234.04 188.388 234.04C187.641 234.04 187.021 234.273 186.528 234.74C186.048 235.207 185.808 235.927 185.808 236.9C185.808 237.873 186.048 238.593 186.528 239.06C187.021 239.527 187.641 239.76 188.388 239.76ZM200.834 242.2C199.794 242.2 198.86 241.973 198.034 241.52C197.207 241.067 196.56 240.447 196.094 239.66C195.627 238.873 195.394 237.987 195.394 237C195.394 236.013 195.627 235.127 196.094 234.34C196.56 233.553 197.207 232.933 198.034 232.48C198.86 232.027 199.794 231.8 200.834 231.8C201.887 231.8 202.827 232.027 203.654 232.48C204.48 232.933 205.127 233.553 205.594 234.34C206.06 235.127 206.294 236.013 206.294 237C206.294 237.987 206.06 238.873 205.594 239.66C205.127 240.447 204.48 241.067 203.654 241.52C202.827 241.973 201.887 242.2 200.834 242.2ZM200.834 239.78C201.607 239.78 202.24 239.533 202.734 239.04C203.24 238.533 203.494 237.853 203.494 237C203.494 236.147 203.24 235.473 202.734 234.98C202.24 234.473 201.607 234.22 200.834 234.22C200.06 234.22 199.427 234.473 198.934 234.98C198.44 235.473 198.194 236.147 198.194 237C198.194 237.853 198.44 238.533 198.934 239.04C199.427 239.533 200.06 239.78 200.834 239.78ZM210.143 236.72C210.117 236.08 210.177 235.547 210.323 235.12C210.483 234.693 210.69 234.353 210.943 234.1C211.197 233.833 211.55 233.527 212.003 233.18C212.43 232.86 212.723 232.573 212.883 232.32C213.043 232.067 213.123 231.76 213.123 231.4C213.123 231.027 212.963 230.713 212.643 230.46C212.323 230.193 211.89 230.06 211.343 230.06C210.73 230.06 210.223 230.247 209.823 230.62C209.437 230.98 209.223 231.44 209.183 232L206.923 231.66L206.743 231.4C206.823 230.707 207.07 230.087 207.483 229.54C207.91 228.993 208.457 228.567 209.123 228.26C209.79 227.953 210.53 227.8 211.343 227.8C212.783 227.8 213.883 228.12 214.643 228.76C215.403 229.387 215.783 230.213 215.783 231.24C215.783 231.947 215.617 232.573 215.283 233.12C214.95 233.653 214.443 234.16 213.763 234.64C213.31 234.96 212.97 235.273 212.743 235.58C212.53 235.887 212.41 236.26 212.383 236.7L212.363 237.22H210.163L210.143 236.72ZM211.263 242C210.81 242 210.41 241.833 210.063 241.5C209.73 241.153 209.563 240.753 209.563 240.3C209.563 239.833 209.73 239.433 210.063 239.1C210.397 238.753 210.797 238.58 211.263 238.58C211.73 238.58 212.13 238.753 212.463 239.1C212.797 239.433 212.963 239.833 212.963 240.3C212.963 240.753 212.797 241.153 212.463 241.5C212.13 241.833 211.73 242 211.263 242Z" fill="black"/>
<path d="M145.716 27.5091V10.7914C145.716 10.3599 146.064 10.0115 146.496 10.0115C146.927 10.0115 147.276 10.3599 147.276 10.7914V27.7586L160.4 17.0417C160.057 15.5961 159.709 14.213 159.36 12.9182C155.757 -0.440287 146.496 0.00170265 146.496 0.00170265C146.496 0.00170265 137.235 -0.440287 133.636 12.9182C133.304 14.1506 132.976 15.4557 132.648 16.8285L145.721 27.5091H145.716Z" fill="black"/>
<path d="M162.198 25.4627L153.218 32.7841C153.072 32.9037 152.901 32.9609 152.724 32.9609C152.495 32.9609 152.271 32.8621 152.121 32.6749C151.85 32.3421 151.897 31.8481 152.23 31.5777L161.855 23.7259C161.512 21.9943 161.153 20.3252 160.794 18.734L147.274 29.7734V87.232C147.274 87.6636 146.926 88.012 146.494 88.012C146.063 88.012 145.714 87.6636 145.714 87.232V29.5186L132.247 18.5156C129.564 30.2517 127.234 46.075 127.016 60.5098L137.379 68.8816C137.712 69.152 137.769 69.6408 137.493 69.9788C137.337 70.1712 137.114 70.27 136.885 70.27C136.713 70.27 136.542 70.2128 136.396 70.0984L127 62.5014C127 65.3041 127.073 68.0445 127.255 70.6756C128.378 87.2736 142.256 93.6383 145.72 94.9746V127.266C145.72 127.697 146.068 128.046 146.5 128.046C146.931 128.046 147.28 127.697 147.28 127.266V94.9746C150.743 93.6383 164.616 87.2736 165.744 70.6756C166.706 56.4851 164.829 39.2631 162.203 25.4627H162.198Z" fill="black"/>
</svg>
