<svg width="338" height="324" viewBox="0 0 338 324" fill="none" xmlns="http://www.w3.org/2000/svg">
<path d="M201.377 41.9267C201.888 41.7192 202.135 41.1361 201.928 40.6243C201.72 40.1125 201.137 39.8658 200.625 40.0733L201.377 41.9267ZM67.5008 136L66.5052 135.906L67.5008 136ZM200.625 40.0733C179.005 48.838 146.374 64.1131 118.732 81.4655C104.913 90.1403 92.3048 99.3561 82.939 108.56C73.6061 117.732 67.3398 127.039 66.5052 135.906L68.4964 136.094C69.2619 127.961 75.0872 119.081 84.3408 109.987C93.5614 100.925 106.035 91.7972 119.795 83.1595C147.311 65.8869 179.83 50.662 201.377 41.9267L200.625 40.0733ZM66.5052 135.906C65.4899 146.694 67.7212 154.133 72.9163 158.828C78.065 163.481 85.8961 165.219 95.5666 165.187C105.264 165.156 117.016 163.342 130.207 160.675C143.399 158.009 158.117 154.471 173.719 150.976L173.282 149.024C157.635 152.529 142.977 156.054 129.811 158.715C116.642 161.377 105.051 163.157 95.5601 163.188C86.043 163.219 78.8429 161.488 74.2572 157.344C69.7179 153.242 67.5117 146.556 68.4964 136.094L66.5052 135.906ZM173.719 150.976C204.903 143.991 230.143 142.389 249.099 145.301C268.061 148.213 280.585 155.611 286.627 166.486L288.375 165.514C281.916 153.889 268.69 146.287 249.403 143.324C230.108 140.361 204.598 142.009 173.282 149.024L173.719 150.976ZM286.627 166.486C287.298 167.694 287.33 168.628 287.002 169.408C286.65 170.243 285.802 171.104 284.298 171.943C281.287 173.625 276.172 174.934 269.384 175.948C255.861 177.969 236.236 178.75 214.971 179.375C193.737 180 170.894 180.469 151.024 181.878C141.086 182.582 131.872 183.522 123.958 184.838C116.058 186.151 109.389 187.849 104.578 190.094L105.424 191.906C109.987 189.776 116.444 188.114 124.286 186.811C132.114 185.509 141.259 184.575 151.165 183.872C170.982 182.468 193.765 182 215.03 181.375C236.265 180.75 256.016 179.968 269.68 177.927C276.486 176.91 281.918 175.563 285.273 173.69C286.953 172.752 288.244 171.61 288.845 170.185C289.468 168.704 289.266 167.118 288.375 165.514L286.627 166.486ZM104.578 190.094C95.0545 194.538 88.8779 200.401 85.8381 206.863C82.7899 213.344 82.9473 220.323 85.9023 226.85C91.7909 239.857 108.699 250.974 133.399 253.495L133.602 251.505C109.303 249.026 93.2107 238.143 87.7243 226.025C84.9918 219.99 84.868 213.625 87.6479 207.715C90.4362 201.787 96.1971 196.212 105.424 191.906L104.578 190.094ZM133.399 253.495C158.353 256.041 179.402 241.26 198.813 225.718C208.57 217.906 217.902 209.908 227.224 203.618C236.54 197.333 245.715 192.848 255.091 191.996L254.91 190.004C245.037 190.902 235.525 195.605 226.106 201.96C216.693 208.311 207.244 216.406 197.563 224.157C178.099 239.74 157.649 253.959 133.602 251.505L133.399 253.495ZM255.091 191.996C264.432 191.147 271.426 194.143 276.127 199.335C280.853 204.556 283.347 212.096 283.438 220.448C283.622 237.161 274.183 256.791 254.554 266.606L255.448 268.394C275.819 258.209 285.63 237.839 285.438 220.427C285.343 211.717 282.742 203.663 277.609 197.993C272.45 192.294 264.819 189.103 254.91 190.004L255.091 191.996ZM254.554 266.606C238.587 274.589 226.297 279.57 217.432 282.552C208.529 285.547 203.161 286.5 201.001 286.5V288.5C203.508 288.5 209.139 287.453 218.07 284.448C227.038 281.43 239.415 276.411 255.448 268.394L254.554 266.606Z" fill="url(#paint0_linear_60701_1180)"/>
<g filter="url(#filter0_d_60701_1180)">
<rect x="104" y="249" width="203" height="56" rx="28" fill="white"/>
<rect x="104.5" y="249.5" width="202" height="55" rx="27.5" stroke="#D9D9DA"/>
</g>
<g filter="url(#filter1_d_60701_1180)">
<rect x="15" y="207" width="179" height="56" rx="28" fill="white"/>
<rect x="15.5" y="207.5" width="178" height="55" rx="27.5" stroke="#D9D9DA"/>
</g>
<g filter="url(#filter2_d_60701_1180)">
<rect x="29" y="117" width="187" height="56" rx="28" fill="white"/>
<rect x="29.5" y="117.5" width="186" height="55" rx="27.5" stroke="#D9D9DA"/>
</g>
<g filter="url(#filter3_d_60701_1180)">
<rect x="136" y="159" width="187" height="56" rx="28" fill="white"/>
<rect x="136.5" y="159.5" width="186" height="55" rx="27.5" stroke="#D9D9DA"/>
</g>
<g filter="url(#filter4_d_60701_1180)">
<rect x="142" y="75" width="178" height="56" rx="28" fill="white"/>
<rect x="142.5" y="75.5" width="177" height="55" rx="27.5" stroke="#D9D9DA"/>
</g>
<g filter="url(#filter5_d_60701_1180)">
<rect x="61" y="36" width="121" height="56" rx="28" fill="white"/>
<rect x="61.5" y="36.5" width="120" height="55" rx="27.5" stroke="#D9D9DA"/>
</g>
<path d="M100.464 70.2C99.4641 70.2 98.5574 70.0133 97.7441 69.64C96.9441 69.2667 96.2974 68.7467 95.8041 68.08C95.3107 67.4133 95.0241 66.6467 94.9441 65.78L95.1041 65.56L97.8841 65.14C97.9641 65.9533 98.2507 66.58 98.7441 67.02C99.2507 67.46 99.8774 67.68 100.624 67.68C101.291 67.68 101.831 67.5067 102.244 67.16C102.657 66.8133 102.864 66.3267 102.864 65.7C102.864 65.1933 102.724 64.7933 102.444 64.5C102.177 64.1933 101.831 63.96 101.404 63.8C100.977 63.64 100.391 63.4733 99.6441 63.3C98.3241 62.98 97.2974 62.5267 96.5641 61.94C95.8441 61.3533 95.4841 60.5333 95.4841 59.48C95.4841 58.7333 95.6841 58.08 96.0841 57.52C96.4974 56.96 97.0641 56.5333 97.7841 56.24C98.5041 55.9467 99.3174 55.8 100.224 55.8C101.691 55.8 102.851 56.1533 103.704 56.86C104.557 57.5533 105.071 58.48 105.244 59.64L105.084 59.86L102.504 60.14C102.424 59.4733 102.184 58.9533 101.784 58.58C101.397 58.2067 100.864 58.02 100.184 58.02C99.6507 58.02 99.2174 58.14 98.8841 58.38C98.5507 58.6067 98.3841 58.9133 98.3841 59.3C98.3841 59.6333 98.5041 59.9133 98.7441 60.14C98.9974 60.3533 99.3307 60.5333 99.7441 60.68C100.171 60.8133 100.757 60.9667 101.504 61.14C102.851 61.46 103.911 61.9467 104.684 62.6C105.471 63.2533 105.864 64.22 105.864 65.5C105.864 66.46 105.624 67.3 105.144 68.02C104.677 68.7267 104.031 69.2667 103.204 69.64C102.391 70.0133 101.477 70.2 100.464 70.2ZM108.099 55.4H110.899V70H108.099V55.4ZM117.993 70.2C117.006 70.2 116.119 69.9867 115.333 69.56C114.559 69.12 113.953 68.5067 113.513 67.72C113.073 66.9333 112.853 66.0267 112.853 65C112.853 63.9867 113.086 63.0867 113.553 62.3C114.033 61.5133 114.666 60.9 115.453 60.46C116.239 60.02 117.086 59.8 117.993 59.8C118.979 59.8 119.853 60.0067 120.613 60.42C121.373 60.8333 121.959 61.4267 122.373 62.2C122.799 62.9733 123.013 63.8867 123.013 64.94V65.68H115.493C115.559 66.3733 115.819 66.9267 116.273 67.34C116.739 67.74 117.333 67.94 118.053 67.94C119.199 67.94 119.959 67.4267 120.333 66.4L122.673 66.64L122.813 66.88C122.439 67.9867 121.839 68.82 121.013 69.38C120.199 69.9267 119.193 70.2 117.993 70.2ZM120.373 63.88C120.306 63.28 120.053 62.8 119.613 62.44C119.173 62.08 118.626 61.9 117.973 61.9C117.386 61.9 116.866 62.08 116.413 62.44C115.973 62.8 115.693 63.28 115.573 63.88H120.373ZM129.516 70.2C128.53 70.2 127.643 69.9867 126.856 69.56C126.083 69.12 125.476 68.5067 125.036 67.72C124.596 66.9333 124.376 66.0267 124.376 65C124.376 63.9867 124.61 63.0867 125.076 62.3C125.556 61.5133 126.19 60.9 126.976 60.46C127.763 60.02 128.61 59.8 129.516 59.8C130.503 59.8 131.376 60.0067 132.136 60.42C132.896 60.8333 133.483 61.4267 133.896 62.2C134.323 62.9733 134.536 63.8867 134.536 64.94V65.68H127.016C127.083 66.3733 127.343 66.9267 127.796 67.34C128.263 67.74 128.856 67.94 129.576 67.94C130.723 67.94 131.483 67.4267 131.856 66.4L134.196 66.64L134.336 66.88C133.963 67.9867 133.363 68.82 132.536 69.38C131.723 69.9267 130.716 70.2 129.516 70.2ZM131.896 63.88C131.83 63.28 131.576 62.8 131.136 62.44C130.696 62.08 130.15 61.9 129.496 61.9C128.91 61.9 128.39 62.08 127.936 62.44C127.496 62.8 127.216 63.28 127.096 63.88H131.896ZM136.42 60H139.22V61.08C140.046 60.2267 141.12 59.8 142.44 59.8C143.213 59.8 143.96 60 144.68 60.4C145.4 60.7867 145.986 61.3733 146.44 62.16C146.893 62.9333 147.12 63.88 147.12 65C147.12 66.12 146.88 67.0733 146.4 67.86C145.933 68.6333 145.313 69.22 144.54 69.62C143.78 70.0067 142.966 70.2 142.1 70.2C141.54 70.2 141.006 70.1067 140.5 69.92C140.006 69.7333 139.58 69.4867 139.22 69.18V74H136.42V60ZM141.7 67.88C142.46 67.88 143.08 67.6267 143.56 67.12C144.04 66.6133 144.28 65.9067 144.28 65C144.28 64.0933 144.033 63.3867 143.54 62.88C143.06 62.3733 142.433 62.12 141.66 62.12C140.966 62.12 140.386 62.34 139.92 62.78C139.453 63.2067 139.22 63.7867 139.22 64.52V65.48C139.22 66.2 139.453 66.78 139.92 67.22C140.4 67.66 140.993 67.88 141.7 67.88Z" fill="black"/>
<path d="M170.572 99.6H167.052V97H177.152V99.6H173.632V111H170.572V99.6ZM182.435 111.2C181.395 111.2 180.462 110.973 179.635 110.52C178.809 110.067 178.162 109.447 177.695 108.66C177.229 107.873 176.995 106.987 176.995 106C176.995 105.013 177.229 104.127 177.695 103.34C178.162 102.553 178.809 101.933 179.635 101.48C180.462 101.027 181.395 100.8 182.435 100.8C183.489 100.8 184.429 101.027 185.255 101.48C186.082 101.933 186.729 102.553 187.195 103.34C187.662 104.127 187.895 105.013 187.895 106C187.895 106.987 187.662 107.873 187.195 108.66C186.729 109.447 186.082 110.067 185.255 110.52C184.429 110.973 183.489 111.2 182.435 111.2ZM182.435 108.78C183.209 108.78 183.842 108.533 184.335 108.04C184.842 107.533 185.095 106.853 185.095 106C185.095 105.147 184.842 104.473 184.335 103.98C183.842 103.473 183.209 103.22 182.435 103.22C181.662 103.22 181.029 103.473 180.535 103.98C180.042 104.473 179.795 105.147 179.795 106C179.795 106.853 180.042 107.533 180.535 108.04C181.029 108.533 181.662 108.78 182.435 108.78ZM194.138 97H203.658V99.6H197.198V102.84H203.138V105.46H197.198V111H194.138V97ZM210.046 111.2C209.059 111.2 208.172 110.987 207.386 110.56C206.612 110.12 206.006 109.507 205.566 108.72C205.126 107.933 204.906 107.027 204.906 106C204.906 104.987 205.139 104.087 205.606 103.3C206.086 102.513 206.719 101.9 207.506 101.46C208.292 101.02 209.139 100.8 210.046 100.8C211.032 100.8 211.906 101.007 212.666 101.42C213.426 101.833 214.012 102.427 214.426 103.2C214.852 103.973 215.066 104.887 215.066 105.94V106.68H207.546C207.612 107.373 207.872 107.927 208.326 108.34C208.792 108.74 209.386 108.94 210.106 108.94C211.252 108.94 212.012 108.427 212.386 107.4L214.726 107.64L214.866 107.88C214.492 108.987 213.892 109.82 213.066 110.38C212.252 110.927 211.246 111.2 210.046 111.2ZM212.426 104.88C212.359 104.28 212.106 103.8 211.666 103.44C211.226 103.08 210.679 102.9 210.026 102.9C209.439 102.9 208.919 103.08 208.466 103.44C208.026 103.8 207.746 104.28 207.626 104.88H212.426ZM221.569 111.2C220.582 111.2 219.696 110.987 218.909 110.56C218.136 110.12 217.529 109.507 217.089 108.72C216.649 107.933 216.429 107.027 216.429 106C216.429 104.987 216.662 104.087 217.129 103.3C217.609 102.513 218.242 101.9 219.029 101.46C219.816 101.02 220.662 100.8 221.569 100.8C222.556 100.8 223.429 101.007 224.189 101.42C224.949 101.833 225.536 102.427 225.949 103.2C226.376 103.973 226.589 104.887 226.589 105.94V106.68H219.069C219.136 107.373 219.396 107.927 219.849 108.34C220.316 108.74 220.909 108.94 221.629 108.94C222.776 108.94 223.536 108.427 223.909 107.4L226.249 107.64L226.389 107.88C226.016 108.987 225.416 109.82 224.589 110.38C223.776 110.927 222.769 111.2 221.569 111.2ZM223.949 104.88C223.882 104.28 223.629 103.8 223.189 103.44C222.749 103.08 222.202 102.9 221.549 102.9C220.962 102.9 220.442 103.08 219.989 103.44C219.549 103.8 219.269 104.28 219.149 104.88H223.949ZM228.472 96.4H231.272V111H228.472V96.4ZM238.025 97H244.105C244.998 97 245.785 97.1533 246.465 97.46C247.145 97.7667 247.672 98.1933 248.045 98.74C248.418 99.2733 248.605 99.8733 248.605 100.54C248.605 101.247 248.472 101.827 248.205 102.28C247.938 102.72 247.538 103.107 247.005 103.44V103.58C247.712 103.847 248.278 104.26 248.705 104.82C249.145 105.367 249.365 106.047 249.365 106.86C249.365 107.673 249.158 108.393 248.745 109.02C248.345 109.647 247.758 110.133 246.985 110.48C246.225 110.827 245.318 111 244.265 111H238.025V97ZM244.045 102.58C244.592 102.58 245.012 102.453 245.305 102.2C245.612 101.947 245.765 101.58 245.765 101.1C245.765 100.607 245.612 100.233 245.305 99.98C245.012 99.7267 244.592 99.6 244.045 99.6H241.085V102.58H244.045ZM244.545 108.4C245.092 108.4 245.532 108.267 245.865 108C246.198 107.72 246.365 107.313 246.365 106.78C246.365 106.26 246.192 105.867 245.845 105.6C245.512 105.32 245.078 105.18 244.545 105.18H241.085V108.4H244.545ZM255.866 111.2C254.879 111.2 253.993 110.987 253.206 110.56C252.433 110.12 251.826 109.507 251.386 108.72C250.946 107.933 250.726 107.027 250.726 106C250.726 104.987 250.959 104.087 251.426 103.3C251.906 102.513 252.539 101.9 253.326 101.46C254.113 101.02 254.959 100.8 255.866 100.8C256.853 100.8 257.726 101.007 258.486 101.42C259.246 101.833 259.833 102.427 260.246 103.2C260.673 103.973 260.886 104.887 260.886 105.94V106.68H253.366C253.433 107.373 253.693 107.927 254.146 108.34C254.613 108.74 255.206 108.94 255.926 108.94C257.073 108.94 257.833 108.427 258.206 107.4L260.546 107.64L260.686 107.88C260.313 108.987 259.713 109.82 258.886 110.38C258.073 110.927 257.066 111.2 255.866 111.2ZM258.246 104.88C258.179 104.28 257.926 103.8 257.486 103.44C257.046 103.08 256.499 102.9 255.846 102.9C255.259 102.9 254.739 103.08 254.286 103.44C253.846 103.8 253.566 104.28 253.446 104.88H258.246ZM266.535 111.2C265.602 111.2 264.862 110.947 264.315 110.44C263.768 109.933 263.495 109.173 263.495 108.16V103.32H261.715V101H263.495V98.14H263.855L266.275 98.98V101H268.395V103.32H266.275V107.92C266.275 108.24 266.368 108.487 266.555 108.66C266.742 108.833 267.008 108.92 267.355 108.92C267.568 108.92 267.835 108.873 268.155 108.78L268.295 108.86V111C267.722 111.133 267.135 111.2 266.535 111.2ZM274.367 111.2C273.434 111.2 272.694 110.947 272.147 110.44C271.6 109.933 271.327 109.173 271.327 108.16V103.32H269.547V101H271.327V98.14H271.687L274.107 98.98V101H276.227V103.32H274.107V107.92C274.107 108.24 274.2 108.487 274.387 108.66C274.574 108.833 274.84 108.92 275.187 108.92C275.4 108.92 275.667 108.873 275.987 108.78L276.127 108.86V111C275.554 111.133 274.967 111.2 274.367 111.2ZM282.585 111.2C281.598 111.2 280.711 110.987 279.925 110.56C279.151 110.12 278.545 109.507 278.105 108.72C277.665 107.933 277.445 107.027 277.445 106C277.445 104.987 277.678 104.087 278.145 103.3C278.625 102.513 279.258 101.9 280.045 101.46C280.831 101.02 281.678 100.8 282.585 100.8C283.571 100.8 284.445 101.007 285.205 101.42C285.965 101.833 286.551 102.427 286.965 103.2C287.391 103.973 287.605 104.887 287.605 105.94V106.68H280.085C280.151 107.373 280.411 107.927 280.865 108.34C281.331 108.74 281.925 108.94 282.645 108.94C283.791 108.94 284.551 108.427 284.925 107.4L287.265 107.64L287.405 107.88C287.031 108.987 286.431 109.82 285.605 110.38C284.791 110.927 283.785 111.2 282.585 111.2ZM284.965 104.88C284.898 104.28 284.645 103.8 284.205 103.44C283.765 103.08 283.218 102.9 282.565 102.9C281.978 102.9 281.458 103.08 281.005 103.44C280.565 103.8 280.285 104.28 280.165 104.88H284.965ZM289.488 101H292.288V102.2C292.648 101.773 293.061 101.433 293.528 101.18C293.995 100.927 294.508 100.8 295.068 100.8C295.468 100.8 295.788 100.853 296.028 100.96L295.668 103.16L295.528 103.3C295.261 103.233 295.035 103.2 294.848 103.2C294.301 103.2 293.808 103.353 293.368 103.66C292.928 103.967 292.568 104.413 292.288 105V111H289.488V101Z" fill="black"/>
<path d="M42.4411 227H47.7411C49.3811 227 50.6878 227.413 51.6611 228.24C52.6344 229.053 53.1211 230.187 53.1211 231.64C53.1211 233.333 52.3544 234.647 50.8211 235.58V235.8L53.8411 241H50.4811L47.7211 236.18H45.5011V241H42.4411V227ZM47.8011 233.58C48.4811 233.58 49.0278 233.413 49.4411 233.08C49.8544 232.733 50.0611 232.24 50.0611 231.6C50.0611 230.947 49.8544 230.453 49.4411 230.12C49.0411 229.773 48.4944 229.6 47.8011 229.6H45.5011V233.58H47.8011ZM59.6959 241.2C58.7093 241.2 57.8226 240.987 57.0359 240.56C56.2626 240.12 55.6559 239.507 55.2159 238.72C54.7759 237.933 54.5559 237.027 54.5559 236C54.5559 234.987 54.7893 234.087 55.2559 233.3C55.7359 232.513 56.3693 231.9 57.1559 231.46C57.9426 231.02 58.7893 230.8 59.6959 230.8C60.6826 230.8 61.5559 231.007 62.3159 231.42C63.0759 231.833 63.6626 232.427 64.0759 233.2C64.5026 233.973 64.7159 234.887 64.7159 235.94V236.68H57.1959C57.2626 237.373 57.5226 237.927 57.9759 238.34C58.4426 238.74 59.0359 238.94 59.7559 238.94C60.9026 238.94 61.6626 238.427 62.0359 237.4L64.3759 237.64L64.5159 237.88C64.1426 238.987 63.5426 239.82 62.7159 240.38C61.9026 240.927 60.8959 241.2 59.6959 241.2ZM62.0759 234.88C62.0093 234.28 61.7559 233.8 61.3159 233.44C60.8759 233.08 60.3293 232.9 59.6759 232.9C59.0893 232.9 58.5693 233.08 58.1159 233.44C57.6759 233.8 57.3959 234.28 57.2759 234.88H62.0759ZM66.5994 226.4H69.3994V241H66.5994V226.4ZM74.5728 241.2C73.9995 241.2 73.4661 241.08 72.9728 240.84C72.4928 240.587 72.1061 240.233 71.8128 239.78C71.5328 239.313 71.3928 238.773 71.3928 238.16C71.3928 237.253 71.7061 236.527 72.3328 235.98C72.9595 235.42 73.8195 235.087 74.9128 234.98L77.6128 234.7V234.26C77.6128 233.807 77.4661 233.453 77.1728 233.2C76.8928 232.947 76.4928 232.82 75.9728 232.82C75.5061 232.82 75.1328 232.947 74.8528 233.2C74.5728 233.44 74.3995 233.773 74.3328 234.2L71.9728 234L71.8728 233.88C72.0728 232.88 72.5461 232.12 73.2928 231.6C74.0395 231.067 74.9461 230.8 76.0128 230.8C77.2795 230.8 78.3061 231.12 79.0928 231.76C79.8795 232.387 80.2728 233.273 80.2728 234.42V238C80.2728 238.307 80.3328 238.54 80.4528 238.7C80.5861 238.86 80.7661 238.94 80.9928 238.94C81.1395 238.94 81.2661 238.92 81.3728 238.88L81.4728 239V240.92C81.0728 241.053 80.6128 241.12 80.0928 241.12C79.0128 241.12 78.2661 240.667 77.8528 239.76H77.7128C77.2461 240.24 76.7661 240.6 76.2728 240.84C75.7795 241.08 75.2128 241.2 74.5728 241.2ZM75.2128 239.08C75.6928 239.08 76.1128 238.96 76.4728 238.72C76.8461 238.48 77.2261 238.113 77.6128 237.62V236.46L75.4128 236.74C74.9461 236.793 74.5861 236.933 74.3328 237.16C74.0928 237.387 73.9728 237.667 73.9728 238C73.9728 238.333 74.0861 238.6 74.3128 238.8C74.5528 238.987 74.8528 239.08 75.2128 239.08ZM86.615 241.2C85.6817 241.2 84.9417 240.947 84.395 240.44C83.8483 239.933 83.575 239.173 83.575 238.16V233.32H81.795V231H83.575V228.14H83.935L86.355 228.98V231H88.475V233.32H86.355V237.92C86.355 238.24 86.4483 238.487 86.635 238.66C86.8217 238.833 87.0883 238.92 87.435 238.92C87.6483 238.92 87.915 238.873 88.235 238.78L88.375 238.86V241C87.8017 241.133 87.215 241.2 86.615 241.2ZM91.747 229.9C91.307 229.9 90.927 229.74 90.607 229.42C90.287 229.1 90.127 228.72 90.127 228.28C90.127 227.84 90.287 227.46 90.607 227.14C90.927 226.82 91.307 226.66 91.747 226.66C92.2004 226.66 92.5804 226.82 92.887 227.14C93.207 227.46 93.367 227.84 93.367 228.28C93.367 228.72 93.207 229.1 92.887 229.42C92.5804 229.74 92.2004 229.9 91.747 229.9ZM90.347 231H93.147V241H90.347V231ZM100.445 241.2C99.4052 241.2 98.4718 240.973 97.6452 240.52C96.8185 240.067 96.1718 239.447 95.7052 238.66C95.2385 237.873 95.0052 236.987 95.0052 236C95.0052 235.013 95.2385 234.127 95.7052 233.34C96.1718 232.553 96.8185 231.933 97.6452 231.48C98.4718 231.027 99.4052 230.8 100.445 230.8C101.498 230.8 102.438 231.027 103.265 231.48C104.092 231.933 104.738 232.553 105.205 233.34C105.672 234.127 105.905 235.013 105.905 236C105.905 236.987 105.672 237.873 105.205 238.66C104.738 239.447 104.092 240.067 103.265 240.52C102.438 240.973 101.498 241.2 100.445 241.2ZM100.445 238.78C101.218 238.78 101.852 238.533 102.345 238.04C102.852 237.533 103.105 236.853 103.105 236C103.105 235.147 102.852 234.473 102.345 233.98C101.852 233.473 101.218 233.22 100.445 233.22C99.6718 233.22 99.0385 233.473 98.5452 233.98C98.0518 234.473 97.8052 235.147 97.8052 236C97.8052 236.853 98.0518 237.533 98.5452 238.04C99.0385 238.533 99.6718 238.78 100.445 238.78ZM107.869 231H110.669V232.3C111.616 231.3 112.722 230.8 113.989 230.8C115.069 230.8 115.916 231.113 116.529 231.74C117.142 232.367 117.449 233.173 117.449 234.16V241H114.649V234.98C114.649 234.393 114.509 233.953 114.229 233.66C113.962 233.353 113.562 233.2 113.029 233.2C112.562 233.2 112.116 233.347 111.689 233.64C111.262 233.92 110.922 234.273 110.669 234.7V241H107.869V231ZM123.542 241.2C122.368 241.2 121.408 240.947 120.662 240.44C119.915 239.92 119.415 239.193 119.162 238.26L119.242 238L121.382 237.36C121.622 238.48 122.342 239.04 123.542 239.04C123.955 239.04 124.295 238.953 124.562 238.78C124.828 238.607 124.962 238.367 124.962 238.06C124.962 237.74 124.808 237.493 124.502 237.32C124.208 237.133 123.628 236.927 122.762 236.7C121.708 236.447 120.915 236.08 120.382 235.6C119.848 235.107 119.582 234.46 119.582 233.66C119.582 233.127 119.728 232.647 120.022 232.22C120.328 231.78 120.755 231.433 121.302 231.18C121.848 230.927 122.475 230.8 123.182 230.8C124.235 230.8 125.095 231.033 125.762 231.5C126.442 231.953 126.882 232.6 127.082 233.44L126.962 233.66L124.842 234.18C124.748 233.713 124.548 233.36 124.242 233.12C123.935 232.867 123.562 232.74 123.122 232.74C122.788 232.74 122.508 232.813 122.282 232.96C122.055 233.093 121.942 233.28 121.942 233.52C121.942 233.813 122.128 234.053 122.502 234.24C122.875 234.427 123.555 234.653 124.542 234.92C125.568 235.2 126.322 235.567 126.802 236.02C127.295 236.473 127.542 237.1 127.542 237.9C127.542 238.513 127.375 239.073 127.042 239.58C126.722 240.087 126.255 240.487 125.642 240.78C125.042 241.06 124.342 241.2 123.542 241.2ZM129.47 226.4H132.27V232.24C132.67 231.813 133.177 231.467 133.79 231.2C134.404 230.933 135.05 230.8 135.73 230.8C136.81 230.8 137.684 231.113 138.35 231.74C139.017 232.367 139.35 233.213 139.35 234.28V241H136.55V234.98C136.55 234.393 136.384 233.953 136.05 233.66C135.73 233.353 135.31 233.2 134.79 233.2C134.297 233.2 133.83 233.327 133.39 233.58C132.95 233.82 132.577 234.167 132.27 234.62V241H129.47V226.4ZM143.056 229.9C142.616 229.9 142.236 229.74 141.916 229.42C141.596 229.1 141.436 228.72 141.436 228.28C141.436 227.84 141.596 227.46 141.916 227.14C142.236 226.82 142.616 226.66 143.056 226.66C143.509 226.66 143.889 226.82 144.196 227.14C144.516 227.46 144.676 227.84 144.676 228.28C144.676 228.72 144.516 229.1 144.196 229.42C143.889 229.74 143.509 229.9 143.056 229.9ZM141.656 231H144.456V241H141.656V231ZM146.834 231H149.634V232.08C150.46 231.227 151.534 230.8 152.854 230.8C153.627 230.8 154.374 231 155.094 231.4C155.814 231.787 156.4 232.373 156.854 233.16C157.307 233.933 157.534 234.88 157.534 236C157.534 237.12 157.294 238.073 156.814 238.86C156.347 239.633 155.727 240.22 154.954 240.62C154.194 241.007 153.38 241.2 152.514 241.2C151.954 241.2 151.42 241.107 150.914 240.92C150.42 240.733 149.994 240.487 149.634 240.18V245H146.834V231ZM152.114 238.88C152.874 238.88 153.494 238.627 153.974 238.12C154.454 237.613 154.694 236.907 154.694 236C154.694 235.093 154.447 234.387 153.954 233.88C153.474 233.373 152.847 233.12 152.074 233.12C151.38 233.12 150.8 233.34 150.334 233.78C149.867 234.207 149.634 234.787 149.634 235.52V236.48C149.634 237.2 149.867 237.78 150.334 238.22C150.814 238.66 151.407 238.88 152.114 238.88ZM163.19 241.2C162.017 241.2 161.057 240.947 160.31 240.44C159.563 239.92 159.063 239.193 158.81 238.26L158.89 238L161.03 237.36C161.27 238.48 161.99 239.04 163.19 239.04C163.603 239.04 163.943 238.953 164.21 238.78C164.477 238.607 164.61 238.367 164.61 238.06C164.61 237.74 164.457 237.493 164.15 237.32C163.857 237.133 163.277 236.927 162.41 236.7C161.357 236.447 160.563 236.08 160.03 235.6C159.497 235.107 159.23 234.46 159.23 233.66C159.23 233.127 159.377 232.647 159.67 232.22C159.977 231.78 160.403 231.433 160.95 231.18C161.497 230.927 162.123 230.8 162.83 230.8C163.883 230.8 164.743 231.033 165.41 231.5C166.09 231.953 166.53 232.6 166.73 233.44L166.61 233.66L164.49 234.18C164.397 233.713 164.197 233.36 163.89 233.12C163.583 232.867 163.21 232.74 162.77 232.74C162.437 232.74 162.157 232.813 161.93 232.96C161.703 233.093 161.59 233.28 161.59 233.52C161.59 233.813 161.777 234.053 162.15 234.24C162.523 234.427 163.203 234.653 164.19 234.92C165.217 235.2 165.97 235.567 166.45 236.02C166.943 236.473 167.19 237.1 167.19 237.9C167.19 238.513 167.023 239.073 166.69 239.58C166.37 240.087 165.903 240.487 165.29 240.78C164.69 241.06 163.99 241.2 163.19 241.2Z" fill="black"/>
<path d="M128.556 269H131.496L135.656 279.24L139.796 269H142.736V283H139.856V274.9H139.736L139.496 276.6L136.936 283H134.356L131.796 276.6L131.556 274.9H131.436V283H128.556V269ZM147.993 283.2C147.419 283.2 146.886 283.08 146.393 282.84C145.913 282.587 145.526 282.233 145.233 281.78C144.953 281.313 144.813 280.773 144.813 280.16C144.813 279.253 145.126 278.527 145.753 277.98C146.379 277.42 147.239 277.087 148.333 276.98L151.033 276.7V276.26C151.033 275.807 150.886 275.453 150.593 275.2C150.313 274.947 149.913 274.82 149.393 274.82C148.926 274.82 148.553 274.947 148.273 275.2C147.993 275.44 147.819 275.773 147.753 276.2L145.393 276L145.293 275.88C145.493 274.88 145.966 274.12 146.713 273.6C147.459 273.067 148.366 272.8 149.433 272.8C150.699 272.8 151.726 273.12 152.513 273.76C153.299 274.387 153.693 275.273 153.693 276.42V280C153.693 280.307 153.753 280.54 153.873 280.7C154.006 280.86 154.186 280.94 154.413 280.94C154.559 280.94 154.686 280.92 154.793 280.88L154.893 281V282.92C154.493 283.053 154.033 283.12 153.513 283.12C152.433 283.12 151.686 282.667 151.273 281.76H151.133C150.666 282.24 150.186 282.6 149.693 282.84C149.199 283.08 148.633 283.2 147.993 283.2ZM148.633 281.08C149.113 281.08 149.533 280.96 149.893 280.72C150.266 280.48 150.646 280.113 151.033 279.62V278.46L148.833 278.74C148.366 278.793 148.006 278.933 147.753 279.16C147.513 279.387 147.393 279.667 147.393 280C147.393 280.333 147.506 280.6 147.733 280.8C147.973 280.987 148.273 281.08 148.633 281.08ZM156.699 273H159.499V274.3C160.446 273.3 161.552 272.8 162.819 272.8C163.899 272.8 164.746 273.113 165.359 273.74C165.972 274.367 166.279 275.173 166.279 276.16V283H163.479V276.98C163.479 276.393 163.339 275.953 163.059 275.66C162.792 275.353 162.392 275.2 161.859 275.2C161.392 275.2 160.946 275.347 160.519 275.64C160.092 275.92 159.752 276.273 159.499 276.7V283H156.699V273ZM171.372 283.2C170.798 283.2 170.265 283.08 169.772 282.84C169.292 282.587 168.905 282.233 168.612 281.78C168.332 281.313 168.192 280.773 168.192 280.16C168.192 279.253 168.505 278.527 169.132 277.98C169.758 277.42 170.618 277.087 171.712 276.98L174.412 276.7V276.26C174.412 275.807 174.265 275.453 173.972 275.2C173.692 274.947 173.292 274.82 172.772 274.82C172.305 274.82 171.932 274.947 171.652 275.2C171.372 275.44 171.198 275.773 171.132 276.2L168.772 276L168.672 275.88C168.872 274.88 169.345 274.12 170.092 273.6C170.838 273.067 171.745 272.8 172.812 272.8C174.078 272.8 175.105 273.12 175.892 273.76C176.678 274.387 177.072 275.273 177.072 276.42V280C177.072 280.307 177.132 280.54 177.252 280.7C177.385 280.86 177.565 280.94 177.792 280.94C177.938 280.94 178.065 280.92 178.172 280.88L178.272 281V282.92C177.872 283.053 177.412 283.12 176.892 283.12C175.812 283.12 175.065 282.667 174.652 281.76H174.512C174.045 282.24 173.565 282.6 173.072 282.84C172.578 283.08 172.012 283.2 171.372 283.2ZM172.012 281.08C172.492 281.08 172.912 280.96 173.272 280.72C173.645 280.48 174.025 280.113 174.412 279.62V278.46L172.212 278.74C171.745 278.793 171.385 278.933 171.132 279.16C170.892 279.387 170.772 279.667 170.772 280C170.772 280.333 170.885 280.6 171.112 280.8C171.352 280.987 171.652 281.08 172.012 281.08ZM184.271 287.2C182.911 287.2 181.831 286.907 181.031 286.32C180.244 285.733 179.751 285.02 179.551 284.18L179.771 283.96L182.311 283.68C182.564 284.547 183.244 284.98 184.351 284.98C185.084 284.98 185.651 284.78 186.051 284.38C186.451 283.98 186.651 283.42 186.651 282.7V281.98C186.237 282.34 185.824 282.6 185.411 282.76C184.997 282.92 184.471 283 183.831 283C182.964 283 182.164 282.793 181.431 282.38C180.697 281.967 180.111 281.373 179.671 280.6C179.244 279.827 179.031 278.927 179.031 277.9C179.031 276.873 179.251 275.973 179.691 275.2C180.144 274.427 180.737 273.833 181.471 273.42C182.217 273.007 183.011 272.8 183.851 272.8C184.971 272.8 185.904 273.16 186.651 273.88V273H189.311V282.6C189.311 284.053 188.871 285.18 187.991 285.98C187.124 286.793 185.884 287.2 184.271 287.2ZM184.271 280.76C184.991 280.76 185.564 280.547 185.991 280.12C186.431 279.693 186.651 279.133 186.651 278.44V277.38C186.651 276.673 186.424 276.107 185.971 275.68C185.517 275.253 184.951 275.04 184.271 275.04C183.524 275.04 182.904 275.273 182.411 275.74C181.931 276.207 181.691 276.927 181.691 277.9C181.691 278.873 181.931 279.593 182.411 280.06C182.904 280.527 183.524 280.76 184.271 280.76ZM193.097 271.9C192.657 271.9 192.277 271.74 191.957 271.42C191.637 271.1 191.477 270.72 191.477 270.28C191.477 269.84 191.637 269.46 191.957 269.14C192.277 268.82 192.657 268.66 193.097 268.66C193.55 268.66 193.93 268.82 194.237 269.14C194.557 269.46 194.717 269.84 194.717 270.28C194.717 270.72 194.557 271.1 194.237 271.42C193.93 271.74 193.55 271.9 193.097 271.9ZM191.697 273H194.497V283H191.697V273ZM196.875 273H199.675V274.3C200.621 273.3 201.728 272.8 202.995 272.8C204.075 272.8 204.921 273.113 205.535 273.74C206.148 274.367 206.455 275.173 206.455 276.16V283H203.655V276.98C203.655 276.393 203.515 275.953 203.235 275.66C202.968 275.353 202.568 275.2 202.035 275.2C201.568 275.2 201.121 275.347 200.695 275.64C200.268 275.92 199.928 276.273 199.675 276.7V283H196.875V273ZM213.567 287.2C212.207 287.2 211.127 286.907 210.327 286.32C209.541 285.733 209.047 285.02 208.847 284.18L209.067 283.96L211.607 283.68C211.861 284.547 212.541 284.98 213.647 284.98C214.381 284.98 214.947 284.78 215.347 284.38C215.747 283.98 215.947 283.42 215.947 282.7V281.98C215.534 282.34 215.121 282.6 214.707 282.76C214.294 282.92 213.767 283 213.127 283C212.261 283 211.461 282.793 210.727 282.38C209.994 281.967 209.407 281.373 208.967 280.6C208.541 279.827 208.327 278.927 208.327 277.9C208.327 276.873 208.547 275.973 208.987 275.2C209.441 274.427 210.034 273.833 210.767 273.42C211.514 273.007 212.307 272.8 213.147 272.8C214.267 272.8 215.201 273.16 215.947 273.88V273H218.607V282.6C218.607 284.053 218.167 285.18 217.287 285.98C216.421 286.793 215.181 287.2 213.567 287.2ZM213.567 280.76C214.287 280.76 214.861 280.547 215.287 280.12C215.727 279.693 215.947 279.133 215.947 278.44V277.38C215.947 276.673 215.721 276.107 215.267 275.68C214.814 275.253 214.247 275.04 213.567 275.04C212.821 275.04 212.201 275.273 211.707 275.74C211.227 276.207 210.987 276.927 210.987 277.9C210.987 278.873 211.227 279.593 211.707 280.06C212.201 280.527 212.821 280.76 213.567 280.76ZM230.353 283.2C229.353 283.2 228.446 283.013 227.633 282.64C226.833 282.267 226.186 281.747 225.693 281.08C225.199 280.413 224.913 279.647 224.833 278.78L224.993 278.56L227.773 278.14C227.853 278.953 228.139 279.58 228.633 280.02C229.139 280.46 229.766 280.68 230.513 280.68C231.179 280.68 231.719 280.507 232.133 280.16C232.546 279.813 232.753 279.327 232.753 278.7C232.753 278.193 232.613 277.793 232.333 277.5C232.066 277.193 231.719 276.96 231.293 276.8C230.866 276.64 230.279 276.473 229.533 276.3C228.213 275.98 227.186 275.527 226.453 274.94C225.733 274.353 225.373 273.533 225.373 272.48C225.373 271.733 225.573 271.08 225.973 270.52C226.386 269.96 226.953 269.533 227.673 269.24C228.393 268.947 229.206 268.8 230.113 268.8C231.579 268.8 232.739 269.153 233.593 269.86C234.446 270.553 234.959 271.48 235.133 272.64L234.973 272.86L232.393 273.14C232.313 272.473 232.073 271.953 231.673 271.58C231.286 271.207 230.753 271.02 230.073 271.02C229.539 271.02 229.106 271.14 228.773 271.38C228.439 271.607 228.273 271.913 228.273 272.3C228.273 272.633 228.393 272.913 228.633 273.14C228.886 273.353 229.219 273.533 229.633 273.68C230.059 273.813 230.646 273.967 231.393 274.14C232.739 274.46 233.799 274.947 234.573 275.6C235.359 276.253 235.753 277.22 235.753 278.5C235.753 279.46 235.513 280.3 235.033 281.02C234.566 281.727 233.919 282.267 233.093 282.64C232.279 283.013 231.366 283.2 230.353 283.2ZM241.539 283.2C240.605 283.2 239.865 282.947 239.319 282.44C238.772 281.933 238.499 281.173 238.499 280.16V275.32H236.719V273H238.499V270.14H238.859L241.279 270.98V273H243.399V275.32H241.279V279.92C241.279 280.24 241.372 280.487 241.559 280.66C241.745 280.833 242.012 280.92 242.359 280.92C242.572 280.92 242.839 280.873 243.159 280.78L243.299 280.86V283C242.725 283.133 242.139 283.2 241.539 283.2ZM245.371 273H248.171V274.2C248.531 273.773 248.944 273.433 249.411 273.18C249.878 272.927 250.391 272.8 250.951 272.8C251.351 272.8 251.671 272.853 251.911 272.96L251.551 275.16L251.411 275.3C251.144 275.233 250.918 275.2 250.731 275.2C250.184 275.2 249.691 275.353 249.251 275.66C248.811 275.967 248.451 276.413 248.171 277V283H245.371V273ZM257.842 283.2C256.856 283.2 255.969 282.987 255.182 282.56C254.409 282.12 253.802 281.507 253.362 280.72C252.922 279.933 252.702 279.027 252.702 278C252.702 276.987 252.936 276.087 253.402 275.3C253.882 274.513 254.516 273.9 255.302 273.46C256.089 273.02 256.936 272.8 257.842 272.8C258.829 272.8 259.702 273.007 260.462 273.42C261.222 273.833 261.809 274.427 262.222 275.2C262.649 275.973 262.862 276.887 262.862 277.94V278.68H255.342C255.409 279.373 255.669 279.927 256.122 280.34C256.589 280.74 257.182 280.94 257.902 280.94C259.049 280.94 259.809 280.427 260.182 279.4L262.522 279.64L262.662 279.88C262.289 280.987 261.689 281.82 260.862 282.38C260.049 282.927 259.042 283.2 257.842 283.2ZM260.222 276.88C260.156 276.28 259.902 275.8 259.462 275.44C259.022 275.08 258.476 274.9 257.822 274.9C257.236 274.9 256.716 275.08 256.262 275.44C255.822 275.8 255.542 276.28 255.422 276.88H260.222ZM268.446 283.2C267.273 283.2 266.313 282.947 265.566 282.44C264.819 281.92 264.319 281.193 264.066 280.26L264.146 280L266.286 279.36C266.526 280.48 267.246 281.04 268.446 281.04C268.859 281.04 269.199 280.953 269.466 280.78C269.733 280.607 269.866 280.367 269.866 280.06C269.866 279.74 269.713 279.493 269.406 279.32C269.113 279.133 268.533 278.927 267.666 278.7C266.613 278.447 265.819 278.08 265.286 277.6C264.753 277.107 264.486 276.46 264.486 275.66C264.486 275.127 264.633 274.647 264.926 274.22C265.233 273.78 265.659 273.433 266.206 273.18C266.753 272.927 267.379 272.8 268.086 272.8C269.139 272.8 269.999 273.033 270.666 273.5C271.346 273.953 271.786 274.6 271.986 275.44L271.866 275.66L269.746 276.18C269.653 275.713 269.453 275.36 269.146 275.12C268.839 274.867 268.466 274.74 268.026 274.74C267.693 274.74 267.413 274.813 267.186 274.96C266.959 275.093 266.846 275.28 266.846 275.52C266.846 275.813 267.033 276.053 267.406 276.24C267.779 276.427 268.459 276.653 269.446 276.92C270.473 277.2 271.226 277.567 271.706 278.02C272.199 278.473 272.446 279.1 272.446 279.9C272.446 280.513 272.279 281.073 271.946 281.58C271.626 282.087 271.159 282.487 270.546 282.78C269.946 283.06 269.246 283.2 268.446 283.2ZM278.075 283.2C276.901 283.2 275.941 282.947 275.195 282.44C274.448 281.92 273.948 281.193 273.695 280.26L273.775 280L275.915 279.36C276.155 280.48 276.875 281.04 278.075 281.04C278.488 281.04 278.828 280.953 279.095 280.78C279.361 280.607 279.495 280.367 279.495 280.06C279.495 279.74 279.341 279.493 279.035 279.32C278.741 279.133 278.161 278.927 277.295 278.7C276.241 278.447 275.448 278.08 274.915 277.6C274.381 277.107 274.115 276.46 274.115 275.66C274.115 275.127 274.261 274.647 274.555 274.22C274.861 273.78 275.288 273.433 275.835 273.18C276.381 272.927 277.008 272.8 277.715 272.8C278.768 272.8 279.628 273.033 280.295 273.5C280.975 273.953 281.415 274.6 281.615 275.44L281.495 275.66L279.375 276.18C279.281 275.713 279.081 275.36 278.775 275.12C278.468 274.867 278.095 274.74 277.655 274.74C277.321 274.74 277.041 274.813 276.815 274.96C276.588 275.093 276.475 275.28 276.475 275.52C276.475 275.813 276.661 276.053 277.035 276.24C277.408 276.427 278.088 276.653 279.075 276.92C280.101 277.2 280.855 277.567 281.335 278.02C281.828 278.473 282.075 279.1 282.075 279.9C282.075 280.513 281.908 281.073 281.575 281.58C281.255 282.087 280.788 282.487 280.175 282.78C279.575 283.06 278.875 283.2 278.075 283.2Z" fill="black"/>
<path d="M64.777 137H70.377C71.4704 137 72.4304 137.193 73.257 137.58C74.097 137.953 74.7437 138.5 75.197 139.22C75.6637 139.94 75.897 140.8 75.897 141.8C75.897 142.787 75.6637 143.64 75.197 144.36C74.7437 145.08 74.097 145.633 73.257 146.02C72.4304 146.393 71.4704 146.58 70.377 146.58H67.837V151H64.777V137ZM70.197 143.98C71.957 143.98 72.837 143.253 72.837 141.8C72.837 141.04 72.6104 140.487 72.157 140.14C71.717 139.78 71.0637 139.6 70.197 139.6H67.837V143.98H70.197ZM77.7048 141H80.5048V142.2C80.8648 141.773 81.2782 141.433 81.7448 141.18C82.2115 140.927 82.7248 140.8 83.2848 140.8C83.6848 140.8 84.0048 140.853 84.2448 140.96L83.8848 143.16L83.7448 143.3C83.4782 143.233 83.2515 143.2 83.0648 143.2C82.5182 143.2 82.0248 143.353 81.5848 143.66C81.1448 143.967 80.7848 144.413 80.5048 145V151H77.7048V141ZM90.4764 151.2C89.4364 151.2 88.5031 150.973 87.6764 150.52C86.8497 150.067 86.2031 149.447 85.7364 148.66C85.2697 147.873 85.0364 146.987 85.0364 146C85.0364 145.013 85.2697 144.127 85.7364 143.34C86.2031 142.553 86.8497 141.933 87.6764 141.48C88.5031 141.027 89.4364 140.8 90.4764 140.8C91.5297 140.8 92.4697 141.027 93.2964 141.48C94.1231 141.933 94.7697 142.553 95.2364 143.34C95.7031 144.127 95.9364 145.013 95.9364 146C95.9364 146.987 95.7031 147.873 95.2364 148.66C94.7697 149.447 94.1231 150.067 93.2964 150.52C92.4697 150.973 91.5297 151.2 90.4764 151.2ZM90.4764 148.78C91.2497 148.78 91.8831 148.533 92.3764 148.04C92.8831 147.533 93.1364 146.853 93.1364 146C93.1364 145.147 92.8831 144.473 92.3764 143.98C91.8831 143.473 91.2497 143.22 90.4764 143.22C89.7031 143.22 89.0697 143.473 88.5764 143.98C88.0831 144.473 87.8364 145.147 87.8364 146C87.8364 146.853 88.0831 147.533 88.5764 148.04C89.0697 148.533 89.7031 148.78 90.4764 148.78ZM102.18 151.2C101.393 151.2 100.633 151.007 99.9002 150.62C99.1668 150.22 98.5602 149.627 98.0802 148.84C97.6135 148.053 97.3802 147.107 97.3802 146C97.3802 144.88 97.6135 143.933 98.0802 143.16C98.5468 142.373 99.1602 141.787 99.9202 141.4C100.68 141 101.487 140.8 102.34 140.8C103.46 140.8 104.44 141.14 105.28 141.82V136.4H108.08V151H105.28V149.96C104.507 150.787 103.473 151.2 102.18 151.2ZM102.84 148.88C103.533 148.88 104.113 148.667 104.58 148.24C105.047 147.8 105.28 147.213 105.28 146.48V145.52C105.28 144.8 105.04 144.22 104.56 143.78C104.093 143.34 103.513 143.12 102.82 143.12C102.047 143.12 101.42 143.373 100.94 143.88C100.46 144.387 100.22 145.093 100.22 146C100.22 146.907 100.46 147.613 100.94 148.12C101.433 148.627 102.067 148.88 102.84 148.88ZM113.996 151.2C112.903 151.2 112.043 150.873 111.416 150.22C110.79 149.567 110.476 148.693 110.476 147.6V141H113.276V147.02C113.276 147.593 113.423 148.033 113.716 148.34C114.01 148.647 114.423 148.8 114.956 148.8C115.436 148.8 115.876 148.667 116.276 148.4C116.676 148.12 117.003 147.753 117.256 147.3V141H120.056V151H117.256V149.76C116.363 150.72 115.276 151.2 113.996 151.2ZM127.249 151.2C126.276 151.2 125.389 150.98 124.589 150.54C123.802 150.1 123.176 149.487 122.709 148.7C122.242 147.9 122.009 147 122.009 146C122.009 145 122.242 144.107 122.709 143.32C123.176 142.52 123.802 141.9 124.589 141.46C125.389 141.02 126.276 140.8 127.249 140.8C128.569 140.8 129.656 141.133 130.509 141.8C131.376 142.467 131.922 143.373 132.149 144.52L131.989 144.72L129.669 144.96C129.536 144.427 129.262 144.007 128.849 143.7C128.436 143.38 127.902 143.22 127.249 143.22C126.516 143.22 125.909 143.467 125.429 143.96C124.962 144.44 124.729 145.12 124.729 146C124.729 146.88 124.962 147.567 125.429 148.06C125.909 148.54 126.516 148.78 127.249 148.78C127.902 148.78 128.422 148.633 128.809 148.34C129.196 148.047 129.482 147.613 129.669 147.04L131.989 147.28L132.149 147.46C131.842 148.66 131.269 149.587 130.429 150.24C129.589 150.88 128.529 151.2 127.249 151.2ZM137.76 151.2C136.826 151.2 136.086 150.947 135.54 150.44C134.993 149.933 134.72 149.173 134.72 148.16V143.32H132.94V141H134.72V138.14H135.08L137.5 138.98V141H139.62V143.32H137.5V147.92C137.5 148.24 137.593 148.487 137.78 148.66C137.966 148.833 138.233 148.92 138.58 148.92C138.793 148.92 139.06 148.873 139.38 148.78L139.52 148.86V151C138.946 151.133 138.36 151.2 137.76 151.2ZM142.892 139.9C142.452 139.9 142.072 139.74 141.752 139.42C141.432 139.1 141.272 138.72 141.272 138.28C141.272 137.84 141.432 137.46 141.752 137.14C142.072 136.82 142.452 136.66 142.892 136.66C143.345 136.66 143.725 136.82 144.032 137.14C144.352 137.46 144.512 137.84 144.512 138.28C144.512 138.72 144.352 139.1 144.032 139.42C143.725 139.74 143.345 139.9 142.892 139.9ZM141.492 141H144.292V151H141.492V141ZM145.79 141H148.83L150.85 146.5L151.11 148.28H151.23L151.49 146.5L153.51 141H156.55L152.71 151H149.61L145.79 141ZM159.454 139.9C159.014 139.9 158.634 139.74 158.314 139.42C157.994 139.1 157.834 138.72 157.834 138.28C157.834 137.84 157.994 137.46 158.314 137.14C158.634 136.82 159.014 136.66 159.454 136.66C159.907 136.66 160.287 136.82 160.594 137.14C160.914 137.46 161.074 137.84 161.074 138.28C161.074 138.72 160.914 139.1 160.594 139.42C160.287 139.74 159.907 139.9 159.454 139.9ZM158.054 141H160.854V151H158.054V141ZM167.232 151.2C166.299 151.2 165.559 150.947 165.012 150.44C164.466 149.933 164.192 149.173 164.192 148.16V143.32H162.412V141H164.192V138.14H164.552L166.972 138.98V141H169.092V143.32H166.972V147.92C166.972 148.24 167.066 148.487 167.252 148.66C167.439 148.833 167.706 148.92 168.052 148.92C168.266 148.92 168.532 148.873 168.852 148.78L168.992 148.86V151C168.419 151.133 167.832 151.2 167.232 151.2ZM174.304 150.74L170.184 141H173.384L175.424 145.98L175.524 147.44H175.684L178.224 141H181.184L175.504 155H172.584L174.304 150.74Z" fill="black"/>
<path d="M166.558 193.2C165.558 193.2 164.651 193.013 163.838 192.64C163.038 192.267 162.391 191.747 161.898 191.08C161.404 190.413 161.118 189.647 161.038 188.78L161.198 188.56L163.978 188.14C164.058 188.953 164.344 189.58 164.838 190.02C165.344 190.46 165.971 190.68 166.718 190.68C167.384 190.68 167.924 190.507 168.338 190.16C168.751 189.813 168.958 189.327 168.958 188.7C168.958 188.193 168.818 187.793 168.538 187.5C168.271 187.193 167.924 186.96 167.498 186.8C167.071 186.64 166.484 186.473 165.738 186.3C164.418 185.98 163.391 185.527 162.658 184.94C161.938 184.353 161.578 183.533 161.578 182.48C161.578 181.733 161.778 181.08 162.178 180.52C162.591 179.96 163.158 179.533 163.878 179.24C164.598 178.947 165.411 178.8 166.318 178.8C167.784 178.8 168.944 179.153 169.798 179.86C170.651 180.553 171.164 181.48 171.338 182.64L171.178 182.86L168.598 183.14C168.518 182.473 168.278 181.953 167.878 181.58C167.491 181.207 166.958 181.02 166.278 181.02C165.744 181.02 165.311 181.14 164.978 181.38C164.644 181.607 164.478 181.913 164.478 182.3C164.478 182.633 164.598 182.913 164.838 183.14C165.091 183.353 165.424 183.533 165.838 183.68C166.264 183.813 166.851 183.967 167.598 184.14C168.944 184.46 170.004 184.947 170.778 185.6C171.564 186.253 171.958 187.22 171.958 188.5C171.958 189.46 171.718 190.3 171.238 191.02C170.771 191.727 170.124 192.267 169.298 192.64C168.484 193.013 167.571 193.2 166.558 193.2ZM178.657 193.2C177.67 193.2 176.784 192.987 175.997 192.56C175.224 192.12 174.617 191.507 174.177 190.72C173.737 189.933 173.517 189.027 173.517 188C173.517 186.987 173.75 186.087 174.217 185.3C174.697 184.513 175.33 183.9 176.117 183.46C176.904 183.02 177.75 182.8 178.657 182.8C179.644 182.8 180.517 183.007 181.277 183.42C182.037 183.833 182.624 184.427 183.037 185.2C183.464 185.973 183.677 186.887 183.677 187.94V188.68H176.157C176.224 189.373 176.484 189.927 176.937 190.34C177.404 190.74 177.997 190.94 178.717 190.94C179.864 190.94 180.624 190.427 180.997 189.4L183.337 189.64L183.477 189.88C183.104 190.987 182.504 191.82 181.677 192.38C180.864 192.927 179.857 193.2 178.657 193.2ZM181.037 186.88C180.97 186.28 180.717 185.8 180.277 185.44C179.837 185.08 179.29 184.9 178.637 184.9C178.05 184.9 177.53 185.08 177.077 185.44C176.637 185.8 176.357 186.28 176.237 186.88H181.037ZM185.56 178.4H188.36V193H185.56V178.4ZM191.814 185.32H190.134V183H191.814V181.36C191.814 180.307 192.14 179.52 192.794 179C193.46 178.467 194.28 178.2 195.254 178.2C195.76 178.2 196.234 178.267 196.674 178.4V180.56L196.534 180.66C196.24 180.54 195.94 180.48 195.634 180.48C195.314 180.48 195.06 180.567 194.874 180.74C194.687 180.913 194.594 181.173 194.594 181.52V183H196.654V185.32H194.594V193H191.814V185.32ZM198.071 185.66H205.451V187.9H198.071V185.66ZM207.652 179H212.632C214.152 179 215.472 179.28 216.592 179.84C217.712 180.387 218.572 181.187 219.172 182.24C219.785 183.293 220.092 184.547 220.092 186C220.092 187.453 219.785 188.707 219.172 189.76C218.572 190.813 217.712 191.62 216.592 192.18C215.472 192.727 214.152 193 212.632 193H207.652V179ZM212.532 190.4C213.985 190.4 215.099 190.027 215.872 189.28C216.645 188.533 217.032 187.44 217.032 186C217.032 184.56 216.645 183.467 215.872 182.72C215.099 181.973 213.985 181.6 212.532 181.6H210.712V190.4H212.532ZM223.56 181.9C223.12 181.9 222.74 181.74 222.42 181.42C222.1 181.1 221.94 180.72 221.94 180.28C221.94 179.84 222.1 179.46 222.42 179.14C222.74 178.82 223.12 178.66 223.56 178.66C224.013 178.66 224.393 178.82 224.7 179.14C225.02 179.46 225.18 179.84 225.18 180.28C225.18 180.72 225.02 181.1 224.7 181.42C224.393 181.74 224.013 181.9 223.56 181.9ZM222.16 183H224.96V193H222.16V183ZM231.038 193.2C229.864 193.2 228.904 192.947 228.158 192.44C227.411 191.92 226.911 191.193 226.658 190.26L226.738 190L228.878 189.36C229.118 190.48 229.838 191.04 231.038 191.04C231.451 191.04 231.791 190.953 232.058 190.78C232.324 190.607 232.458 190.367 232.458 190.06C232.458 189.74 232.304 189.493 231.998 189.32C231.704 189.133 231.124 188.927 230.258 188.7C229.204 188.447 228.411 188.08 227.878 187.6C227.344 187.107 227.078 186.46 227.078 185.66C227.078 185.127 227.224 184.647 227.518 184.22C227.824 183.78 228.251 183.433 228.798 183.18C229.344 182.927 229.971 182.8 230.678 182.8C231.731 182.8 232.591 183.033 233.258 183.5C233.938 183.953 234.378 184.6 234.578 185.44L234.458 185.66L232.338 186.18C232.244 185.713 232.044 185.36 231.738 185.12C231.431 184.867 231.058 184.74 230.618 184.74C230.284 184.74 230.004 184.813 229.778 184.96C229.551 185.093 229.438 185.28 229.438 185.52C229.438 185.813 229.624 186.053 229.998 186.24C230.371 186.427 231.051 186.653 232.038 186.92C233.064 187.2 233.818 187.567 234.298 188.02C234.791 188.473 235.038 189.1 235.038 189.9C235.038 190.513 234.871 191.073 234.538 191.58C234.218 192.087 233.751 192.487 233.138 192.78C232.538 193.06 231.838 193.2 231.038 193.2ZM241.687 193.2C240.713 193.2 239.827 192.98 239.027 192.54C238.24 192.1 237.613 191.487 237.147 190.7C236.68 189.9 236.447 189 236.447 188C236.447 187 236.68 186.107 237.147 185.32C237.613 184.52 238.24 183.9 239.027 183.46C239.827 183.02 240.713 182.8 241.687 182.8C243.007 182.8 244.093 183.133 244.947 183.8C245.813 184.467 246.36 185.373 246.587 186.52L246.427 186.72L244.107 186.96C243.973 186.427 243.7 186.007 243.287 185.7C242.873 185.38 242.34 185.22 241.687 185.22C240.953 185.22 240.347 185.467 239.867 185.96C239.4 186.44 239.167 187.12 239.167 188C239.167 188.88 239.4 189.567 239.867 190.06C240.347 190.54 240.953 190.78 241.687 190.78C242.34 190.78 242.86 190.633 243.247 190.34C243.633 190.047 243.92 189.613 244.107 189.04L246.427 189.28L246.587 189.46C246.28 190.66 245.707 191.587 244.867 192.24C244.027 192.88 242.967 193.2 241.687 193.2ZM253.469 193.2C252.429 193.2 251.495 192.973 250.669 192.52C249.842 192.067 249.195 191.447 248.729 190.66C248.262 189.873 248.029 188.987 248.029 188C248.029 187.013 248.262 186.127 248.729 185.34C249.195 184.553 249.842 183.933 250.669 183.48C251.495 183.027 252.429 182.8 253.469 182.8C254.522 182.8 255.462 183.027 256.289 183.48C257.115 183.933 257.762 184.553 258.229 185.34C258.695 186.127 258.929 187.013 258.929 188C258.929 188.987 258.695 189.873 258.229 190.66C257.762 191.447 257.115 192.067 256.289 192.52C255.462 192.973 254.522 193.2 253.469 193.2ZM253.469 190.78C254.242 190.78 254.875 190.533 255.369 190.04C255.875 189.533 256.129 188.853 256.129 188C256.129 187.147 255.875 186.473 255.369 185.98C254.875 185.473 254.242 185.22 253.469 185.22C252.695 185.22 252.062 185.473 251.569 185.98C251.075 186.473 250.829 187.147 250.829 188C250.829 188.853 251.075 189.533 251.569 190.04C252.062 190.533 252.695 190.78 253.469 190.78ZM259.524 183H262.564L264.584 188.5L264.844 190.28H264.964L265.224 188.5L267.244 183H270.284L266.444 193H263.344L259.524 183ZM276.02 193.2C275.033 193.2 274.147 192.987 273.36 192.56C272.587 192.12 271.98 191.507 271.54 190.72C271.1 189.933 270.88 189.027 270.88 188C270.88 186.987 271.113 186.087 271.58 185.3C272.06 184.513 272.693 183.9 273.48 183.46C274.267 183.02 275.113 182.8 276.02 182.8C277.007 182.8 277.88 183.007 278.64 183.42C279.4 183.833 279.987 184.427 280.4 185.2C280.827 185.973 281.04 186.887 281.04 187.94V188.68H273.52C273.587 189.373 273.847 189.927 274.3 190.34C274.767 190.74 275.36 190.94 276.08 190.94C277.227 190.94 277.987 190.427 278.36 189.4L280.7 189.64L280.84 189.88C280.467 190.987 279.867 191.82 279.04 192.38C278.227 192.927 277.22 193.2 276.02 193.2ZM278.4 186.88C278.333 186.28 278.08 185.8 277.64 185.44C277.2 185.08 276.653 184.9 276 184.9C275.413 184.9 274.893 185.08 274.44 185.44C274 185.8 273.72 186.28 273.6 186.88H278.4ZM282.924 183H285.724V184.2C286.084 183.773 286.497 183.433 286.964 183.18C287.43 182.927 287.944 182.8 288.504 182.8C288.904 182.8 289.224 182.853 289.464 182.96L289.104 185.16L288.964 185.3C288.697 185.233 288.47 185.2 288.284 185.2C287.737 185.2 287.244 185.353 286.804 185.66C286.364 185.967 286.004 186.413 285.724 187V193H282.924V183ZM294.503 192.74L290.383 183H293.583L295.623 187.98L295.723 189.44H295.883L298.423 183H301.383L295.703 197H292.783L294.503 192.74Z" fill="black"/>
<path d="M228.556 13.8675L228.556 13.8676L228.561 13.8638C230.361 12.1823 232.696 11.1247 235.173 10.8661L264.644 7.78775C264.644 7.78774 264.644 7.78773 264.644 7.78772C264.709 7.78114 264.849 7.79911 265.079 7.9152C265.302 8.02778 265.57 8.2119 265.874 8.47215C266.482 8.99195 267.188 9.77435 267.916 10.7609C269.372 12.7321 270.876 15.4621 271.837 18.3902C272.84 21.4443 273.286 24.7129 273.299 27.3081C273.305 28.6069 273.203 29.7183 273.017 30.5404C272.923 30.9521 272.812 31.2743 272.694 31.5061C272.572 31.7454 272.465 31.8405 272.408 31.8712C272.408 31.8712 272.408 31.8712 272.408 31.8712L245.441 46.3193L245.441 46.3196C243.455 47.3866 241.182 47.8222 238.97 47.5716C238.969 47.5715 238.968 47.5714 238.967 47.5713L200.653 42.7559L233.749 32.0826C235.014 34.0174 237.399 34.9197 239.647 34.1945C242.361 33.3194 243.848 30.4154 242.973 27.702C242.098 24.9886 239.194 23.5009 236.481 24.3759C234.157 25.1254 232.724 27.3799 232.872 29.554L199.659 40.2651L228.556 13.8675Z" fill="black" stroke="black"/>
<defs>
<filter id="filter0_d_60701_1180" x="89" y="238" width="233" height="86" filterUnits="userSpaceOnUse" color-interpolation-filters="sRGB">
<feFlood flood-opacity="0" result="BackgroundImageFix"/>
<feColorMatrix in="SourceAlpha" type="matrix" values="0 0 0 0 0 0 0 0 0 0 0 0 0 0 0 0 0 0 127 0" result="hardAlpha"/>
<feOffset dy="4"/>
<feGaussianBlur stdDeviation="7.5"/>
<feComposite in2="hardAlpha" operator="out"/>
<feColorMatrix type="matrix" values="0 0 0 0 0 0 0 0 0 0 0 0 0 0 0 0 0 0 0.06 0"/>
<feBlend mode="normal" in2="BackgroundImageFix" result="effect1_dropShadow_60701_1180"/>
<feBlend mode="normal" in="SourceGraphic" in2="effect1_dropShadow_60701_1180" result="shape"/>
</filter>
<filter id="filter1_d_60701_1180" x="0" y="196" width="209" height="86" filterUnits="userSpaceOnUse" color-interpolation-filters="sRGB">
<feFlood flood-opacity="0" result="BackgroundImageFix"/>
<feColorMatrix in="SourceAlpha" type="matrix" values="0 0 0 0 0 0 0 0 0 0 0 0 0 0 0 0 0 0 127 0" result="hardAlpha"/>
<feOffset dy="4"/>
<feGaussianBlur stdDeviation="7.5"/>
<feComposite in2="hardAlpha" operator="out"/>
<feColorMatrix type="matrix" values="0 0 0 0 0 0 0 0 0 0 0 0 0 0 0 0 0 0 0.06 0"/>
<feBlend mode="normal" in2="BackgroundImageFix" result="effect1_dropShadow_60701_1180"/>
<feBlend mode="normal" in="SourceGraphic" in2="effect1_dropShadow_60701_1180" result="shape"/>
</filter>
<filter id="filter2_d_60701_1180" x="14" y="106" width="217" height="86" filterUnits="userSpaceOnUse" color-interpolation-filters="sRGB">
<feFlood flood-opacity="0" result="BackgroundImageFix"/>
<feColorMatrix in="SourceAlpha" type="matrix" values="0 0 0 0 0 0 0 0 0 0 0 0 0 0 0 0 0 0 127 0" result="hardAlpha"/>
<feOffset dy="4"/>
<feGaussianBlur stdDeviation="7.5"/>
<feComposite in2="hardAlpha" operator="out"/>
<feColorMatrix type="matrix" values="0 0 0 0 0 0 0 0 0 0 0 0 0 0 0 0 0 0 0.06 0"/>
<feBlend mode="normal" in2="BackgroundImageFix" result="effect1_dropShadow_60701_1180"/>
<feBlend mode="normal" in="SourceGraphic" in2="effect1_dropShadow_60701_1180" result="shape"/>
</filter>
<filter id="filter3_d_60701_1180" x="121" y="148" width="217" height="86" filterUnits="userSpaceOnUse" color-interpolation-filters="sRGB">
<feFlood flood-opacity="0" result="BackgroundImageFix"/>
<feColorMatrix in="SourceAlpha" type="matrix" values="0 0 0 0 0 0 0 0 0 0 0 0 0 0 0 0 0 0 127 0" result="hardAlpha"/>
<feOffset dy="4"/>
<feGaussianBlur stdDeviation="7.5"/>
<feComposite in2="hardAlpha" operator="out"/>
<feColorMatrix type="matrix" values="0 0 0 0 0 0 0 0 0 0 0 0 0 0 0 0 0 0 0.06 0"/>
<feBlend mode="normal" in2="BackgroundImageFix" result="effect1_dropShadow_60701_1180"/>
<feBlend mode="normal" in="SourceGraphic" in2="effect1_dropShadow_60701_1180" result="shape"/>
</filter>
<filter id="filter4_d_60701_1180" x="127" y="64" width="208" height="86" filterUnits="userSpaceOnUse" color-interpolation-filters="sRGB">
<feFlood flood-opacity="0" result="BackgroundImageFix"/>
<feColorMatrix in="SourceAlpha" type="matrix" values="0 0 0 0 0 0 0 0 0 0 0 0 0 0 0 0 0 0 127 0" result="hardAlpha"/>
<feOffset dy="4"/>
<feGaussianBlur stdDeviation="7.5"/>
<feComposite in2="hardAlpha" operator="out"/>
<feColorMatrix type="matrix" values="0 0 0 0 0 0 0 0 0 0 0 0 0 0 0 0 0 0 0.06 0"/>
<feBlend mode="normal" in2="BackgroundImageFix" result="effect1_dropShadow_60701_1180"/>
<feBlend mode="normal" in="SourceGraphic" in2="effect1_dropShadow_60701_1180" result="shape"/>
</filter>
<filter id="filter5_d_60701_1180" x="46" y="25" width="151" height="86" filterUnits="userSpaceOnUse" color-interpolation-filters="sRGB">
<feFlood flood-opacity="0" result="BackgroundImageFix"/>
<feColorMatrix in="SourceAlpha" type="matrix" values="0 0 0 0 0 0 0 0 0 0 0 0 0 0 0 0 0 0 127 0" result="hardAlpha"/>
<feOffset dy="4"/>
<feGaussianBlur stdDeviation="7.5"/>
<feComposite in2="hardAlpha" operator="out"/>
<feColorMatrix type="matrix" values="0 0 0 0 0 0 0 0 0 0 0 0 0 0 0 0 0 0 0.06 0"/>
<feBlend mode="normal" in2="BackgroundImageFix" result="effect1_dropShadow_60701_1180"/>
<feBlend mode="normal" in="SourceGraphic" in2="effect1_dropShadow_60701_1180" result="shape"/>
</filter>
<linearGradient id="paint0_linear_60701_1180" x1="56.5008" y1="226.5" x2="206.501" y2="32.5" gradientUnits="userSpaceOnUse">
<stop stop-color="#EBEBEB"/>
<stop offset="1"/>
</linearGradient>
</defs>
</svg>
