<svg width="353" height="353" viewBox="0 0 353 353" fill="none" xmlns="http://www.w3.org/2000/svg">
<path opacity="0.7" d="M235.5 176C235.5 208.301 208.869 234.5 176 234.5C143.131 234.5 116.5 208.301 116.5 176C116.5 143.699 143.131 117.5 176 117.5C208.869 117.5 235.5 143.699 235.5 176Z" stroke="black"/>
<path opacity="0.5" d="M243.5 176C243.5 212.723 213.507 242.5 176.5 242.5C139.493 242.5 109.5 212.723 109.5 176C109.5 139.277 139.493 109.5 176.5 109.5C213.507 109.5 243.5 139.277 243.5 176Z" stroke="black"/>
<path opacity="0.4" d="M255.5 176.5C255.5 219.572 220.136 254.5 176.5 254.5C132.864 254.5 97.5 219.572 97.5 176.5C97.5 133.428 132.864 98.5 176.5 98.5C220.136 98.5 255.5 133.428 255.5 176.5Z" stroke="black"/>
<path opacity="0.15" d="M308.5 176.5C308.5 249.4 249.18 308.5 176 308.5C102.82 308.5 43.5 249.4 43.5 176.5C43.5 103.6 102.82 44.5 176 44.5C249.18 44.5 308.5 103.6 308.5 176.5Z" stroke="black"/>
<circle opacity="0.05" cx="176.5" cy="176.5" r="176" stroke="black"/>
<path opacity="0.3" d="M274.5 176.5C274.5 230.064 230.407 273.5 176 273.5C121.593 273.5 77.5 230.064 77.5 176.5C77.5 122.936 121.593 79.5 176 79.5C230.407 79.5 274.5 122.936 274.5 176.5Z" stroke="black"/>
<g filter="url(#filter0_d_58592_610)">
<rect x="111" y="257" width="203" height="56" rx="28" fill="white"/>
<rect x="111.5" y="257.5" width="202" height="55" rx="27.5" stroke="#D9D9DA"/>
</g>
<g filter="url(#filter1_d_58592_610)">
<rect x="22" y="215" width="179" height="56" rx="28" fill="white"/>
<rect x="22.5" y="215.5" width="178" height="55" rx="27.5" stroke="#D9D9DA"/>
</g>
<g filter="url(#filter2_d_58592_610)">
<rect x="36" y="125" width="187" height="56" rx="28" fill="white"/>
<rect x="36.5" y="125.5" width="186" height="55" rx="27.5" stroke="#D9D9DA"/>
</g>
<g filter="url(#filter3_d_58592_610)">
<rect x="182" y="167" width="108" height="56" rx="28" fill="white"/>
<rect x="182.5" y="167.5" width="107" height="55" rx="27.5" stroke="#D9D9DA"/>
</g>
<g filter="url(#filter4_d_58592_610)">
<rect x="182" y="83" width="114" height="56" rx="28" fill="white"/>
<rect x="182.5" y="83.5" width="113" height="55" rx="27.5" stroke="#D9D9DA"/>
</g>
<g filter="url(#filter5_d_58592_610)">
<rect x="68" y="44" width="121" height="56" rx="28" fill="white"/>
<rect x="68.5" y="44.5" width="120" height="55" rx="27.5" stroke="#D9D9DA"/>
</g>
<path d="M96.3727 64H105.653V66.6H99.4327V69.7H105.113V72.3H99.4327V75.4H105.873V78H96.3727V64ZM108.168 68H110.968V69.3C111.914 68.3 113.021 67.8 114.288 67.8C115.368 67.8 116.214 68.1133 116.828 68.74C117.441 69.3667 117.748 70.1733 117.748 71.16V78H114.948V71.98C114.948 71.3933 114.808 70.9533 114.528 70.66C114.261 70.3533 113.861 70.2 113.328 70.2C112.861 70.2 112.414 70.3467 111.988 70.64C111.561 70.92 111.221 71.2733 110.968 71.7V78H108.168V68ZM124.76 78.2C123.774 78.2 122.887 77.9867 122.1 77.56C121.327 77.12 120.72 76.5067 120.28 75.72C119.84 74.9333 119.62 74.0267 119.62 73C119.62 71.9867 119.854 71.0867 120.32 70.3C120.8 69.5133 121.434 68.9 122.22 68.46C123.007 68.02 123.854 67.8 124.76 67.8C125.747 67.8 126.62 68.0067 127.38 68.42C128.14 68.8333 128.727 69.4267 129.14 70.2C129.567 70.9733 129.78 71.8867 129.78 72.94V73.68H122.26C122.327 74.3733 122.587 74.9267 123.04 75.34C123.507 75.74 124.1 75.94 124.82 75.94C125.967 75.94 126.727 75.4267 127.1 74.4L129.44 74.64L129.58 74.88C129.207 75.9867 128.607 76.82 127.78 77.38C126.967 77.9267 125.96 78.2 124.76 78.2ZM127.14 71.88C127.074 71.28 126.82 70.8 126.38 70.44C125.94 70.08 125.394 69.9 124.74 69.9C124.154 69.9 123.634 70.08 123.18 70.44C122.74 70.8 122.46 71.28 122.34 71.88H127.14ZM131.664 68H134.464V69.2C134.824 68.7733 135.237 68.4333 135.704 68.18C136.17 67.9267 136.684 67.8 137.244 67.8C137.644 67.8 137.964 67.8533 138.204 67.96L137.844 70.16L137.704 70.3C137.437 70.2333 137.21 70.2 137.024 70.2C136.477 70.2 135.984 70.3533 135.544 70.66C135.104 70.9667 134.744 71.4133 134.464 72V78H131.664V68ZM144.138 82.2C142.778 82.2 141.698 81.9067 140.898 81.32C140.111 80.7333 139.618 80.02 139.418 79.18L139.638 78.96L142.178 78.68C142.431 79.5467 143.111 79.98 144.218 79.98C144.951 79.98 145.518 79.78 145.918 79.38C146.318 78.98 146.518 78.42 146.518 77.7V76.98C146.104 77.34 145.691 77.6 145.278 77.76C144.864 77.92 144.338 78 143.698 78C142.831 78 142.031 77.7933 141.298 77.38C140.564 76.9667 139.978 76.3733 139.538 75.6C139.111 74.8267 138.898 73.9267 138.898 72.9C138.898 71.8733 139.118 70.9733 139.558 70.2C140.011 69.4267 140.604 68.8333 141.338 68.42C142.084 68.0067 142.878 67.8 143.718 67.8C144.838 67.8 145.771 68.16 146.518 68.88V68H149.178V77.6C149.178 79.0533 148.738 80.18 147.858 80.98C146.991 81.7933 145.751 82.2 144.138 82.2ZM144.138 75.76C144.858 75.76 145.431 75.5467 145.858 75.12C146.298 74.6933 146.518 74.1333 146.518 73.44V72.38C146.518 71.6733 146.291 71.1067 145.838 70.68C145.384 70.2533 144.818 70.04 144.138 70.04C143.391 70.04 142.771 70.2733 142.278 70.74C141.798 71.2067 141.558 71.9267 141.558 72.9C141.558 73.8733 141.798 74.5933 142.278 75.06C142.771 75.5267 143.391 75.76 144.138 75.76ZM154.709 77.74L150.589 68H153.789L155.829 72.98L155.929 74.44H156.089L158.629 68H161.589L155.909 82H152.989L154.709 77.74Z" fill="black"/>
<path d="M211.373 103H220.893V105.6H214.433V108.84H220.373V111.46H214.433V117H211.373V103ZM227.58 117.2C226.54 117.2 225.607 116.973 224.78 116.52C223.953 116.067 223.307 115.447 222.84 114.66C222.373 113.873 222.14 112.987 222.14 112C222.14 111.013 222.373 110.127 222.84 109.34C223.307 108.553 223.953 107.933 224.78 107.48C225.607 107.027 226.54 106.8 227.58 106.8C228.633 106.8 229.573 107.027 230.4 107.48C231.227 107.933 231.873 108.553 232.34 109.34C232.807 110.127 233.04 111.013 233.04 112C233.04 112.987 232.807 113.873 232.34 114.66C231.873 115.447 231.227 116.067 230.4 116.52C229.573 116.973 228.633 117.2 227.58 117.2ZM227.58 114.78C228.353 114.78 228.987 114.533 229.48 114.04C229.987 113.533 230.24 112.853 230.24 112C230.24 111.147 229.987 110.473 229.48 109.98C228.987 109.473 228.353 109.22 227.58 109.22C226.807 109.22 226.173 109.473 225.68 109.98C225.187 110.473 224.94 111.147 224.94 112C224.94 112.853 225.187 113.533 225.68 114.04C226.173 114.533 226.807 114.78 227.58 114.78ZM239.724 117.2C238.75 117.2 237.864 116.98 237.064 116.54C236.277 116.1 235.65 115.487 235.184 114.7C234.717 113.9 234.484 113 234.484 112C234.484 111 234.717 110.107 235.184 109.32C235.65 108.52 236.277 107.9 237.064 107.46C237.864 107.02 238.75 106.8 239.724 106.8C241.044 106.8 242.13 107.133 242.984 107.8C243.85 108.467 244.397 109.373 244.624 110.52L244.464 110.72L242.144 110.96C242.01 110.427 241.737 110.007 241.324 109.7C240.91 109.38 240.377 109.22 239.724 109.22C238.99 109.22 238.384 109.467 237.904 109.96C237.437 110.44 237.204 111.12 237.204 112C237.204 112.88 237.437 113.567 237.904 114.06C238.384 114.54 238.99 114.78 239.724 114.78C240.377 114.78 240.897 114.633 241.284 114.34C241.67 114.047 241.957 113.613 242.144 113.04L244.464 113.28L244.624 113.46C244.317 114.66 243.744 115.587 242.904 116.24C242.064 116.88 241.004 117.2 239.724 117.2ZM250.026 117.2C248.932 117.2 248.072 116.873 247.446 116.22C246.819 115.567 246.506 114.693 246.506 113.6V107H249.306V113.02C249.306 113.593 249.452 114.033 249.746 114.34C250.039 114.647 250.452 114.8 250.986 114.8C251.466 114.8 251.906 114.667 252.306 114.4C252.706 114.12 253.032 113.753 253.286 113.3V107H256.086V117H253.286V115.76C252.392 116.72 251.306 117.2 250.026 117.2ZM262.258 117.2C261.085 117.2 260.125 116.947 259.378 116.44C258.632 115.92 258.132 115.193 257.878 114.26L257.958 114L260.098 113.36C260.338 114.48 261.058 115.04 262.258 115.04C262.672 115.04 263.012 114.953 263.278 114.78C263.545 114.607 263.678 114.367 263.678 114.06C263.678 113.74 263.525 113.493 263.218 113.32C262.925 113.133 262.345 112.927 261.478 112.7C260.425 112.447 259.632 112.08 259.098 111.6C258.565 111.107 258.298 110.46 258.298 109.66C258.298 109.127 258.445 108.647 258.738 108.22C259.045 107.78 259.472 107.433 260.018 107.18C260.565 106.927 261.192 106.8 261.898 106.8C262.952 106.8 263.812 107.033 264.478 107.5C265.158 107.953 265.598 108.6 265.798 109.44L265.678 109.66L263.558 110.18C263.465 109.713 263.265 109.36 262.958 109.12C262.652 108.867 262.278 108.74 261.838 108.74C261.505 108.74 261.225 108.813 260.998 108.96C260.772 109.093 260.658 109.28 260.658 109.52C260.658 109.813 260.845 110.053 261.218 110.24C261.592 110.427 262.272 110.653 263.258 110.92C264.285 111.2 265.038 111.567 265.518 112.02C266.012 112.473 266.258 113.1 266.258 113.9C266.258 114.513 266.092 115.073 265.758 115.58C265.438 116.087 264.972 116.487 264.358 116.78C263.758 117.06 263.058 117.2 262.258 117.2Z" fill="black"/>
<path d="M72.3055 249.2C70.9989 249.2 69.7922 248.9 68.6855 248.3C67.5922 247.7 66.7189 246.86 66.0655 245.78C65.4255 244.687 65.1055 243.427 65.1055 242C65.1055 240.573 65.4255 239.32 66.0655 238.24C66.7189 237.147 67.5922 236.3 68.6855 235.7C69.7922 235.1 70.9989 234.8 72.3055 234.8C73.4522 234.8 74.4722 234.993 75.3655 235.38C76.2722 235.767 77.0122 236.307 77.5855 237C78.1589 237.693 78.5455 238.493 78.7455 239.4L78.5655 239.68L75.8255 240.04C75.5989 239.24 75.1722 238.62 74.5455 238.18C73.9189 237.74 73.1455 237.52 72.2255 237.52C71.4122 237.52 70.6989 237.713 70.0855 238.1C69.4722 238.473 68.9989 239 68.6655 239.68C68.3455 240.36 68.1855 241.133 68.1855 242C68.1855 242.867 68.3522 243.64 68.6855 244.32C69.0189 245 69.4922 245.533 70.1055 245.92C70.7322 246.293 71.4655 246.48 72.3055 246.48C73.1855 246.48 73.9322 246.26 74.5455 245.82C75.1589 245.38 75.5855 244.76 75.8255 243.96L78.5655 244.32L78.7255 244.6C78.2722 246.08 77.4855 247.22 76.3655 248.02C75.2455 248.807 73.8922 249.2 72.3055 249.2ZM80.9138 239H83.7138V240.2C84.0738 239.773 84.4872 239.433 84.9538 239.18C85.4205 238.927 85.9338 238.8 86.4938 238.8C86.8938 238.8 87.2138 238.853 87.4538 238.96L87.0938 241.16L86.9538 241.3C86.6872 241.233 86.4605 241.2 86.2738 241.2C85.7272 241.2 85.2338 241.353 84.7938 241.66C84.3538 241.967 83.9938 242.413 83.7138 243V249H80.9138V239ZM93.3854 249.2C92.3987 249.2 91.5121 248.987 90.7254 248.56C89.9521 248.12 89.3454 247.507 88.9054 246.72C88.4654 245.933 88.2454 245.027 88.2454 244C88.2454 242.987 88.4787 242.087 88.9454 241.3C89.4254 240.513 90.0587 239.9 90.8454 239.46C91.6321 239.02 92.4787 238.8 93.3854 238.8C94.3721 238.8 95.2454 239.007 96.0054 239.42C96.7654 239.833 97.3521 240.427 97.7654 241.2C98.1921 241.973 98.4054 242.887 98.4054 243.94V244.68H90.8854C90.9521 245.373 91.2121 245.927 91.6654 246.34C92.1321 246.74 92.7254 246.94 93.4454 246.94C94.5921 246.94 95.3521 246.427 95.7254 245.4L98.0654 245.64L98.2054 245.88C97.8321 246.987 97.2321 247.82 96.4054 248.38C95.5921 248.927 94.5854 249.2 93.3854 249.2ZM95.7654 242.88C95.6987 242.28 95.4454 241.8 95.0054 241.44C94.5654 241.08 94.0187 240.9 93.3654 240.9C92.7787 240.9 92.2587 241.08 91.8054 241.44C91.3654 241.8 91.0854 242.28 90.9654 242.88H95.7654ZM102.989 249.2C102.415 249.2 101.882 249.08 101.389 248.84C100.909 248.587 100.522 248.233 100.229 247.78C99.9488 247.313 99.8088 246.773 99.8088 246.16C99.8088 245.253 100.122 244.527 100.749 243.98C101.375 243.42 102.235 243.087 103.329 242.98L106.029 242.7V242.26C106.029 241.807 105.882 241.453 105.589 241.2C105.309 240.947 104.909 240.82 104.389 240.82C103.922 240.82 103.549 240.947 103.269 241.2C102.989 241.44 102.815 241.773 102.749 242.2L100.389 242L100.289 241.88C100.489 240.88 100.962 240.12 101.709 239.6C102.455 239.067 103.362 238.8 104.429 238.8C105.695 238.8 106.722 239.12 107.509 239.76C108.295 240.387 108.689 241.273 108.689 242.42V246C108.689 246.307 108.749 246.54 108.869 246.7C109.002 246.86 109.182 246.94 109.409 246.94C109.555 246.94 109.682 246.92 109.789 246.88L109.889 247V248.92C109.489 249.053 109.029 249.12 108.509 249.12C107.429 249.12 106.682 248.667 106.269 247.76H106.129C105.662 248.24 105.182 248.6 104.689 248.84C104.195 249.08 103.629 249.2 102.989 249.2ZM103.629 247.08C104.109 247.08 104.529 246.96 104.889 246.72C105.262 246.48 105.642 246.113 106.029 245.62V244.46L103.829 244.74C103.362 244.793 103.002 244.933 102.749 245.16C102.509 245.387 102.389 245.667 102.389 246C102.389 246.333 102.502 246.6 102.729 246.8C102.969 246.987 103.269 247.08 103.629 247.08ZM115.031 249.2C114.098 249.2 113.358 248.947 112.811 248.44C112.264 247.933 111.991 247.173 111.991 246.16V241.32H110.211V239H111.991V236.14H112.351L114.771 236.98V239H116.891V241.32H114.771V245.92C114.771 246.24 114.864 246.487 115.051 246.66C115.238 246.833 115.504 246.92 115.851 246.92C116.064 246.92 116.331 246.873 116.651 246.78L116.791 246.86V249C116.218 249.133 115.631 249.2 115.031 249.2ZM120.163 237.9C119.723 237.9 119.343 237.74 119.023 237.42C118.703 237.1 118.543 236.72 118.543 236.28C118.543 235.84 118.703 235.46 119.023 235.14C119.343 234.82 119.723 234.66 120.163 234.66C120.616 234.66 120.996 234.82 121.303 235.14C121.623 235.46 121.783 235.84 121.783 236.28C121.783 236.72 121.623 237.1 121.303 237.42C120.996 237.74 120.616 237.9 120.163 237.9ZM118.763 239H121.563V249H118.763V239ZM123.061 239H126.101L128.121 244.5L128.381 246.28H128.501L128.761 244.5L130.781 239H133.821L129.981 249H126.881L123.061 239ZM136.726 237.9C136.286 237.9 135.906 237.74 135.586 237.42C135.266 237.1 135.106 236.72 135.106 236.28C135.106 235.84 135.266 235.46 135.586 235.14C135.906 234.82 136.286 234.66 136.726 234.66C137.179 234.66 137.559 234.82 137.866 235.14C138.186 235.46 138.346 235.84 138.346 236.28C138.346 236.72 138.186 237.1 137.866 237.42C137.559 237.74 137.179 237.9 136.726 237.9ZM135.326 239H138.126V249H135.326V239ZM144.504 249.2C143.57 249.2 142.83 248.947 142.284 248.44C141.737 247.933 141.464 247.173 141.464 246.16V241.32H139.684V239H141.464V236.14H141.824L144.244 236.98V239H146.364V241.32H144.244V245.92C144.244 246.24 144.337 246.487 144.524 246.66C144.71 246.833 144.977 246.92 145.324 246.92C145.537 246.92 145.804 246.873 146.124 246.78L146.264 246.86V249C145.69 249.133 145.104 249.2 144.504 249.2ZM151.576 248.74L147.456 239H150.656L152.696 243.98L152.796 245.44H152.956L155.496 239H158.456L152.776 253H149.856L151.576 248.74Z" fill="black"/>
<path d="M156.564 277H159.624V288.4H166.424V291H156.564V277ZM171.623 291.2C170.53 291.2 169.67 290.873 169.043 290.22C168.417 289.567 168.103 288.693 168.103 287.6V281H170.903V287.02C170.903 287.593 171.05 288.033 171.343 288.34C171.637 288.647 172.05 288.8 172.583 288.8C173.063 288.8 173.503 288.667 173.903 288.4C174.303 288.12 174.63 287.753 174.883 287.3V281H177.683V291H174.883V289.76C173.99 290.72 172.903 291.2 171.623 291.2ZM180.156 281H182.956V282.3C183.903 281.3 185.009 280.8 186.276 280.8C187.356 280.8 188.203 281.113 188.816 281.74C189.429 282.367 189.736 283.173 189.736 284.16V291H186.936V284.98C186.936 284.393 186.796 283.953 186.516 283.66C186.249 283.353 185.849 283.2 185.316 283.2C184.849 283.2 184.403 283.347 183.976 283.64C183.549 283.92 183.209 284.273 182.956 284.7V291H180.156V281ZM196.849 295.2C195.489 295.2 194.409 294.907 193.609 294.32C192.822 293.733 192.329 293.02 192.129 292.18L192.349 291.96L194.889 291.68C195.142 292.547 195.822 292.98 196.929 292.98C197.662 292.98 198.229 292.78 198.629 292.38C199.029 291.98 199.229 291.42 199.229 290.7V289.98C198.815 290.34 198.402 290.6 197.989 290.76C197.575 290.92 197.049 291 196.409 291C195.542 291 194.742 290.793 194.009 290.38C193.275 289.967 192.689 289.373 192.249 288.6C191.822 287.827 191.609 286.927 191.609 285.9C191.609 284.873 191.829 283.973 192.269 283.2C192.722 282.427 193.315 281.833 194.049 281.42C194.795 281.007 195.589 280.8 196.429 280.8C197.549 280.8 198.482 281.16 199.229 281.88V281H201.889V290.6C201.889 292.053 201.449 293.18 200.569 293.98C199.702 294.793 198.462 295.2 196.849 295.2ZM196.849 288.76C197.569 288.76 198.142 288.547 198.569 288.12C199.009 287.693 199.229 287.133 199.229 286.44V285.38C199.229 284.673 199.002 284.107 198.549 283.68C198.095 283.253 197.529 283.04 196.849 283.04C196.102 283.04 195.482 283.273 194.989 283.74C194.509 284.207 194.269 284.927 194.269 285.9C194.269 286.873 194.509 287.593 194.989 288.06C195.482 288.527 196.102 288.76 196.849 288.76ZM208.654 277H211.714V282.7H217.054V277H220.114V291H217.054V285.3H211.714V291H208.654V277ZM227.296 291.2C226.309 291.2 225.422 290.987 224.636 290.56C223.862 290.12 223.256 289.507 222.816 288.72C222.376 287.933 222.156 287.027 222.156 286C222.156 284.987 222.389 284.087 222.856 283.3C223.336 282.513 223.969 281.9 224.756 281.46C225.542 281.02 226.389 280.8 227.296 280.8C228.282 280.8 229.156 281.007 229.916 281.42C230.676 281.833 231.262 282.427 231.676 283.2C232.102 283.973 232.316 284.887 232.316 285.94V286.68H224.796C224.862 287.373 225.122 287.927 225.576 288.34C226.042 288.74 226.636 288.94 227.356 288.94C228.502 288.94 229.262 288.427 229.636 287.4L231.976 287.64L232.116 287.88C231.742 288.987 231.142 289.82 230.316 290.38C229.502 290.927 228.496 291.2 227.296 291.2ZM229.676 284.88C229.609 284.28 229.356 283.8 228.916 283.44C228.476 283.08 227.929 282.9 227.276 282.9C226.689 282.9 226.169 283.08 225.716 283.44C225.276 283.8 224.996 284.28 224.876 284.88H229.676ZM236.899 291.2C236.326 291.2 235.792 291.08 235.299 290.84C234.819 290.587 234.432 290.233 234.139 289.78C233.859 289.313 233.719 288.773 233.719 288.16C233.719 287.253 234.032 286.527 234.659 285.98C235.286 285.42 236.146 285.087 237.239 284.98L239.939 284.7V284.26C239.939 283.807 239.792 283.453 239.499 283.2C239.219 282.947 238.819 282.82 238.299 282.82C237.832 282.82 237.459 282.947 237.179 283.2C236.899 283.44 236.726 283.773 236.659 284.2L234.299 284L234.199 283.88C234.399 282.88 234.872 282.12 235.619 281.6C236.366 281.067 237.272 280.8 238.339 280.8C239.606 280.8 240.632 281.12 241.419 281.76C242.206 282.387 242.599 283.273 242.599 284.42V288C242.599 288.307 242.659 288.54 242.779 288.7C242.912 288.86 243.092 288.94 243.319 288.94C243.466 288.94 243.592 288.92 243.699 288.88L243.799 289V290.92C243.399 291.053 242.939 291.12 242.419 291.12C241.339 291.12 240.592 290.667 240.179 289.76H240.039C239.572 290.24 239.092 290.6 238.599 290.84C238.106 291.08 237.539 291.2 236.899 291.2ZM237.539 289.08C238.019 289.08 238.439 288.96 238.799 288.72C239.172 288.48 239.552 288.113 239.939 287.62V286.46L237.739 286.74C237.272 286.793 236.912 286.933 236.659 287.16C236.419 287.387 236.299 287.667 236.299 288C236.299 288.333 236.412 288.6 236.639 288.8C236.879 288.987 237.179 289.08 237.539 289.08ZM245.605 276.4H248.405V291H245.605V276.4ZM254.879 291.2C253.945 291.2 253.205 290.947 252.659 290.44C252.112 289.933 251.839 289.173 251.839 288.16V283.32H250.059V281H251.839V278.14H252.199L254.619 278.98V281H256.739V283.32H254.619V287.92C254.619 288.24 254.712 288.487 254.899 288.66C255.085 288.833 255.352 288.92 255.699 288.92C255.912 288.92 256.179 288.873 256.499 288.78L256.639 288.86V291C256.065 291.133 255.479 291.2 254.879 291.2ZM258.711 276.4H261.511V282.24C261.911 281.813 262.417 281.467 263.031 281.2C263.644 280.933 264.291 280.8 264.971 280.8C266.051 280.8 266.924 281.113 267.591 281.74C268.257 282.367 268.591 283.213 268.591 284.28V291H265.791V284.98C265.791 284.393 265.624 283.953 265.291 283.66C264.971 283.353 264.551 283.2 264.031 283.2C263.537 283.2 263.071 283.327 262.631 283.58C262.191 283.82 261.817 284.167 261.511 284.62V291H258.711V276.4Z" fill="black"/>
<path d="M81.445 145H87.045C88.1383 145 89.0983 145.193 89.925 145.58C90.765 145.953 91.4117 146.5 91.865 147.22C92.3317 147.94 92.565 148.8 92.565 149.8C92.565 150.787 92.3317 151.64 91.865 152.36C91.4117 153.08 90.765 153.633 89.925 154.02C89.0983 154.393 88.1383 154.58 87.045 154.58H84.505V159H81.445V145ZM86.865 151.98C88.625 151.98 89.505 151.253 89.505 149.8C89.505 149.04 89.2783 148.487 88.825 148.14C88.385 147.78 87.7317 147.6 86.865 147.6H84.505V151.98H86.865ZM96.6627 159.2C96.0893 159.2 95.556 159.08 95.0627 158.84C94.5827 158.587 94.196 158.233 93.9027 157.78C93.6227 157.313 93.4827 156.773 93.4827 156.16C93.4827 155.253 93.796 154.527 94.4227 153.98C95.0493 153.42 95.9093 153.087 97.0027 152.98L99.7027 152.7V152.26C99.7027 151.807 99.556 151.453 99.2627 151.2C98.9827 150.947 98.5827 150.82 98.0627 150.82C97.596 150.82 97.2227 150.947 96.9427 151.2C96.6627 151.44 96.4893 151.773 96.4227 152.2L94.0627 152L93.9627 151.88C94.1627 150.88 94.636 150.12 95.3827 149.6C96.1293 149.067 97.036 148.8 98.1027 148.8C99.3693 148.8 100.396 149.12 101.183 149.76C101.969 150.387 102.363 151.273 102.363 152.42V156C102.363 156.307 102.423 156.54 102.543 156.7C102.676 156.86 102.856 156.94 103.083 156.94C103.229 156.94 103.356 156.92 103.463 156.88L103.563 157V158.92C103.163 159.053 102.703 159.12 102.183 159.12C101.103 159.12 100.356 158.667 99.9427 157.76H99.8027C99.336 158.24 98.856 158.6 98.3627 158.84C97.8693 159.08 97.3027 159.2 96.6627 159.2ZM97.3027 157.08C97.7827 157.08 98.2027 156.96 98.5627 156.72C98.936 156.48 99.316 156.113 99.7027 155.62V154.46L97.5027 154.74C97.036 154.793 96.676 154.933 96.4227 155.16C96.1827 155.387 96.0627 155.667 96.0627 156C96.0627 156.333 96.176 156.6 96.4027 156.8C96.6427 156.987 96.9427 157.08 97.3027 157.08ZM106.669 147.9C106.229 147.9 105.849 147.74 105.529 147.42C105.209 147.1 105.049 146.72 105.049 146.28C105.049 145.84 105.209 145.46 105.529 145.14C105.849 144.82 106.229 144.66 106.669 144.66C107.122 144.66 107.502 144.82 107.809 145.14C108.129 145.46 108.289 145.84 108.289 146.28C108.289 146.72 108.129 147.1 107.809 147.42C107.502 147.74 107.122 147.9 106.669 147.9ZM105.269 149H108.069V159H105.269V149ZM110.447 149H113.247V150.3C114.194 149.3 115.3 148.8 116.567 148.8C117.647 148.8 118.494 149.113 119.107 149.74C119.72 150.367 120.027 151.173 120.027 152.16V159H117.227V152.98C117.227 152.393 117.087 151.953 116.807 151.66C116.54 151.353 116.14 151.2 115.607 151.2C115.14 151.2 114.694 151.347 114.267 151.64C113.84 151.92 113.5 152.273 113.247 152.7V159H110.447V149ZM126.699 145H131.999C133.639 145 134.946 145.413 135.919 146.24C136.892 147.053 137.379 148.187 137.379 149.64C137.379 151.333 136.612 152.647 135.079 153.58V153.8L138.099 159H134.739L131.979 154.18H129.759V159H126.699V145ZM132.059 151.58C132.739 151.58 133.286 151.413 133.699 151.08C134.112 150.733 134.319 150.24 134.319 149.6C134.319 148.947 134.112 148.453 133.699 148.12C133.299 147.773 132.752 147.6 132.059 147.6H129.759V151.58H132.059ZM143.954 159.2C142.967 159.2 142.08 158.987 141.294 158.56C140.52 158.12 139.914 157.507 139.474 156.72C139.034 155.933 138.814 155.027 138.814 154C138.814 152.987 139.047 152.087 139.514 151.3C139.994 150.513 140.627 149.9 141.414 149.46C142.2 149.02 143.047 148.8 143.954 148.8C144.94 148.8 145.814 149.007 146.574 149.42C147.334 149.833 147.92 150.427 148.334 151.2C148.76 151.973 148.974 152.887 148.974 153.94V154.68H141.454C141.52 155.373 141.78 155.927 142.234 156.34C142.7 156.74 143.294 156.94 144.014 156.94C145.16 156.94 145.92 156.427 146.294 155.4L148.634 155.64L148.774 155.88C148.4 156.987 147.8 157.82 146.974 158.38C146.16 158.927 145.154 159.2 143.954 159.2ZM146.334 152.88C146.267 152.28 146.014 151.8 145.574 151.44C145.134 151.08 144.587 150.9 143.934 150.9C143.347 150.9 142.827 151.08 142.374 151.44C141.934 151.8 141.654 152.28 141.534 152.88H146.334ZM150.857 144.4H153.657V159H150.857V144.4ZM157.431 147.9C156.991 147.9 156.611 147.74 156.291 147.42C155.971 147.1 155.811 146.72 155.811 146.28C155.811 145.84 155.971 145.46 156.291 145.14C156.611 144.82 156.991 144.66 157.431 144.66C157.884 144.66 158.264 144.82 158.571 145.14C158.891 145.46 159.051 145.84 159.051 146.28C159.051 146.72 158.891 147.1 158.571 147.42C158.264 147.74 157.884 147.9 157.431 147.9ZM156.031 149H158.831V159H156.031V149ZM165.829 159.2C164.842 159.2 163.955 158.987 163.169 158.56C162.395 158.12 161.789 157.507 161.349 156.72C160.909 155.933 160.689 155.027 160.689 154C160.689 152.987 160.922 152.087 161.389 151.3C161.869 150.513 162.502 149.9 163.289 149.46C164.075 149.02 164.922 148.8 165.829 148.8C166.815 148.8 167.689 149.007 168.449 149.42C169.209 149.833 169.795 150.427 170.209 151.2C170.635 151.973 170.849 152.887 170.849 153.94V154.68H163.329C163.395 155.373 163.655 155.927 164.109 156.34C164.575 156.74 165.169 156.94 165.889 156.94C167.035 156.94 167.795 156.427 168.169 155.4L170.509 155.64L170.649 155.88C170.275 156.987 169.675 157.82 168.849 158.38C168.035 158.927 167.029 159.2 165.829 159.2ZM168.209 152.88C168.142 152.28 167.889 151.8 167.449 151.44C167.009 151.08 166.462 150.9 165.809 150.9C165.222 150.9 164.702 151.08 164.249 151.44C163.809 151.8 163.529 152.28 163.409 152.88H168.209ZM173.478 151.32H171.798V149H173.478V147.36C173.478 146.307 173.804 145.52 174.458 145C175.124 144.467 175.944 144.2 176.918 144.2C177.424 144.2 177.898 144.267 178.338 144.4V146.56L178.198 146.66C177.904 146.54 177.604 146.48 177.298 146.48C176.978 146.48 176.724 146.567 176.538 146.74C176.351 146.913 176.258 147.173 176.258 147.52V149H178.318V151.32H176.258V159H173.478V151.32Z" fill="black"/>
<path d="M211.5 187H216.8C218.44 187 219.746 187.413 220.72 188.24C221.693 189.053 222.18 190.187 222.18 191.64C222.18 193.333 221.413 194.647 219.88 195.58V195.8L222.9 201H219.54L216.78 196.18H214.56V201H211.5V187ZM216.86 193.58C217.54 193.58 218.086 193.413 218.5 193.08C218.913 192.733 219.12 192.24 219.12 191.6C219.12 190.947 218.913 190.453 218.5 190.12C218.1 189.773 217.553 189.6 216.86 189.6H214.56V193.58H216.86ZM228.755 201.2C227.768 201.2 226.881 200.987 226.095 200.56C225.321 200.12 224.715 199.507 224.275 198.72C223.835 197.933 223.615 197.027 223.615 196C223.615 194.987 223.848 194.087 224.315 193.3C224.795 192.513 225.428 191.9 226.215 191.46C227.001 191.02 227.848 190.8 228.755 190.8C229.741 190.8 230.615 191.007 231.375 191.42C232.135 191.833 232.721 192.427 233.135 193.2C233.561 193.973 233.775 194.887 233.775 195.94V196.68H226.255C226.321 197.373 226.581 197.927 227.035 198.34C227.501 198.74 228.095 198.94 228.815 198.94C229.961 198.94 230.721 198.427 231.095 197.4L233.435 197.64L233.575 197.88C233.201 198.987 232.601 199.82 231.775 200.38C230.961 200.927 229.955 201.2 228.755 201.2ZM231.135 194.88C231.068 194.28 230.815 193.8 230.375 193.44C229.935 193.08 229.388 192.9 228.735 192.9C228.148 192.9 227.628 193.08 227.175 193.44C226.735 193.8 226.455 194.28 226.335 194.88H231.135ZM235.658 186.4H238.458V201H235.658V186.4ZM243.631 201.2C243.058 201.2 242.525 201.08 242.031 200.84C241.551 200.587 241.165 200.233 240.871 199.78C240.591 199.313 240.451 198.773 240.451 198.16C240.451 197.253 240.765 196.527 241.391 195.98C242.018 195.42 242.878 195.087 243.971 194.98L246.671 194.7V194.26C246.671 193.807 246.525 193.453 246.231 193.2C245.951 192.947 245.551 192.82 245.031 192.82C244.565 192.82 244.191 192.947 243.911 193.2C243.631 193.44 243.458 193.773 243.391 194.2L241.031 194L240.931 193.88C241.131 192.88 241.605 192.12 242.351 191.6C243.098 191.067 244.005 190.8 245.071 190.8C246.338 190.8 247.365 191.12 248.151 191.76C248.938 192.387 249.331 193.273 249.331 194.42V198C249.331 198.307 249.391 198.54 249.511 198.7C249.645 198.86 249.825 198.94 250.051 198.94C250.198 198.94 250.325 198.92 250.431 198.88L250.531 199V200.92C250.131 201.053 249.671 201.12 249.151 201.12C248.071 201.12 247.325 200.667 246.911 199.76H246.771C246.305 200.24 245.825 200.6 245.331 200.84C244.838 201.08 244.271 201.2 243.631 201.2ZM244.271 199.08C244.751 199.08 245.171 198.96 245.531 198.72C245.905 198.48 246.285 198.113 246.671 197.62V196.46L244.471 196.74C244.005 196.793 243.645 196.933 243.391 197.16C243.151 197.387 243.031 197.667 243.031 198C243.031 198.333 243.145 198.6 243.371 198.8C243.611 198.987 243.911 199.08 244.271 199.08ZM254.798 195.54L251.698 191H254.918L256.458 193.42L257.998 191H261.218L258.118 195.54L261.538 201H258.398L256.458 197.76L254.498 201H251.358L254.798 195.54Z" fill="black"/>
<defs>
<filter id="filter0_d_58592_610" x="96" y="246" width="233" height="86" filterUnits="userSpaceOnUse" color-interpolation-filters="sRGB">
<feFlood flood-opacity="0" result="BackgroundImageFix"/>
<feColorMatrix in="SourceAlpha" type="matrix" values="0 0 0 0 0 0 0 0 0 0 0 0 0 0 0 0 0 0 127 0" result="hardAlpha"/>
<feOffset dy="4"/>
<feGaussianBlur stdDeviation="7.5"/>
<feComposite in2="hardAlpha" operator="out"/>
<feColorMatrix type="matrix" values="0 0 0 0 0 0 0 0 0 0 0 0 0 0 0 0 0 0 0.06 0"/>
<feBlend mode="normal" in2="BackgroundImageFix" result="effect1_dropShadow_58592_610"/>
<feBlend mode="normal" in="SourceGraphic" in2="effect1_dropShadow_58592_610" result="shape"/>
</filter>
<filter id="filter1_d_58592_610" x="7" y="204" width="209" height="86" filterUnits="userSpaceOnUse" color-interpolation-filters="sRGB">
<feFlood flood-opacity="0" result="BackgroundImageFix"/>
<feColorMatrix in="SourceAlpha" type="matrix" values="0 0 0 0 0 0 0 0 0 0 0 0 0 0 0 0 0 0 127 0" result="hardAlpha"/>
<feOffset dy="4"/>
<feGaussianBlur stdDeviation="7.5"/>
<feComposite in2="hardAlpha" operator="out"/>
<feColorMatrix type="matrix" values="0 0 0 0 0 0 0 0 0 0 0 0 0 0 0 0 0 0 0.06 0"/>
<feBlend mode="normal" in2="BackgroundImageFix" result="effect1_dropShadow_58592_610"/>
<feBlend mode="normal" in="SourceGraphic" in2="effect1_dropShadow_58592_610" result="shape"/>
</filter>
<filter id="filter2_d_58592_610" x="21" y="114" width="217" height="86" filterUnits="userSpaceOnUse" color-interpolation-filters="sRGB">
<feFlood flood-opacity="0" result="BackgroundImageFix"/>
<feColorMatrix in="SourceAlpha" type="matrix" values="0 0 0 0 0 0 0 0 0 0 0 0 0 0 0 0 0 0 127 0" result="hardAlpha"/>
<feOffset dy="4"/>
<feGaussianBlur stdDeviation="7.5"/>
<feComposite in2="hardAlpha" operator="out"/>
<feColorMatrix type="matrix" values="0 0 0 0 0 0 0 0 0 0 0 0 0 0 0 0 0 0 0.06 0"/>
<feBlend mode="normal" in2="BackgroundImageFix" result="effect1_dropShadow_58592_610"/>
<feBlend mode="normal" in="SourceGraphic" in2="effect1_dropShadow_58592_610" result="shape"/>
</filter>
<filter id="filter3_d_58592_610" x="167" y="156" width="138" height="86" filterUnits="userSpaceOnUse" color-interpolation-filters="sRGB">
<feFlood flood-opacity="0" result="BackgroundImageFix"/>
<feColorMatrix in="SourceAlpha" type="matrix" values="0 0 0 0 0 0 0 0 0 0 0 0 0 0 0 0 0 0 127 0" result="hardAlpha"/>
<feOffset dy="4"/>
<feGaussianBlur stdDeviation="7.5"/>
<feComposite in2="hardAlpha" operator="out"/>
<feColorMatrix type="matrix" values="0 0 0 0 0 0 0 0 0 0 0 0 0 0 0 0 0 0 0.06 0"/>
<feBlend mode="normal" in2="BackgroundImageFix" result="effect1_dropShadow_58592_610"/>
<feBlend mode="normal" in="SourceGraphic" in2="effect1_dropShadow_58592_610" result="shape"/>
</filter>
<filter id="filter4_d_58592_610" x="167" y="72" width="144" height="86" filterUnits="userSpaceOnUse" color-interpolation-filters="sRGB">
<feFlood flood-opacity="0" result="BackgroundImageFix"/>
<feColorMatrix in="SourceAlpha" type="matrix" values="0 0 0 0 0 0 0 0 0 0 0 0 0 0 0 0 0 0 127 0" result="hardAlpha"/>
<feOffset dy="4"/>
<feGaussianBlur stdDeviation="7.5"/>
<feComposite in2="hardAlpha" operator="out"/>
<feColorMatrix type="matrix" values="0 0 0 0 0 0 0 0 0 0 0 0 0 0 0 0 0 0 0.06 0"/>
<feBlend mode="normal" in2="BackgroundImageFix" result="effect1_dropShadow_58592_610"/>
<feBlend mode="normal" in="SourceGraphic" in2="effect1_dropShadow_58592_610" result="shape"/>
</filter>
<filter id="filter5_d_58592_610" x="53" y="33" width="151" height="86" filterUnits="userSpaceOnUse" color-interpolation-filters="sRGB">
<feFlood flood-opacity="0" result="BackgroundImageFix"/>
<feColorMatrix in="SourceAlpha" type="matrix" values="0 0 0 0 0 0 0 0 0 0 0 0 0 0 0 0 0 0 127 0" result="hardAlpha"/>
<feOffset dy="4"/>
<feGaussianBlur stdDeviation="7.5"/>
<feComposite in2="hardAlpha" operator="out"/>
<feColorMatrix type="matrix" values="0 0 0 0 0 0 0 0 0 0 0 0 0 0 0 0 0 0 0.06 0"/>
<feBlend mode="normal" in2="BackgroundImageFix" result="effect1_dropShadow_58592_610"/>
<feBlend mode="normal" in="SourceGraphic" in2="effect1_dropShadow_58592_610" result="shape"/>
</filter>
</defs>
</svg>
