<svg width="326" height="322" viewBox="0 0 326 322" fill="none" xmlns="http://www.w3.org/2000/svg">
<path d="M121.61 35.5311C126.353 34.6318 131.237 32.2151 136.16 28.452L145.731 20.9057L105.719 2.13028C96.4842 -2.20057 85.5365 0.236164 79 7.9483L84.2252 10.4102C87.4658 11.842 90.3044 14.118 92.4196 17.0471L98.4989 24.9703C102.006 29.5624 105.784 32.6271 109.753 34.3203L110.954 34.7875C111.652 35.0337 112.361 35.2347 113.074 35.4005V48.2122H90.4602V54.2412H143.717V48.2122H121.61V35.5311ZM95.0724 9.67662C93.8867 10.0786 92.6005 9.44048 92.1985 8.25477C91.7966 7.06906 92.4347 5.78287 93.6204 5.38094C94.8061 4.979 96.0923 5.61707 96.4942 6.80278C96.8962 7.98849 96.2581 9.27468 95.0724 9.67662ZM117.35 35.928C118.259 35.9381 119.178 35.8778 120.103 35.7672V48.2172H114.576V35.6969C115.099 35.7773 115.621 35.8426 116.149 35.8778L117.35 35.923V35.928Z" fill="black"/>
<path d="M98.4084 73.8371H136.175L141.305 55.75H93.2787L98.4084 73.8371Z" fill="black"/>
<path d="M99.5037 80.1469V108.001H107.542V86.2412C107.542 85.8242 107.879 85.4876 108.296 85.4876C108.713 85.4876 109.05 85.8242 109.05 86.2412V108.001H116.586V86.2412C116.586 85.8242 116.923 85.4876 117.34 85.4876C117.757 85.4876 118.093 85.8242 118.093 86.2412V108.001H125.63V86.2412C125.63 85.8242 125.966 85.4876 126.383 85.4876C126.8 85.4876 127.137 85.8242 127.137 86.2412V108.001H134.673V75.3438H99.5037V80.1469Z" fill="black"/>
<path d="M90.0116 175.729C90.0116 173.006 87.7945 170.789 85.0718 170.789C82.349 170.789 80.1319 173.006 80.1319 175.729V185.311H90.0161V175.729H90.0116Z" fill="black"/>
<path d="M118.784 193.991C121.507 193.991 123.724 191.774 123.724 189.051V179.944C123.724 177.221 121.507 175.004 118.784 175.004C116.061 175.004 113.844 177.221 113.844 179.944V189.051C113.844 191.774 116.061 193.991 118.784 193.991Z" fill="black"/>
<path d="M101.251 185.646V174.01C101.251 171.287 99.0334 169.07 96.3106 169.07C93.5879 169.07 91.3708 171.287 91.3708 174.01V185.312H99.2366C99.941 185.312 100.618 185.43 101.255 185.642L101.251 185.646Z" fill="black"/>
<path d="M105.635 191.715C105.635 192.325 105.545 192.916 105.382 193.476C106.037 193.801 106.768 193.991 107.545 193.991C110.268 193.991 112.485 191.774 112.485 189.051V175.008C112.485 172.285 110.268 170.068 107.545 170.068C104.822 170.068 102.605 172.285 102.605 175.008V186.288C104.42 187.417 105.635 189.426 105.635 191.72V191.715Z" fill="black"/>
<path d="M118.784 195.346C116.327 195.346 114.201 193.928 113.167 191.874C112.128 193.928 110.001 195.346 107.549 195.346C106.592 195.346 105.685 195.129 104.876 194.741C103.793 196.75 101.675 198.114 99.2366 198.114H92.8654C98.0174 200.214 102.113 204.594 103.689 210.161C103.793 210.522 103.58 210.897 103.224 210.996C103.16 211.014 103.102 211.023 103.039 211.023C102.745 211.023 102.474 210.829 102.388 210.531C100.316 203.221 93.5607 198.114 85.9613 198.114H85.6633C85.2885 198.114 84.986 197.811 84.986 197.437C84.986 197.062 85.2885 196.759 85.6633 196.759H99.2411C102.023 196.759 104.285 194.497 104.285 191.716C104.285 188.934 102.023 186.672 99.2411 186.672H79.423C76.506 187.909 73.9277 190.582 73.9277 193.797V194.064C73.9277 203.361 78.6418 212.026 86.4535 217.074V252.999H117.948V215.923C122.175 208.725 124.401 200.53 124.401 192.181V191.874C123.362 193.928 121.236 195.346 118.784 195.346Z" fill="black"/>
<path d="M248.426 106.572H248.308C234.716 106.572 223.698 117.59 223.698 131.182V180.638C223.698 194.229 234.716 205.247 248.308 205.247H248.426C262.017 205.247 273.035 194.229 273.035 180.638V131.182C273.035 117.59 262.017 106.572 248.426 106.572Z" fill="#F1F2F3"/>
<path d="M203.303 161.828L165.893 197.77L179.375 202.559C184.877 204.42 190.03 205.331 194.739 205.224V219.462C194.739 219.907 195.098 220.267 195.543 220.267C195.988 220.267 196.348 219.907 196.348 219.462V205.16L197.217 205.085C198.965 204.902 200.638 204.564 202.247 204.066V219.462C202.247 219.907 202.606 220.267 203.051 220.267C203.496 220.267 203.856 219.907 203.856 219.462V203.508L204.51 203.245C211.337 200.355 216.646 194.257 219.939 184.508L223.714 173.412C224.964 169.358 227.264 165.759 230.326 162.949L235.212 158.246C225.039 152.133 211.953 153.543 203.314 161.839L203.303 161.828ZM218.705 164.671C217.531 164.671 216.576 163.722 216.576 162.547C216.576 161.373 217.525 160.418 218.7 160.418C219.874 160.418 220.829 161.367 220.829 162.542C220.829 163.716 219.88 164.671 218.705 164.671Z" fill="black"/>
<path d="M272.483 161.829C263.844 153.533 250.759 152.123 240.585 158.236L245.465 162.94C248.05 165.31 250.077 168.243 251.402 171.536C252.228 171.568 253.3 171.536 254.539 171.316C257.392 170.812 259.462 169.091 259.484 169.075C259.822 168.79 260.331 168.828 260.615 169.171C260.9 169.509 260.862 170.018 260.524 170.303C260.428 170.383 258.116 172.324 254.818 172.904C253.751 173.091 252.796 173.156 251.987 173.161C252.013 173.247 252.046 173.327 252.072 173.408L255.848 184.503C257.993 190.869 261.001 195.674 264.729 199.047C269.818 194.537 273.03 187.952 273.03 180.615V162.36L272.478 161.829H272.483ZM256.91 164.951C255.467 164.951 254.298 163.782 254.298 162.339H259.516C259.516 163.782 258.347 164.951 256.904 164.951H256.91Z" fill="black"/>
<g filter="url(#filter0_d_58592_612)">
<rect x="15" y="253" width="181" height="50" rx="25" fill="white"/>
<rect x="15.5" y="253.5" width="180" height="49" rx="24.5" stroke="#D9D9DA"/>
</g>
<g filter="url(#filter1_d_58592_612)">
<rect x="129" y="216" width="182" height="50" rx="25" fill="white"/>
<rect x="129.5" y="216.5" width="181" height="49" rx="24.5" stroke="#D9D9DA"/>
</g>
<path d="M40.9899 270H43.9299L48.0899 280.24L52.2299 270H55.1699V284H52.2899V275.9H52.1699L51.9299 277.6L49.3699 284H46.7899L44.2299 277.6L43.9899 275.9H43.8699V284H40.9899V270ZM60.4263 284.2C59.853 284.2 59.3197 284.08 58.8263 283.84C58.3463 283.587 57.9597 283.233 57.6663 282.78C57.3863 282.313 57.2463 281.773 57.2463 281.16C57.2463 280.253 57.5597 279.527 58.1863 278.98C58.813 278.42 59.673 278.087 60.7663 277.98L63.4663 277.7V277.26C63.4663 276.807 63.3197 276.453 63.0263 276.2C62.7463 275.947 62.3463 275.82 61.8263 275.82C61.3597 275.82 60.9863 275.947 60.7063 276.2C60.4263 276.44 60.253 276.773 60.1863 277.2L57.8263 277L57.7263 276.88C57.9263 275.88 58.3997 275.12 59.1463 274.6C59.893 274.067 60.7997 273.8 61.8663 273.8C63.133 273.8 64.1597 274.12 64.9463 274.76C65.733 275.387 66.1263 276.273 66.1263 277.42V281C66.1263 281.307 66.1863 281.54 66.3063 281.7C66.4397 281.86 66.6197 281.94 66.8463 281.94C66.993 281.94 67.1197 281.92 67.2263 281.88L67.3263 282V283.92C66.9263 284.053 66.4663 284.12 65.9463 284.12C64.8663 284.12 64.1197 283.667 63.7063 282.76H63.5663C63.0997 283.24 62.6197 283.6 62.1263 283.84C61.633 284.08 61.0663 284.2 60.4263 284.2ZM61.0663 282.08C61.5463 282.08 61.9663 281.96 62.3263 281.72C62.6997 281.48 63.0797 281.113 63.4663 280.62V279.46L61.2663 279.74C60.7997 279.793 60.4397 279.933 60.1863 280.16C59.9463 280.387 59.8263 280.667 59.8263 281C59.8263 281.333 59.9397 281.6 60.1663 281.8C60.4063 281.987 60.7063 282.08 61.0663 282.08ZM69.1326 274H71.9326V275.2C72.2926 274.773 72.7059 274.433 73.1726 274.18C73.6392 273.927 74.1526 273.8 74.7126 273.8C75.1126 273.8 75.4326 273.853 75.6726 273.96L75.3126 276.16L75.1726 276.3C74.9059 276.233 74.6792 276.2 74.4926 276.2C73.9459 276.2 73.4526 276.353 73.0126 276.66C72.5726 276.967 72.2126 277.413 71.9326 278V284H69.1326V274ZM78.7724 272.9C78.3324 272.9 77.9524 272.74 77.6324 272.42C77.3124 272.1 77.1524 271.72 77.1524 271.28C77.1524 270.84 77.3124 270.46 77.6324 270.14C77.9524 269.82 78.3324 269.66 78.7724 269.66C79.2258 269.66 79.6058 269.82 79.9124 270.14C80.2324 270.46 80.3924 270.84 80.3924 271.28C80.3924 271.72 80.2324 272.1 79.9124 272.42C79.6058 272.74 79.2258 272.9 78.7724 272.9ZM77.3724 274H80.1724V284H77.3724V274ZM85.2505 284.2C84.6772 284.2 84.1439 284.08 83.6505 283.84C83.1705 283.587 82.7839 283.233 82.4905 282.78C82.2105 282.313 82.0705 281.773 82.0705 281.16C82.0705 280.253 82.3839 279.527 83.0105 278.98C83.6372 278.42 84.4972 278.087 85.5905 277.98L88.2905 277.7V277.26C88.2905 276.807 88.1439 276.453 87.8505 276.2C87.5705 275.947 87.1705 275.82 86.6505 275.82C86.1839 275.82 85.8105 275.947 85.5305 276.2C85.2505 276.44 85.0772 276.773 85.0105 277.2L82.6505 277L82.5505 276.88C82.7505 275.88 83.2239 275.12 83.9705 274.6C84.7172 274.067 85.6239 273.8 86.6905 273.8C87.9572 273.8 88.9839 274.12 89.7705 274.76C90.5572 275.387 90.9505 276.273 90.9505 277.42V281C90.9505 281.307 91.0105 281.54 91.1305 281.7C91.2639 281.86 91.4439 281.94 91.6705 281.94C91.8172 281.94 91.9439 281.92 92.0505 281.88L92.1505 282V283.92C91.7505 284.053 91.2905 284.12 90.7705 284.12C89.6905 284.12 88.9439 283.667 88.5305 282.76H88.3905C87.9239 283.24 87.4439 283.6 86.9505 283.84C86.4572 284.08 85.8905 284.2 85.2505 284.2ZM85.8905 282.08C86.3705 282.08 86.7905 281.96 87.1505 281.72C87.5239 281.48 87.9039 281.113 88.2905 280.62V279.46L86.0905 279.74C85.6239 279.793 85.2639 279.933 85.0105 280.16C84.7705 280.387 84.6505 280.667 84.6505 281C84.6505 281.333 84.7639 281.6 84.9905 281.8C85.2305 281.987 85.5305 282.08 85.8905 282.08ZM102.576 270H105.336L110.676 284H107.456L106.636 281.64H101.276L100.436 284H97.236L102.576 270ZM105.716 279.02L104.216 274.74L103.996 273.22H103.896L103.696 274.74L102.196 279.02H105.716ZM112.238 274H115.038V275.3C115.985 274.3 117.091 273.8 118.358 273.8C119.438 273.8 120.285 274.113 120.898 274.74C121.511 275.367 121.818 276.173 121.818 277.16V284H119.018V277.98C119.018 277.393 118.878 276.953 118.598 276.66C118.331 276.353 117.931 276.2 117.398 276.2C116.931 276.2 116.485 276.347 116.058 276.64C115.631 276.92 115.291 277.273 115.038 277.7V284H112.238V274ZM128.931 288.2C127.571 288.2 126.491 287.907 125.691 287.32C124.904 286.733 124.411 286.02 124.211 285.18L124.431 284.96L126.971 284.68C127.224 285.547 127.904 285.98 129.011 285.98C129.744 285.98 130.311 285.78 130.711 285.38C131.111 284.98 131.311 284.42 131.311 283.7V282.98C130.897 283.34 130.484 283.6 130.071 283.76C129.657 283.92 129.131 284 128.491 284C127.624 284 126.824 283.793 126.091 283.38C125.357 282.967 124.771 282.373 124.331 281.6C123.904 280.827 123.691 279.927 123.691 278.9C123.691 277.873 123.911 276.973 124.351 276.2C124.804 275.427 125.397 274.833 126.131 274.42C126.877 274.007 127.671 273.8 128.511 273.8C129.631 273.8 130.564 274.16 131.311 274.88V274H133.971V283.6C133.971 285.053 133.531 286.18 132.651 286.98C131.784 287.793 130.544 288.2 128.931 288.2ZM128.931 281.76C129.651 281.76 130.224 281.547 130.651 281.12C131.091 280.693 131.311 280.133 131.311 279.44V278.38C131.311 277.673 131.084 277.107 130.631 276.68C130.177 276.253 129.611 276.04 128.931 276.04C128.184 276.04 127.564 276.273 127.071 276.74C126.591 277.207 126.351 277.927 126.351 278.9C126.351 279.873 126.591 280.593 127.071 281.06C127.564 281.527 128.184 281.76 128.931 281.76ZM141.077 284.2C140.09 284.2 139.203 283.987 138.417 283.56C137.643 283.12 137.037 282.507 136.597 281.72C136.157 280.933 135.937 280.027 135.937 279C135.937 277.987 136.17 277.087 136.637 276.3C137.117 275.513 137.75 274.9 138.537 274.46C139.323 274.02 140.17 273.8 141.077 273.8C142.063 273.8 142.937 274.007 143.697 274.42C144.457 274.833 145.043 275.427 145.457 276.2C145.883 276.973 146.097 277.887 146.097 278.94V279.68H138.577C138.643 280.373 138.903 280.927 139.357 281.34C139.823 281.74 140.417 281.94 141.137 281.94C142.283 281.94 143.043 281.427 143.417 280.4L145.757 280.64L145.897 280.88C145.523 281.987 144.923 282.82 144.097 283.38C143.283 283.927 142.277 284.2 141.077 284.2ZM143.457 277.88C143.39 277.28 143.137 276.8 142.697 276.44C142.257 276.08 141.71 275.9 141.057 275.9C140.47 275.9 139.95 276.08 139.497 276.44C139.057 276.8 138.777 277.28 138.657 277.88H143.457ZM147.98 269.4H150.78V284H147.98V269.4ZM158.174 284.2C157.134 284.2 156.2 283.973 155.374 283.52C154.547 283.067 153.9 282.447 153.434 281.66C152.967 280.873 152.734 279.987 152.734 279C152.734 278.013 152.967 277.127 153.434 276.34C153.9 275.553 154.547 274.933 155.374 274.48C156.2 274.027 157.134 273.8 158.174 273.8C159.227 273.8 160.167 274.027 160.994 274.48C161.82 274.933 162.467 275.553 162.934 276.34C163.4 277.127 163.634 278.013 163.634 279C163.634 279.987 163.4 280.873 162.934 281.66C162.467 282.447 161.82 283.067 160.994 283.52C160.167 283.973 159.227 284.2 158.174 284.2ZM158.174 281.78C158.947 281.78 159.58 281.533 160.074 281.04C160.58 280.533 160.834 279.853 160.834 279C160.834 278.147 160.58 277.473 160.074 276.98C159.58 276.473 158.947 276.22 158.174 276.22C157.4 276.22 156.767 276.473 156.274 276.98C155.78 277.473 155.534 278.147 155.534 279C155.534 279.853 155.78 280.533 156.274 281.04C156.767 281.533 157.4 281.78 158.174 281.78ZM169.037 284.2C167.944 284.2 167.084 283.873 166.457 283.22C165.831 282.567 165.517 281.693 165.517 280.6V274H168.317V280.02C168.317 280.593 168.464 281.033 168.757 281.34C169.051 281.647 169.464 281.8 169.997 281.8C170.477 281.8 170.917 281.667 171.317 281.4C171.717 281.12 172.044 280.753 172.297 280.3V274H175.097V284H172.297V282.76C171.404 283.72 170.317 284.2 169.037 284.2Z" fill="black"/>
<path d="M158.476 235H167.756V237.6H161.536V240.7H167.216V243.3H161.536V246.4H167.976V249H158.476V235ZM169.079 239H172.119L174.139 244.5L174.399 246.28H174.519L174.779 244.5L176.799 239H179.839L175.999 249H172.899L169.079 239ZM182.743 237.9C182.303 237.9 181.923 237.74 181.603 237.42C181.283 237.1 181.123 236.72 181.123 236.28C181.123 235.84 181.283 235.46 181.603 235.14C181.923 234.82 182.303 234.66 182.743 234.66C183.196 234.66 183.576 234.82 183.883 235.14C184.203 235.46 184.363 235.84 184.363 236.28C184.363 236.72 184.203 237.1 183.883 237.42C183.576 237.74 183.196 237.9 182.743 237.9ZM181.343 239H184.143V249H181.343V239ZM186.521 234.4H189.321V249H186.521V234.4ZM200.414 235H203.174L208.514 249H205.294L204.474 246.64H199.114L198.274 249H195.074L200.414 235ZM203.554 244.02L202.054 239.74L201.834 238.22H201.734L201.534 239.74L200.034 244.02H203.554ZM210.076 234.4H212.876V249H210.076V234.4ZM219.349 249.2C218.416 249.2 217.676 248.947 217.129 248.44C216.583 247.933 216.309 247.173 216.309 246.16V241.32H214.529V239H216.309V236.14H216.669L219.089 236.98V239H221.209V241.32H219.089V245.92C219.089 246.24 219.183 246.487 219.369 246.66C219.556 246.833 219.823 246.92 220.169 246.92C220.383 246.92 220.649 246.873 220.969 246.78L221.109 246.86V249C220.536 249.133 219.949 249.2 219.349 249.2ZM227.567 249.2C226.58 249.2 225.694 248.987 224.907 248.56C224.134 248.12 223.527 247.507 223.087 246.72C222.647 245.933 222.427 245.027 222.427 244C222.427 242.987 222.66 242.087 223.127 241.3C223.607 240.513 224.24 239.9 225.027 239.46C225.814 239.02 226.66 238.8 227.567 238.8C228.554 238.8 229.427 239.007 230.187 239.42C230.947 239.833 231.534 240.427 231.947 241.2C232.374 241.973 232.587 242.887 232.587 243.94V244.68H225.067C225.134 245.373 225.394 245.927 225.847 246.34C226.314 246.74 226.907 246.94 227.627 246.94C228.774 246.94 229.534 246.427 229.907 245.4L232.247 245.64L232.387 245.88C232.014 246.987 231.414 247.82 230.587 248.38C229.774 248.927 228.767 249.2 227.567 249.2ZM229.947 242.88C229.88 242.28 229.627 241.8 229.187 241.44C228.747 241.08 228.2 240.9 227.547 240.9C226.96 240.9 226.44 241.08 225.987 241.44C225.547 241.8 225.267 242.28 225.147 242.88H229.947ZM234.47 239H237.27V240.2C237.63 239.773 238.044 239.433 238.51 239.18C238.977 238.927 239.49 238.8 240.05 238.8C240.45 238.8 240.77 238.853 241.01 238.96L240.65 241.16L240.51 241.3C240.244 241.233 240.017 241.2 239.83 241.2C239.284 241.2 238.79 241.353 238.35 241.66C237.91 241.967 237.55 242.413 237.27 243V249H234.47V239ZM242.43 241.66H249.81V243.9H242.43V241.66ZM252.011 235H261.291V237.6H255.071V240.7H260.751V243.3H255.071V246.4H261.511V249H252.011V235ZM268.214 253.2C266.854 253.2 265.774 252.907 264.974 252.32C264.187 251.733 263.694 251.02 263.494 250.18L263.714 249.96L266.254 249.68C266.507 250.547 267.187 250.98 268.294 250.98C269.027 250.98 269.594 250.78 269.994 250.38C270.394 249.98 270.594 249.42 270.594 248.7V247.98C270.181 248.34 269.767 248.6 269.354 248.76C268.941 248.92 268.414 249 267.774 249C266.907 249 266.107 248.793 265.374 248.38C264.641 247.967 264.054 247.373 263.614 246.6C263.187 245.827 262.974 244.927 262.974 243.9C262.974 242.873 263.194 241.973 263.634 241.2C264.087 240.427 264.681 239.833 265.414 239.42C266.161 239.007 266.954 238.8 267.794 238.8C268.914 238.8 269.847 239.16 270.594 239.88V239H273.254V248.6C273.254 250.053 272.814 251.18 271.934 251.98C271.067 252.793 269.827 253.2 268.214 253.2ZM268.214 246.76C268.934 246.76 269.507 246.547 269.934 246.12C270.374 245.693 270.594 245.133 270.594 244.44V243.38C270.594 242.673 270.367 242.107 269.914 241.68C269.461 241.253 268.894 241.04 268.214 241.04C267.467 241.04 266.847 241.273 266.354 241.74C265.874 242.207 265.634 242.927 265.634 243.9C265.634 244.873 265.874 245.593 266.354 246.06C266.847 246.527 267.467 246.76 268.214 246.76ZM280.66 249.2C279.62 249.2 278.687 248.973 277.86 248.52C277.033 248.067 276.387 247.447 275.92 246.66C275.453 245.873 275.22 244.987 275.22 244C275.22 243.013 275.453 242.127 275.92 241.34C276.387 240.553 277.033 239.933 277.86 239.48C278.687 239.027 279.62 238.8 280.66 238.8C281.713 238.8 282.653 239.027 283.48 239.48C284.307 239.933 284.953 240.553 285.42 241.34C285.887 242.127 286.12 243.013 286.12 244C286.12 244.987 285.887 245.873 285.42 246.66C284.953 247.447 284.307 248.067 283.48 248.52C282.653 248.973 281.713 249.2 280.66 249.2ZM280.66 246.78C281.433 246.78 282.067 246.533 282.56 246.04C283.067 245.533 283.32 244.853 283.32 244C283.32 243.147 283.067 242.473 282.56 241.98C282.067 241.473 281.433 241.22 280.66 241.22C279.887 241.22 279.253 241.473 278.76 241.98C278.267 242.473 278.02 243.147 278.02 244C278.02 244.853 278.267 245.533 278.76 246.04C279.253 246.533 279.887 246.78 280.66 246.78Z" fill="black"/>
<g filter="url(#filter2_d_58592_612)">
<rect x="29" y="107" width="182" height="50" rx="25" fill="white"/>
<rect x="29.5" y="107.5" width="181" height="49" rx="24.5" stroke="#D9D9DA"/>
</g>
<g filter="url(#filter3_d_58592_612)">
<rect x="111" y="66" width="181" height="50" rx="25" fill="white"/>
<rect x="111.5" y="66.5" width="180" height="49" rx="24.5" stroke="#D9D9DA"/>
</g>
<path d="M47.9977 126H50.9377L55.0977 136.24L59.2377 126H62.1777V140H59.2977V131.9H59.1777L58.9377 133.6L56.3777 140H53.7977L51.2377 133.6L50.9977 131.9H50.8777V140H47.9977V126ZM67.4341 140.2C66.8608 140.2 66.3275 140.08 65.8341 139.84C65.3541 139.587 64.9675 139.233 64.6741 138.78C64.3941 138.313 64.2541 137.773 64.2541 137.16C64.2541 136.253 64.5675 135.527 65.1941 134.98C65.8208 134.42 66.6808 134.087 67.7741 133.98L70.4741 133.7V133.26C70.4741 132.807 70.3275 132.453 70.0341 132.2C69.7541 131.947 69.3541 131.82 68.8341 131.82C68.3675 131.82 67.9941 131.947 67.7141 132.2C67.4341 132.44 67.2608 132.773 67.1941 133.2L64.8341 133L64.7341 132.88C64.9341 131.88 65.4075 131.12 66.1541 130.6C66.9008 130.067 67.8075 129.8 68.8741 129.8C70.1408 129.8 71.1675 130.12 71.9541 130.76C72.7408 131.387 73.1341 132.273 73.1341 133.42V137C73.1341 137.307 73.1941 137.54 73.3141 137.7C73.4475 137.86 73.6275 137.94 73.8541 137.94C74.0008 137.94 74.1275 137.92 74.2341 137.88L74.3341 138V139.92C73.9341 140.053 73.4741 140.12 72.9541 140.12C71.8741 140.12 71.1275 139.667 70.7141 138.76H70.5741C70.1075 139.24 69.6275 139.6 69.1341 139.84C68.6408 140.08 68.0741 140.2 67.4341 140.2ZM68.0741 138.08C68.5541 138.08 68.9741 137.96 69.3341 137.72C69.7075 137.48 70.0875 137.113 70.4741 136.62V135.46L68.2741 135.74C67.8075 135.793 67.4475 135.933 67.1941 136.16C66.9541 136.387 66.8341 136.667 66.8341 137C66.8341 137.333 66.9475 137.6 67.1741 137.8C67.4141 137.987 67.7141 138.08 68.0741 138.08ZM76.1404 130H78.9404V131.2C79.3004 130.773 79.7137 130.433 80.1804 130.18C80.6471 129.927 81.1604 129.8 81.7204 129.8C82.1204 129.8 82.4404 129.853 82.6804 129.96L82.3204 132.16L82.1804 132.3C81.9137 132.233 81.6871 132.2 81.5004 132.2C80.9537 132.2 80.4604 132.353 80.0204 132.66C79.5804 132.967 79.2204 133.413 78.9404 134V140H76.1404V130ZM88.712 140.2C87.7386 140.2 86.852 139.98 86.052 139.54C85.2653 139.1 84.6386 138.487 84.172 137.7C83.7053 136.9 83.472 136 83.472 135C83.472 134 83.7053 133.107 84.172 132.32C84.6386 131.52 85.2653 130.9 86.052 130.46C86.852 130.02 87.7386 129.8 88.712 129.8C90.032 129.8 91.1186 130.133 91.972 130.8C92.8386 131.467 93.3853 132.373 93.612 133.52L93.452 133.72L91.132 133.96C90.9986 133.427 90.7253 133.007 90.312 132.7C89.8986 132.38 89.3653 132.22 88.712 132.22C87.9786 132.22 87.372 132.467 86.892 132.96C86.4253 133.44 86.192 134.12 86.192 135C86.192 135.88 86.4253 136.567 86.892 137.06C87.372 137.54 87.9786 137.78 88.712 137.78C89.3653 137.78 89.8853 137.633 90.272 137.34C90.6586 137.047 90.9453 136.613 91.132 136.04L93.452 136.28L93.612 136.46C93.3053 137.66 92.732 138.587 91.892 139.24C91.052 139.88 89.992 140.2 88.712 140.2ZM99.014 140.2C97.9207 140.2 97.0607 139.873 96.434 139.22C95.8073 138.567 95.494 137.693 95.494 136.6V130H98.294V136.02C98.294 136.593 98.4407 137.033 98.734 137.34C99.0273 137.647 99.4407 137.8 99.974 137.8C100.454 137.8 100.894 137.667 101.294 137.4C101.694 137.12 102.021 136.753 102.274 136.3V130H105.074V140H102.274V138.76C101.381 139.72 100.294 140.2 99.014 140.2ZM111.247 140.2C110.073 140.2 109.113 139.947 108.367 139.44C107.62 138.92 107.12 138.193 106.867 137.26L106.947 137L109.087 136.36C109.327 137.48 110.047 138.04 111.247 138.04C111.66 138.04 112 137.953 112.267 137.78C112.533 137.607 112.667 137.367 112.667 137.06C112.667 136.74 112.513 136.493 112.207 136.32C111.913 136.133 111.333 135.927 110.467 135.7C109.413 135.447 108.62 135.08 108.087 134.6C107.553 134.107 107.287 133.46 107.287 132.66C107.287 132.127 107.433 131.647 107.727 131.22C108.033 130.78 108.46 130.433 109.007 130.18C109.553 129.927 110.18 129.8 110.887 129.8C111.94 129.8 112.8 130.033 113.467 130.5C114.147 130.953 114.587 131.6 114.787 132.44L114.667 132.66L112.547 133.18C112.453 132.713 112.253 132.36 111.947 132.12C111.64 131.867 111.267 131.74 110.827 131.74C110.493 131.74 110.213 131.813 109.987 131.96C109.76 132.093 109.647 132.28 109.647 132.52C109.647 132.813 109.833 133.053 110.207 133.24C110.58 133.427 111.26 133.653 112.247 133.92C113.273 134.2 114.027 134.567 114.507 135.02C115 135.473 115.247 136.1 115.247 136.9C115.247 137.513 115.08 138.073 114.747 138.58C114.427 139.087 113.96 139.487 113.347 139.78C112.747 140.06 112.047 140.2 111.247 140.2ZM125.795 126H128.555L133.895 140H130.675L129.855 137.64H124.495L123.655 140H120.455L125.795 126ZM128.935 135.02L127.435 130.74L127.215 129.22H127.115L126.915 130.74L125.415 135.02H128.935ZM138.701 140.2C137.608 140.2 136.748 139.873 136.121 139.22C135.495 138.567 135.181 137.693 135.181 136.6V130H137.981V136.02C137.981 136.593 138.128 137.033 138.421 137.34C138.715 137.647 139.128 137.8 139.661 137.8C140.141 137.8 140.581 137.667 140.981 137.4C141.381 137.12 141.708 136.753 141.961 136.3V130H144.761V140H141.961V138.76C141.068 139.72 139.981 140.2 138.701 140.2ZM147.234 130H150.034V131.2C150.394 130.773 150.807 130.433 151.274 130.18C151.741 129.927 152.254 129.8 152.814 129.8C153.214 129.8 153.534 129.853 153.774 129.96L153.414 132.16L153.274 132.3C153.007 132.233 152.781 132.2 152.594 132.2C152.047 132.2 151.554 132.353 151.114 132.66C150.674 132.967 150.314 133.413 150.034 134V140H147.234V130ZM159.706 140.2C158.719 140.2 157.832 139.987 157.046 139.56C156.272 139.12 155.666 138.507 155.226 137.72C154.786 136.933 154.566 136.027 154.566 135C154.566 133.987 154.799 133.087 155.266 132.3C155.746 131.513 156.379 130.9 157.166 130.46C157.952 130.02 158.799 129.8 159.706 129.8C160.692 129.8 161.566 130.007 162.326 130.42C163.086 130.833 163.672 131.427 164.086 132.2C164.512 132.973 164.726 133.887 164.726 134.94V135.68H157.206C157.272 136.373 157.532 136.927 157.986 137.34C158.452 137.74 159.046 137.94 159.766 137.94C160.912 137.94 161.672 137.427 162.046 136.4L164.386 136.64L164.526 136.88C164.152 137.987 163.552 138.82 162.726 139.38C161.912 139.927 160.906 140.2 159.706 140.2ZM162.086 133.88C162.019 133.28 161.766 132.8 161.326 132.44C160.886 132.08 160.339 131.9 159.686 131.9C159.099 131.9 158.579 132.08 158.126 132.44C157.686 132.8 157.406 133.28 157.286 133.88H162.086ZM166.609 125.4H169.409V140H166.609V125.4ZM173.183 128.9C172.743 128.9 172.363 128.74 172.043 128.42C171.723 128.1 171.563 127.72 171.563 127.28C171.563 126.84 171.723 126.46 172.043 126.14C172.363 125.82 172.743 125.66 173.183 125.66C173.636 125.66 174.016 125.82 174.323 126.14C174.643 126.46 174.803 126.84 174.803 127.28C174.803 127.72 174.643 128.1 174.323 128.42C174.016 128.74 173.636 128.9 173.183 128.9ZM171.783 130H174.583V140H171.783V130ZM180.401 140.2C179.307 140.2 178.447 139.873 177.821 139.22C177.194 138.567 176.881 137.693 176.881 136.6V130H179.681V136.02C179.681 136.593 179.827 137.033 180.121 137.34C180.414 137.647 180.827 137.8 181.361 137.8C181.841 137.8 182.281 137.667 182.681 137.4C183.081 137.12 183.407 136.753 183.661 136.3V130H186.461V140H183.661V138.76C182.767 139.72 181.681 140.2 180.401 140.2ZM192.633 140.2C191.46 140.2 190.5 139.947 189.753 139.44C189.007 138.92 188.507 138.193 188.253 137.26L188.333 137L190.473 136.36C190.713 137.48 191.433 138.04 192.633 138.04C193.047 138.04 193.387 137.953 193.653 137.78C193.92 137.607 194.053 137.367 194.053 137.06C194.053 136.74 193.9 136.493 193.593 136.32C193.3 136.133 192.72 135.927 191.853 135.7C190.8 135.447 190.007 135.08 189.473 134.6C188.94 134.107 188.673 133.46 188.673 132.66C188.673 132.127 188.82 131.647 189.113 131.22C189.42 130.78 189.847 130.433 190.393 130.18C190.94 129.927 191.567 129.8 192.273 129.8C193.327 129.8 194.187 130.033 194.853 130.5C195.533 130.953 195.973 131.6 196.173 132.44L196.053 132.66L193.933 133.18C193.84 132.713 193.64 132.36 193.333 132.12C193.027 131.867 192.653 131.74 192.213 131.74C191.88 131.74 191.6 131.813 191.373 131.96C191.147 132.093 191.033 132.28 191.033 132.52C191.033 132.813 191.22 133.053 191.593 133.24C191.967 133.427 192.647 133.653 193.633 133.92C194.66 134.2 195.413 134.567 195.893 135.02C196.387 135.473 196.633 136.1 196.633 136.9C196.633 137.513 196.467 138.073 196.133 138.58C195.813 139.087 195.347 139.487 194.733 139.78C194.133 140.06 193.433 140.2 192.633 140.2Z" fill="black"/>
<path d="M137.158 84H140.098L144.258 94.24L148.398 84H151.338V98H148.458V89.9H148.338L148.098 91.6L145.538 98H142.958L140.398 91.6L140.158 89.9H140.038V98H137.158V84ZM158.814 98.2C157.774 98.2 156.841 97.9733 156.014 97.52C155.188 97.0667 154.541 96.4467 154.074 95.66C153.608 94.8733 153.374 93.9867 153.374 93C153.374 92.0133 153.608 91.1267 154.074 90.34C154.541 89.5533 155.188 88.9333 156.014 88.48C156.841 88.0267 157.774 87.8 158.814 87.8C159.868 87.8 160.808 88.0267 161.634 88.48C162.461 88.9333 163.108 89.5533 163.574 90.34C164.041 91.1267 164.274 92.0133 164.274 93C164.274 93.9867 164.041 94.8733 163.574 95.66C163.108 96.4467 162.461 97.0667 161.634 97.52C160.808 97.9733 159.868 98.2 158.814 98.2ZM158.814 95.78C159.588 95.78 160.221 95.5333 160.714 95.04C161.221 94.5333 161.474 93.8533 161.474 93C161.474 92.1467 161.221 91.4733 160.714 90.98C160.221 90.4733 159.588 90.22 158.814 90.22C158.041 90.22 157.408 90.4733 156.914 90.98C156.421 91.4733 156.174 92.1467 156.174 93C156.174 93.8533 156.421 94.5333 156.914 95.04C157.408 95.5333 158.041 95.78 158.814 95.78ZM169.789 98.2C168.855 98.2 168.115 97.9467 167.569 97.44C167.022 96.9333 166.749 96.1733 166.749 95.16V90.32H164.969V88H166.749V85.14H167.109L169.529 85.98V88H171.649V90.32H169.529V94.92C169.529 95.24 169.622 95.4867 169.809 95.66C169.995 95.8333 170.262 95.92 170.609 95.92C170.822 95.92 171.089 95.8733 171.409 95.78L171.549 95.86V98C170.975 98.1333 170.389 98.2 169.789 98.2ZM173.621 83.4H176.421V89.24C176.821 88.8133 177.328 88.4667 177.941 88.2C178.554 87.9333 179.201 87.8 179.881 87.8C180.961 87.8 181.834 88.1133 182.501 88.74C183.168 89.3667 183.501 90.2133 183.501 91.28V98H180.701V91.98C180.701 91.3933 180.534 90.9533 180.201 90.66C179.881 90.3533 179.461 90.2 178.941 90.2C178.448 90.2 177.981 90.3267 177.541 90.58C177.101 90.82 176.728 91.1667 176.421 91.62V98H173.621V83.4ZM190.526 98.2C189.539 98.2 188.653 97.9867 187.866 97.56C187.093 97.12 186.486 96.5067 186.046 95.72C185.606 94.9333 185.386 94.0267 185.386 93C185.386 91.9867 185.619 91.0867 186.086 90.3C186.566 89.5133 187.199 88.9 187.986 88.46C188.773 88.02 189.619 87.8 190.526 87.8C191.513 87.8 192.386 88.0067 193.146 88.42C193.906 88.8333 194.493 89.4267 194.906 90.2C195.333 90.9733 195.546 91.8867 195.546 92.94V93.68H188.026C188.093 94.3733 188.353 94.9267 188.806 95.34C189.273 95.74 189.866 95.94 190.586 95.94C191.733 95.94 192.493 95.4267 192.866 94.4L195.206 94.64L195.346 94.88C194.973 95.9867 194.373 96.82 193.546 97.38C192.733 97.9267 191.726 98.2 190.526 98.2ZM192.906 91.88C192.839 91.28 192.586 90.8 192.146 90.44C191.706 90.08 191.159 89.9 190.506 89.9C189.919 89.9 189.399 90.08 188.946 90.44C188.506 90.8 188.226 91.28 188.106 91.88H192.906ZM197.429 88H200.229V89.2C200.589 88.7733 201.003 88.4333 201.469 88.18C201.936 87.9267 202.449 87.8 203.009 87.8C203.409 87.8 203.729 87.8533 203.969 87.96L203.609 90.16L203.469 90.3C203.203 90.2333 202.976 90.2 202.789 90.2C202.243 90.2 201.749 90.3533 201.309 90.66C200.869 90.9667 200.509 91.4133 200.229 92V98H197.429V88ZM210.049 84H213.349L218.489 92.52L218.729 93.66H218.869V84H221.929V98H218.629L213.489 89.48L213.249 88.34H213.109V98H210.049V84ZM227.18 98.2C226.607 98.2 226.074 98.08 225.58 97.84C225.1 97.5867 224.714 97.2333 224.42 96.78C224.14 96.3133 224 95.7733 224 95.16C224 94.2533 224.314 93.5267 224.94 92.98C225.567 92.42 226.427 92.0867 227.52 91.98L230.22 91.7V91.26C230.22 90.8067 230.074 90.4533 229.78 90.2C229.5 89.9467 229.1 89.82 228.58 89.82C228.114 89.82 227.74 89.9467 227.46 90.2C227.18 90.44 227.007 90.7733 226.94 91.2L224.58 91L224.48 90.88C224.68 89.88 225.154 89.12 225.9 88.6C226.647 88.0667 227.554 87.8 228.62 87.8C229.887 87.8 230.914 88.12 231.7 88.76C232.487 89.3867 232.88 90.2733 232.88 91.42V95C232.88 95.3067 232.94 95.54 233.06 95.7C233.194 95.86 233.374 95.94 233.6 95.94C233.747 95.94 233.874 95.92 233.98 95.88L234.08 96V97.92C233.68 98.0533 233.22 98.12 232.7 98.12C231.62 98.12 230.874 97.6667 230.46 96.76H230.32C229.854 97.24 229.374 97.6 228.88 97.84C228.387 98.08 227.82 98.2 227.18 98.2ZM227.82 96.08C228.3 96.08 228.72 95.96 229.08 95.72C229.454 95.48 229.834 95.1133 230.22 94.62V93.46L228.02 93.74C227.554 93.7933 227.194 93.9333 226.94 94.16C226.7 94.3867 226.58 94.6667 226.58 95C226.58 95.3333 226.694 95.6 226.92 95.8C227.16 95.9867 227.46 96.08 227.82 96.08ZM239.222 98.2C238.289 98.2 237.549 97.9467 237.002 97.44C236.456 96.9333 236.182 96.1733 236.182 95.16V90.32H234.402V88H236.182V85.14H236.542L238.962 85.98V88H241.082V90.32H238.962V94.92C238.962 95.24 239.056 95.4867 239.242 95.66C239.429 95.8333 239.696 95.92 240.042 95.92C240.256 95.92 240.522 95.8733 240.842 95.78L240.982 95.86V98C240.409 98.1333 239.822 98.2 239.222 98.2ZM246.494 98.2C245.401 98.2 244.541 97.8733 243.914 97.22C243.288 96.5667 242.974 95.6933 242.974 94.6V88H245.774V94.02C245.774 94.5933 245.921 95.0333 246.214 95.34C246.508 95.6467 246.921 95.8 247.454 95.8C247.934 95.8 248.374 95.6667 248.774 95.4C249.174 95.12 249.501 94.7533 249.754 94.3V88H252.554V98H249.754V96.76C248.861 97.72 247.774 98.2 246.494 98.2ZM255.027 88H257.827V89.2C258.187 88.7733 258.6 88.4333 259.067 88.18C259.534 87.9267 260.047 87.8 260.607 87.8C261.007 87.8 261.327 87.8533 261.567 87.96L261.207 90.16L261.067 90.3C260.8 90.2333 260.574 90.2 260.387 90.2C259.84 90.2 259.347 90.3533 258.907 90.66C258.467 90.9667 258.107 91.4133 257.827 92V98H255.027V88ZM267.499 98.2C266.512 98.2 265.625 97.9867 264.839 97.56C264.065 97.12 263.459 96.5067 263.019 95.72C262.579 94.9333 262.359 94.0267 262.359 93C262.359 91.9867 262.592 91.0867 263.059 90.3C263.539 89.5133 264.172 88.9 264.959 88.46C265.745 88.02 266.592 87.8 267.499 87.8C268.485 87.8 269.359 88.0067 270.119 88.42C270.879 88.8333 271.465 89.4267 271.879 90.2C272.305 90.9733 272.519 91.8867 272.519 92.94V93.68H264.999C265.065 94.3733 265.325 94.9267 265.779 95.34C266.245 95.74 266.839 95.94 267.559 95.94C268.705 95.94 269.465 95.4267 269.839 94.4L272.179 94.64L272.319 94.88C271.945 95.9867 271.345 96.82 270.519 97.38C269.705 97.9267 268.699 98.2 267.499 98.2ZM269.879 91.88C269.812 91.28 269.559 90.8 269.119 90.44C268.679 90.08 268.132 89.9 267.479 89.9C266.892 89.9 266.372 90.08 265.919 90.44C265.479 90.8 265.199 91.28 265.079 91.88H269.879Z" fill="black"/>
<defs>
<filter id="filter0_d_58592_612" x="0" y="242" width="211" height="80" filterUnits="userSpaceOnUse" color-interpolation-filters="sRGB">
<feFlood flood-opacity="0" result="BackgroundImageFix"/>
<feColorMatrix in="SourceAlpha" type="matrix" values="0 0 0 0 0 0 0 0 0 0 0 0 0 0 0 0 0 0 127 0" result="hardAlpha"/>
<feOffset dy="4"/>
<feGaussianBlur stdDeviation="7.5"/>
<feComposite in2="hardAlpha" operator="out"/>
<feColorMatrix type="matrix" values="0 0 0 0 0 0 0 0 0 0 0 0 0 0 0 0 0 0 0.06 0"/>
<feBlend mode="normal" in2="BackgroundImageFix" result="effect1_dropShadow_58592_612"/>
<feBlend mode="normal" in="SourceGraphic" in2="effect1_dropShadow_58592_612" result="shape"/>
</filter>
<filter id="filter1_d_58592_612" x="114" y="205" width="212" height="80" filterUnits="userSpaceOnUse" color-interpolation-filters="sRGB">
<feFlood flood-opacity="0" result="BackgroundImageFix"/>
<feColorMatrix in="SourceAlpha" type="matrix" values="0 0 0 0 0 0 0 0 0 0 0 0 0 0 0 0 0 0 127 0" result="hardAlpha"/>
<feOffset dy="4"/>
<feGaussianBlur stdDeviation="7.5"/>
<feComposite in2="hardAlpha" operator="out"/>
<feColorMatrix type="matrix" values="0 0 0 0 0 0 0 0 0 0 0 0 0 0 0 0 0 0 0.06 0"/>
<feBlend mode="normal" in2="BackgroundImageFix" result="effect1_dropShadow_58592_612"/>
<feBlend mode="normal" in="SourceGraphic" in2="effect1_dropShadow_58592_612" result="shape"/>
</filter>
<filter id="filter2_d_58592_612" x="14" y="96" width="212" height="80" filterUnits="userSpaceOnUse" color-interpolation-filters="sRGB">
<feFlood flood-opacity="0" result="BackgroundImageFix"/>
<feColorMatrix in="SourceAlpha" type="matrix" values="0 0 0 0 0 0 0 0 0 0 0 0 0 0 0 0 0 0 127 0" result="hardAlpha"/>
<feOffset dy="4"/>
<feGaussianBlur stdDeviation="7.5"/>
<feComposite in2="hardAlpha" operator="out"/>
<feColorMatrix type="matrix" values="0 0 0 0 0 0 0 0 0 0 0 0 0 0 0 0 0 0 0.06 0"/>
<feBlend mode="normal" in2="BackgroundImageFix" result="effect1_dropShadow_58592_612"/>
<feBlend mode="normal" in="SourceGraphic" in2="effect1_dropShadow_58592_612" result="shape"/>
</filter>
<filter id="filter3_d_58592_612" x="96" y="55" width="211" height="80" filterUnits="userSpaceOnUse" color-interpolation-filters="sRGB">
<feFlood flood-opacity="0" result="BackgroundImageFix"/>
<feColorMatrix in="SourceAlpha" type="matrix" values="0 0 0 0 0 0 0 0 0 0 0 0 0 0 0 0 0 0 127 0" result="hardAlpha"/>
<feOffset dy="4"/>
<feGaussianBlur stdDeviation="7.5"/>
<feComposite in2="hardAlpha" operator="out"/>
<feColorMatrix type="matrix" values="0 0 0 0 0 0 0 0 0 0 0 0 0 0 0 0 0 0 0.06 0"/>
<feBlend mode="normal" in2="BackgroundImageFix" result="effect1_dropShadow_58592_612"/>
<feBlend mode="normal" in="SourceGraphic" in2="effect1_dropShadow_58592_612" result="shape"/>
</filter>
</defs>
</svg>
