<svg width="388" height="371" viewBox="0 0 388 371" fill="none" xmlns="http://www.w3.org/2000/svg">
<path d="M3 270.004C22.982 270.004 78.7175 270.004 103.311 270.004C127.904 270.004 171.822 270.004 233.305 270.004C294.788 270.004 289.048 270.004 326.963 270.004C364.877 270.004 347.434 270.004 384 270.004" stroke="#D0D0D0" stroke-width="1.5"/>
<path opacity="0.2" d="M315.137 263.797L315.653 262.273H319.073L319.613 263.797H321.185L318.077 255.397H316.661L313.553 263.797H315.137ZM317.213 257.797L317.357 256.885H317.393L317.525 257.797L318.617 260.965H316.109L317.213 257.797ZM324.787 263.797L327.091 257.797H325.615L324.247 261.469L324.055 262.501H324.007L323.815 261.469L322.447 257.797H320.971L323.287 263.797H324.787ZM330.492 263.917C331.956 263.917 332.94 263.173 333.324 261.829L333.288 261.769L332.088 261.697C331.872 262.333 331.368 262.753 330.516 262.753C329.556 262.753 328.884 262.153 328.824 261.169H333.42V260.749C333.42 258.817 332.196 257.677 330.492 257.677C328.896 257.677 327.492 258.925 327.492 260.797C327.492 262.669 328.692 263.917 330.492 263.917ZM328.848 260.173C329.016 259.297 329.676 258.793 330.492 258.793C331.356 258.793 332.04 259.285 332.124 260.173H328.848ZM335.945 263.797V259.993C336.317 259.261 336.905 258.877 337.565 258.877C337.757 258.877 337.865 258.889 337.961 258.913L338.009 258.877L338.189 257.773C338.069 257.713 337.889 257.677 337.673 257.677C336.929 257.677 336.353 258.073 335.945 258.541V257.797H334.577V263.797H335.945ZM340.498 263.917C341.326 263.917 341.986 263.497 342.454 262.993H342.49C342.718 263.653 343.234 263.869 343.762 263.869C343.99 263.869 344.218 263.845 344.518 263.749V262.765L344.482 262.741C344.374 262.765 344.302 262.777 344.218 262.777C343.894 262.777 343.738 262.561 343.738 262.177V259.717C343.738 258.433 342.73 257.677 341.302 257.677C340.126 257.677 339.094 258.289 338.866 259.561L338.89 259.609L340.114 259.669C340.222 259.069 340.642 258.769 341.254 258.769C341.938 258.769 342.406 259.081 342.406 259.729V260.053L340.666 260.233C339.466 260.353 338.59 260.989 338.59 262.129C338.59 263.233 339.43 263.917 340.498 263.917ZM340.75 262.801C340.27 262.801 339.898 262.549 339.898 262.057C339.898 261.625 340.21 261.277 340.846 261.193L342.406 261.013V261.889C341.926 262.441 341.422 262.801 340.75 262.801ZM348.036 266.317C349.896 266.317 350.94 265.297 350.94 263.665V257.797H349.608V258.385C349.248 258.025 348.672 257.677 347.808 257.677C346.32 257.677 344.988 258.817 344.988 260.737C344.988 262.657 346.236 263.797 347.796 263.797C348.612 263.797 349.104 263.557 349.608 263.101V263.653C349.608 264.529 349.152 265.165 348.048 265.165C347.256 265.165 346.884 264.805 346.764 264.337L345.42 264.421L345.36 264.481C345.54 265.477 346.38 266.317 348.036 266.317ZM348.012 262.645C347.112 262.645 346.32 262.117 346.32 260.737C346.32 259.357 347.112 258.829 348.012 258.829C348.888 258.829 349.608 259.465 349.608 260.401V261.097C349.608 261.997 348.984 262.645 348.012 262.645ZM355.16 263.917C356.624 263.917 357.608 263.173 357.992 261.829L357.956 261.769L356.756 261.697C356.54 262.333 356.036 262.753 355.184 262.753C354.224 262.753 353.552 262.153 353.492 261.169H358.088V260.749C358.088 258.817 356.864 257.677 355.16 257.677C353.564 257.677 352.16 258.925 352.16 260.797C352.16 262.669 353.36 263.917 355.16 263.917ZM353.516 260.173C353.684 259.297 354.344 258.793 355.16 258.793C356.024 258.793 356.708 259.285 356.792 260.173H353.516Z" fill="#141414"/>
<path d="M3 230.717C84.0113 171.463 123.806 206.614 197.237 236.241C270.669 265.868 289.145 189.039 382 180" stroke="#D0D0D0" stroke-width="6" stroke-linecap="round"/>
<path d="M4 305C72.5671 305 64.8002 222.882 132.208 173.311C199.616 123.74 235.386 254.929 331 225.621" stroke="#99B9D5" stroke-width="6" stroke-linecap="round"/>
<path d="M113.032 367.004V359.924H115.156V358.604H109.408V359.924H111.532V367.004H113.032ZM117.699 367.004V363.032C118.107 362.456 118.743 362.084 119.391 362.084C120.075 362.084 120.567 362.468 120.567 363.224V367.004H121.935V362.912C121.935 361.664 121.107 360.884 119.823 360.884C118.935 360.884 118.143 361.304 117.699 361.76V358.244H116.331V367.004H117.699ZM124.08 360.224C124.548 360.224 124.932 359.84 124.932 359.372C124.932 358.904 124.548 358.52 124.08 358.52C123.612 358.52 123.228 358.904 123.228 359.372C123.228 359.84 123.612 360.224 124.08 360.224ZM124.764 367.004V361.004H123.396V367.004H124.764ZM128.416 367.124C129.844 367.124 130.756 366.272 130.756 365.156C130.756 364.208 130.108 363.728 128.896 363.404C127.792 363.104 127.324 362.9 127.324 362.492C127.324 362.108 127.756 361.928 128.188 361.928C128.776 361.928 129.196 362.24 129.304 362.84L130.468 362.684L130.492 362.624C130.324 361.496 129.484 360.884 128.2 360.884C126.952 360.884 126.1 361.64 126.1 362.552C126.1 363.512 126.736 364.028 127.936 364.328C129.052 364.604 129.46 364.82 129.46 365.276C129.46 365.732 128.992 365.996 128.44 365.996C127.552 365.996 127.18 365.588 127.036 364.976L125.896 365.168L125.872 365.24C126.088 366.416 126.988 367.124 128.416 367.124ZM137.219 367.004L138.383 362.66L139.559 367.004H141.035L142.823 361.004H141.407L140.423 364.472L140.267 365.48H140.243L140.063 364.472L139.043 361.004H137.735L136.691 364.472L136.523 365.48H136.499L136.343 364.472L135.371 361.004H133.943L135.743 367.004H137.219ZM146.358 367.124C147.822 367.124 148.806 366.38 149.19 365.036L149.154 364.976L147.954 364.904C147.738 365.54 147.234 365.96 146.382 365.96C145.422 365.96 144.75 365.36 144.69 364.376H149.286V363.956C149.286 362.024 148.062 360.884 146.358 360.884C144.762 360.884 143.358 362.132 143.358 364.004C143.358 365.876 144.558 367.124 146.358 367.124ZM144.714 363.38C144.882 362.504 145.542 362 146.358 362C147.222 362 147.906 362.492 147.99 363.38H144.714ZM153.132 367.124C154.596 367.124 155.58 366.38 155.964 365.036L155.928 364.976L154.728 364.904C154.512 365.54 154.008 365.96 153.156 365.96C152.196 365.96 151.524 365.36 151.464 364.376H156.06V363.956C156.06 362.024 154.836 360.884 153.132 360.884C151.536 360.884 150.132 362.132 150.132 364.004C150.132 365.876 151.332 367.124 153.132 367.124ZM151.488 363.38C151.656 362.504 152.316 362 153.132 362C153.996 362 154.68 362.492 154.764 363.38H151.488ZM158.585 367.004V364.4H158.633L160.745 367.004H162.413L159.737 363.668L162.221 361.004H160.541L158.633 363.068H158.585V358.244H157.217V367.004H158.585Z" fill="#B2B2B2"/>
<path d="M221.316 367.004V364.232H222.936C224.856 364.232 226.152 363.188 226.152 361.412C226.152 359.648 224.856 358.604 222.936 358.604H219.816V367.004H221.316ZM221.316 359.924H222.888C224.016 359.924 224.652 360.38 224.652 361.412C224.652 362.456 224.016 362.912 222.888 362.912H221.316V359.924ZM228.648 367.004V363.2C229.02 362.468 229.608 362.084 230.268 362.084C230.46 362.084 230.568 362.096 230.664 362.12L230.712 362.084L230.892 360.98C230.772 360.92 230.592 360.884 230.376 360.884C229.632 360.884 229.056 361.28 228.648 361.748V361.004H227.28V367.004H228.648ZM234.386 367.124C235.85 367.124 236.834 366.38 237.218 365.036L237.182 364.976L235.982 364.904C235.766 365.54 235.262 365.96 234.41 365.96C233.45 365.96 232.778 365.36 232.718 364.376H237.314V363.956C237.314 362.024 236.09 360.884 234.386 360.884C232.79 360.884 231.386 362.132 231.386 364.004C231.386 365.876 232.586 367.124 234.386 367.124ZM232.742 363.38C232.91 362.504 233.57 362 234.386 362C235.25 362 235.934 362.492 236.018 363.38H232.742ZM241.466 367.004L243.77 361.004H242.294L240.926 364.676L240.734 365.708H240.686L240.494 364.676L239.126 361.004H237.65L239.966 367.004H241.466ZM245.436 360.224C245.904 360.224 246.288 359.84 246.288 359.372C246.288 358.904 245.904 358.52 245.436 358.52C244.968 358.52 244.584 358.904 244.584 359.372C244.584 359.84 244.968 360.224 245.436 360.224ZM246.12 367.004V361.004H244.752V367.004H246.12ZM250.503 367.124C252.375 367.124 253.671 365.792 253.671 364.004C253.671 362.216 252.375 360.884 250.503 360.884C248.619 360.884 247.323 362.216 247.323 364.004C247.323 365.792 248.619 367.124 250.503 367.124ZM250.503 365.912C249.483 365.912 248.691 365.228 248.691 364.004C248.691 362.78 249.483 362.096 250.503 362.096C251.523 362.096 252.303 362.78 252.303 364.004C252.303 365.228 251.523 365.912 250.503 365.912ZM256.893 367.124C257.769 367.124 258.489 366.716 258.933 366.236V367.004H260.301V361.004H258.933V364.916C258.561 365.492 257.997 365.924 257.349 365.924C256.629 365.924 256.221 365.516 256.221 364.784V361.004H254.853V365.048C254.853 366.308 255.585 367.124 256.893 367.124ZM263.974 367.124C265.402 367.124 266.314 366.272 266.314 365.156C266.314 364.208 265.666 363.728 264.454 363.404C263.35 363.104 262.882 362.9 262.882 362.492C262.882 362.108 263.314 361.928 263.746 361.928C264.334 361.928 264.754 362.24 264.862 362.84L266.026 362.684L266.05 362.624C265.882 361.496 265.042 360.884 263.758 360.884C262.51 360.884 261.658 361.64 261.658 362.552C261.658 363.512 262.294 364.028 263.494 364.328C264.61 364.604 265.018 364.82 265.018 365.276C265.018 365.732 264.55 365.996 263.998 365.996C263.11 365.996 262.738 365.588 262.594 364.976L261.454 365.168L261.43 365.24C261.646 366.416 262.546 367.124 263.974 367.124ZM272.778 367.004L273.942 362.66L275.118 367.004H276.594L278.382 361.004H276.966L275.982 364.472L275.826 365.48H275.802L275.622 364.472L274.602 361.004H273.294L272.25 364.472L272.082 365.48H272.058L271.902 364.472L270.93 361.004H269.502L271.302 367.004H272.778ZM281.917 367.124C283.381 367.124 284.365 366.38 284.749 365.036L284.713 364.976L283.513 364.904C283.297 365.54 282.793 365.96 281.941 365.96C280.981 365.96 280.309 365.36 280.249 364.376H284.845V363.956C284.845 362.024 283.621 360.884 281.917 360.884C280.321 360.884 278.917 362.132 278.917 364.004C278.917 365.876 280.117 367.124 281.917 367.124ZM280.273 363.38C280.441 362.504 281.101 362 281.917 362C282.781 362 283.465 362.492 283.549 363.38H280.273ZM288.69 367.124C290.154 367.124 291.138 366.38 291.522 365.036L291.486 364.976L290.286 364.904C290.07 365.54 289.566 365.96 288.714 365.96C287.754 365.96 287.082 365.36 287.022 364.376H291.618V363.956C291.618 362.024 290.394 360.884 288.69 360.884C287.094 360.884 285.69 362.132 285.69 364.004C285.69 365.876 286.89 367.124 288.69 367.124ZM287.046 363.38C287.214 362.504 287.874 362 288.69 362C289.554 362 290.238 362.492 290.322 363.38H287.046ZM294.144 367.004V364.4H294.192L296.304 367.004H297.972L295.296 363.668L297.78 361.004H296.1L294.192 363.068H294.144V358.244H292.776V367.004H294.144Z" fill="#B2B2B2"/>
<circle cx="207.5" cy="362.504" r="4.5" fill="#D0D0D0"/>
<circle cx="97.5" cy="362.504" r="4.5" fill="#99B9D5"/>
<path opacity="0.2" d="M288.971 331.12C290.783 331.12 292.211 330.076 292.211 328.3C292.211 326.632 290.987 326.02 289.595 325.684C288.479 325.42 287.723 325.216 287.723 324.58C287.723 324.112 288.167 323.812 288.803 323.812C289.631 323.812 290.099 324.304 290.195 325.084L291.743 324.916L291.839 324.784C291.647 323.452 290.651 322.48 288.827 322.48C287.195 322.48 285.983 323.308 285.983 324.688C285.983 326.032 287.039 326.632 288.479 326.98C289.547 327.232 290.411 327.46 290.411 328.42C290.411 329.2 289.847 329.608 289.067 329.608C288.191 329.608 287.519 329.08 287.423 328.084L285.755 328.336L285.659 328.468C285.803 330.04 287.147 331.12 288.971 331.12Z" fill="#0A0A0A"/>
<path opacity="0.2" d="M48.9751 331V326.14H49.0471L49.1911 327.16L50.7271 331H52.2751L53.8111 327.16L53.9551 326.14H54.0271V331H55.7551V322.6H53.9911L51.5071 328.744L49.0111 322.6H47.2471V331H48.9751Z" fill="#0A0A0A"/>
<path opacity="0.3" d="M100.916 331V324.16H103.028V322.6H96.968V324.16H99.08V331H100.916Z" fill="#141414"/>
<path opacity="0.2" d="M146.894 331L148.502 325.06L150.11 331H151.994L154.43 322.6H152.486L151.202 327.556L151.034 328.672H150.962L150.806 327.556L149.366 322.6H147.638L146.21 327.556L146.042 328.672H145.97L145.814 327.556L144.518 322.6H142.574L145.01 331H146.894Z" fill="#0A0A0A"/>
<path opacity="0.2" d="M197.916 331V324.16H200.028V322.6H193.968V324.16H196.08V331H197.916Z" fill="black"/>
<path opacity="0.2" d="M242.136 331V327.676H245.7V326.104H242.136V324.16H246.012V322.6H240.3V331H242.136Z" fill="black"/>
<rect x="75" y="1.35547" width="44" height="44" rx="22" fill="#99B9D5"/>
<path d="M137.569 17V10.115H137.671L137.875 11.56L140.051 17H142.244L144.42 11.56L144.624 10.115H144.726V17H147.174V5.1H144.675L141.156 13.804L137.62 5.1H135.121V17H137.569ZM153.529 17.17C156.249 17.17 158.17 15.283 158.17 12.75C158.17 10.217 156.249 8.33 153.529 8.33C150.826 8.33 148.905 10.217 148.905 12.75C148.905 15.283 150.826 17.17 153.529 17.17ZM153.529 15.113C152.237 15.113 151.285 14.229 151.285 12.75C151.285 11.271 152.237 10.387 153.529 10.387C154.821 10.387 155.79 11.271 155.79 12.75C155.79 14.229 154.821 15.113 153.529 15.113ZM164.021 17.17C166.741 17.17 168.662 15.283 168.662 12.75C168.662 10.217 166.741 8.33 164.021 8.33C161.318 8.33 159.397 10.217 159.397 12.75C159.397 15.283 161.318 17.17 164.021 17.17ZM164.021 15.113C162.729 15.113 161.777 14.229 161.777 12.75C161.777 11.271 162.729 10.387 164.021 10.387C165.313 10.387 166.282 11.271 166.282 12.75C166.282 14.229 165.313 15.113 164.021 15.113ZM173.97 17.17C175.211 17.17 176.044 16.711 176.605 16.116V17H178.985V4.59H176.605V9.197C175.976 8.687 175.177 8.33 174.106 8.33C172.015 8.33 169.89 9.758 169.89 12.75C169.89 15.742 172.083 17.17 173.97 17.17ZM174.531 15.198C173.256 15.198 172.304 14.348 172.304 12.75C172.304 11.152 173.256 10.302 174.514 10.302C175.67 10.302 176.605 11.084 176.605 12.342V13.158C176.605 14.433 175.67 15.198 174.531 15.198Z" fill="black"/>
<path opacity="0.5" d="M138.199 38H136.414V29.825C135.934 30.245 135.379 30.365 134.374 30.365V28.85H134.584C135.679 28.85 136.294 28.46 136.414 27.5H138.199V38ZM144.344 38.15C141.614 38.15 139.934 35.915 139.934 32.75C139.934 29.585 141.614 27.35 144.344 27.35C147.059 27.35 148.754 29.585 148.754 32.75C148.754 35.915 147.059 38.15 144.344 38.15ZM144.344 36.5C146.054 36.5 146.939 35.045 146.939 32.75C146.939 30.455 146.054 29 144.344 29C142.634 29 141.749 30.455 141.749 32.75C141.749 35.045 142.634 36.5 144.344 36.5ZM152.588 32.51C151.073 32.51 150.038 31.415 150.038 29.93C150.038 28.445 151.073 27.35 152.588 27.35C154.103 27.35 155.138 28.445 155.138 29.93C155.138 31.415 154.103 32.51 152.588 32.51ZM160.043 28.37L152.138 37.925L151.178 37.13L159.083 27.575L160.043 28.37ZM152.588 31.34C153.338 31.34 153.923 30.86 153.923 29.93C153.923 29 153.338 28.52 152.588 28.52C151.838 28.52 151.253 29 151.253 29.93C151.253 30.86 151.838 31.34 152.588 31.34ZM158.648 38.15C157.133 38.15 156.098 37.055 156.098 35.57C156.098 34.085 157.133 32.99 158.648 32.99C160.163 32.99 161.198 34.085 161.198 35.57C161.198 37.055 160.163 38.15 158.648 38.15ZM158.648 36.98C159.398 36.98 159.983 36.5 159.983 35.57C159.983 34.64 159.398 34.16 158.648 34.16C157.898 34.16 157.313 34.64 157.313 35.57C157.313 36.5 157.898 36.98 158.648 36.98ZM169.992 38.15C168.852 38.15 168.087 37.685 167.592 37.175V38H165.882V27.05H167.592V31.25C168.162 30.725 168.972 30.35 169.992 30.35C171.867 30.35 173.472 31.73 173.472 34.25C173.472 36.77 171.747 38.15 169.992 38.15ZM169.602 36.68C170.787 36.68 171.747 35.9 171.747 34.25C171.747 32.6 170.787 31.82 169.602 31.82C168.507 31.82 167.592 32.63 167.592 33.71V34.805C167.592 35.885 168.537 36.68 169.602 36.68ZM178.368 38.15C176.118 38.15 174.618 36.59 174.618 34.25C174.618 31.91 176.373 30.35 178.368 30.35C180.498 30.35 182.028 31.775 182.028 34.19V34.715H176.283C176.358 35.945 177.198 36.695 178.398 36.695C179.463 36.695 180.093 36.17 180.363 35.375L181.863 35.465L181.908 35.54C181.428 37.22 180.198 38.15 178.368 38.15ZM176.313 33.47H180.408C180.303 32.36 179.448 31.745 178.368 31.745C177.348 31.745 176.523 32.375 176.313 33.47ZM186.149 38.15C184.919 38.15 184.079 37.475 184.079 36.065V31.97H182.684V30.5H184.079V28.295H184.214L185.804 28.85V30.5H187.484V31.97H185.804V35.915C185.804 36.41 186.089 36.695 186.659 36.695C186.944 36.695 187.124 36.665 187.364 36.605L187.409 36.635V38C186.974 38.105 186.659 38.15 186.149 38.15ZM191.847 38.15C190.617 38.15 189.777 37.475 189.777 36.065V31.97H188.382V30.5H189.777V28.295H189.912L191.502 28.85V30.5H193.182V31.97H191.502V35.915C191.502 36.41 191.787 36.695 192.357 36.695C192.642 36.695 192.822 36.665 193.062 36.605L193.107 36.635V38C192.672 38.105 192.357 38.15 191.847 38.15ZM197.88 38.15C195.63 38.15 194.13 36.59 194.13 34.25C194.13 31.91 195.885 30.35 197.88 30.35C200.01 30.35 201.54 31.775 201.54 34.19V34.715H195.795C195.87 35.945 196.71 36.695 197.91 36.695C198.975 36.695 199.605 36.17 199.875 35.375L201.375 35.465L201.42 35.54C200.94 37.22 199.71 38.15 197.88 38.15ZM195.825 33.47H199.92C199.815 32.36 198.96 31.745 197.88 31.745C196.86 31.745 196.035 32.375 195.825 33.47ZM204.697 38H202.987V30.5H204.697V31.43C205.207 30.845 205.927 30.35 206.857 30.35C207.127 30.35 207.352 30.395 207.502 30.47L207.277 31.85L207.217 31.895C207.097 31.865 206.962 31.85 206.722 31.85C205.897 31.85 205.162 32.33 204.697 33.245V38ZM214.875 38.15C213.645 38.15 212.805 37.475 212.805 36.065V31.97H211.41V30.5H212.805V28.295H212.94L214.53 28.85V30.5H216.21V31.97H214.53V35.915C214.53 36.41 214.815 36.695 215.385 36.695C215.67 36.695 215.85 36.665 216.09 36.605L216.135 36.635V38C215.7 38.105 215.385 38.15 214.875 38.15ZM219.433 38H217.723V27.05H219.433V31.445C219.988 30.875 220.978 30.35 222.088 30.35C223.693 30.35 224.728 31.325 224.728 32.885V38H223.018V33.275C223.018 32.33 222.403 31.85 221.548 31.85C220.738 31.85 219.943 32.315 219.433 33.035V38ZM228.61 38.15C227.275 38.15 226.225 37.295 226.225 35.915C226.225 34.49 227.32 33.695 228.82 33.545L230.995 33.32V32.915C230.995 32.105 230.41 31.715 229.555 31.715C228.79 31.715 228.265 32.09 228.13 32.84L226.6 32.765L226.57 32.705C226.855 31.115 228.145 30.35 229.615 30.35C231.4 30.35 232.66 31.295 232.66 32.9V35.975C232.66 36.455 232.855 36.725 233.26 36.725C233.365 36.725 233.455 36.71 233.59 36.68L233.635 36.71V37.94C233.26 38.06 232.975 38.09 232.69 38.09C232.03 38.09 231.385 37.82 231.1 36.995H231.055C230.47 37.625 229.645 38.15 228.61 38.15ZM228.925 36.755C229.765 36.755 230.395 36.305 230.995 35.615V34.52L229.045 34.745C228.25 34.85 227.86 35.285 227.86 35.825C227.86 36.44 228.325 36.755 228.925 36.755ZM236.718 38H235.008V30.5H236.718V31.475C237.273 30.89 238.188 30.35 239.283 30.35C240.918 30.35 241.818 31.37 241.818 32.84V38H240.108V33.275C240.108 32.36 239.628 31.85 238.728 31.85C237.918 31.85 237.183 32.42 236.718 33.11V38ZM248.539 38H246.829V27.05H248.539V38ZM252.487 38.15C251.152 38.15 250.102 37.295 250.102 35.915C250.102 34.49 251.197 33.695 252.697 33.545L254.872 33.32V32.915C254.872 32.105 254.287 31.715 253.432 31.715C252.667 31.715 252.142 32.09 252.007 32.84L250.477 32.765L250.447 32.705C250.732 31.115 252.022 30.35 253.492 30.35C255.277 30.35 256.537 31.295 256.537 32.9V35.975C256.537 36.455 256.732 36.725 257.137 36.725C257.242 36.725 257.332 36.71 257.467 36.68L257.512 36.71V37.94C257.137 38.06 256.852 38.09 256.567 38.09C255.907 38.09 255.262 37.82 254.977 36.995H254.932C254.347 37.625 253.522 38.15 252.487 38.15ZM252.802 36.755C253.642 36.755 254.272 36.305 254.872 35.615V34.52L252.922 34.745C252.127 34.85 251.737 35.285 251.737 35.825C251.737 36.44 252.202 36.755 252.802 36.755ZM261.453 38.15C259.668 38.15 258.543 37.265 258.273 35.795L258.303 35.705L259.728 35.465C259.908 36.23 260.373 36.74 261.483 36.74C262.173 36.74 262.758 36.41 262.758 35.84C262.758 35.27 262.248 35 260.853 34.655C259.353 34.28 258.558 33.635 258.558 32.435C258.558 31.295 259.623 30.35 261.183 30.35C262.788 30.35 263.838 31.115 264.048 32.525L264.018 32.6L262.563 32.795C262.428 32.045 261.903 31.655 261.168 31.655C260.628 31.655 260.088 31.88 260.088 32.36C260.088 32.87 260.673 33.125 262.053 33.5C263.568 33.905 264.378 34.505 264.378 35.69C264.378 37.085 263.238 38.15 261.453 38.15ZM268.488 38.15C267.258 38.15 266.418 37.475 266.418 36.065V31.97H265.023V30.5H266.418V28.295H266.553L268.143 28.85V30.5H269.823V31.97H268.143V35.915C268.143 36.41 268.428 36.695 268.998 36.695C269.283 36.695 269.463 36.665 269.703 36.605L269.748 36.635V38C269.313 38.105 268.998 38.15 268.488 38.15ZM277.921 38H276.076L273.826 30.5H275.611L276.826 34.835L277.021 36.095H277.051L277.261 34.835L278.566 30.5H280.201L281.476 34.835L281.701 36.095H281.731L281.926 34.835L283.156 30.5H284.926L282.691 38H280.846L279.376 32.57L277.921 38ZM289.345 38.15C287.095 38.15 285.595 36.59 285.595 34.25C285.595 31.91 287.35 30.35 289.345 30.35C291.475 30.35 293.005 31.775 293.005 34.19V34.715H287.26C287.335 35.945 288.175 36.695 289.375 36.695C290.44 36.695 291.07 36.17 291.34 35.375L292.84 35.465L292.885 35.54C292.405 37.22 291.175 38.15 289.345 38.15ZM287.29 33.47H291.385C291.28 32.36 290.425 31.745 289.345 31.745C288.325 31.745 287.5 32.375 287.29 33.47ZM297.811 38.15C295.561 38.15 294.061 36.59 294.061 34.25C294.061 31.91 295.816 30.35 297.811 30.35C299.941 30.35 301.471 31.775 301.471 34.19V34.715H295.726C295.801 35.945 296.641 36.695 297.841 36.695C298.906 36.695 299.536 36.17 299.806 35.375L301.306 35.465L301.351 35.54C300.871 37.22 299.641 38.15 297.811 38.15ZM295.756 33.47H299.851C299.746 32.36 298.891 31.745 297.811 31.745C296.791 31.745 295.966 32.375 295.756 33.47ZM304.628 38H302.918V27.05H304.628V33.08H304.688L307.073 30.5H309.173L306.068 33.83L309.413 38H307.328L304.688 34.745H304.628V38Z" fill="black"/>
<rect x="90.2637" y="26.0742" width="9.49709" height="1.5" transform="rotate(-45 90.2637 26.0742)" fill="white"/>
<rect x="102.635" y="27.1367" width="9.50186" height="1.5" transform="rotate(-135 102.635 27.1367)" fill="white"/>
<rect x="75" y="62.3516" width="44" height="44" rx="22" fill="#99B9D5"/>
<path d="M137.722 79.9961V76.2391H139.881C142.669 76.2391 144.573 74.7431 144.573 72.1761C144.573 69.5921 142.669 68.0961 139.881 68.0961H135.121V79.9961H137.722ZM137.722 70.3061H139.728C141.156 70.3061 141.972 70.8501 141.972 72.1761C141.972 73.4851 141.156 74.0291 139.728 74.0291H137.722V70.3061ZM148.49 79.9961V74.8961C148.966 73.8761 149.748 73.3661 150.666 73.3661C150.904 73.3661 151.108 73.4171 151.244 73.4511L151.363 73.3321L151.669 71.4621C151.482 71.3771 151.193 71.3261 150.853 71.3261C149.85 71.3261 149.051 71.8361 148.49 72.5161V71.4961H146.11V79.9961H148.49ZM156.966 80.1661C159.686 80.1661 161.607 78.2791 161.607 75.7461C161.607 73.2131 159.686 71.3261 156.966 71.3261C154.263 71.3261 152.342 73.2131 152.342 75.7461C152.342 78.2791 154.263 80.1661 156.966 80.1661ZM156.966 78.1091C155.674 78.1091 154.722 77.2251 154.722 75.7461C154.722 74.2671 155.674 73.3831 156.966 73.3831C158.258 73.3831 159.227 74.2671 159.227 75.7461C159.227 77.2251 158.258 78.1091 156.966 78.1091ZM166.914 80.1661C168.155 80.1661 168.988 79.7071 169.549 79.1121V79.9961H171.929V67.5861H169.549V72.1931C168.92 71.6831 168.121 71.3261 167.05 71.3261C164.959 71.3261 162.834 72.7541 162.834 75.7461C162.834 78.7381 165.027 80.1661 166.914 80.1661ZM167.475 78.1941C166.2 78.1941 165.248 77.3441 165.248 75.7461C165.248 74.1481 166.2 73.2981 167.458 73.2981C168.614 73.2981 169.549 74.0801 169.549 75.3381V76.1541C169.549 77.4291 168.614 78.1941 167.475 78.1941ZM176.958 80.1661C178.182 80.1661 179.066 79.6561 179.729 78.9421V79.9961H182.109V71.4961H179.729V76.8511C179.321 77.5991 178.607 78.1261 177.774 78.1261C176.873 78.1261 176.346 77.5991 176.346 76.6131V71.4961H173.966V77.1061C173.966 78.9421 175.071 80.1661 176.958 80.1661ZM188.222 80.1661C190.398 80.1661 191.877 79.0271 192.387 76.9871L192.251 76.8341L190.279 76.6301C189.973 77.5481 189.378 78.1091 188.222 78.1091C187.015 78.1091 186.08 77.2931 186.08 75.7461C186.08 74.1991 187.015 73.3831 188.222 73.3831C189.378 73.3831 190.058 73.9951 190.279 74.8621L192.251 74.6581L192.387 74.4881C192.013 72.5671 190.483 71.3261 188.222 71.3261C185.74 71.3261 183.768 73.1281 183.768 75.7461C183.768 78.3641 185.74 80.1661 188.222 80.1661ZM197.156 80.1661C197.751 80.1661 198.142 80.1151 198.652 79.9961V78.1771L198.533 78.1091C198.295 78.1771 198.125 78.2281 197.853 78.2281C197.275 78.2281 196.935 77.9391 196.935 77.3781V73.4681H198.737V71.4961H196.935V69.7791L194.878 69.0651H194.572V71.4961H193.059V73.4681H194.572V77.5821C194.572 79.3841 195.643 80.1661 197.156 80.1661ZM201.519 70.5611C202.284 70.5611 202.896 69.9321 202.896 69.1841C202.896 68.4361 202.284 67.8071 201.519 67.8071C200.771 67.8071 200.142 68.4361 200.142 69.1841C200.142 69.9321 200.771 70.5611 201.519 70.5611ZM202.709 79.9961V71.4961H200.329V79.9961H202.709ZM209.864 79.9961L213.128 71.4961H210.544L208.827 76.1711L208.606 77.6841H208.504L208.283 76.1711L206.566 71.4961H203.982L207.229 79.9961H209.864ZM215.597 70.5611C216.362 70.5611 216.974 69.9321 216.974 69.1841C216.974 68.4361 216.362 67.8071 215.597 67.8071C214.849 67.8071 214.22 68.4361 214.22 69.1841C214.22 69.9321 214.849 70.5611 215.597 70.5611ZM216.787 79.9961V71.4961H214.407V79.9961H216.787ZM222.208 80.1661C222.803 80.1661 223.194 80.1151 223.704 79.9961V78.1771L223.585 78.1091C223.347 78.1771 223.177 78.2281 222.905 78.2281C222.327 78.2281 221.987 77.9391 221.987 77.3781V73.4681H223.789V71.4961H221.987V69.7791L219.93 69.0651H219.624V71.4961H218.111V73.4681H219.624V77.5821C219.624 79.3841 220.695 80.1661 222.208 80.1661ZM229.239 83.3961L234.067 71.4961H231.551L229.392 76.9701H229.256L229.171 75.7291L227.437 71.4961H224.717L228.219 79.7751L226.757 83.3961H229.239Z" fill="black"/>
<path opacity="0.5" d="M138.484 101.146C136.354 101.146 134.764 99.7961 134.569 97.8311L134.629 97.7111L136.339 97.5461C136.459 98.5811 137.149 99.5561 138.484 99.5561C139.849 99.5561 140.674 98.7161 140.674 97.2911C140.674 95.8211 139.729 95.0561 138.514 95.0561C137.359 95.0561 136.564 95.5361 136.114 95.8811L134.839 95.2511L135.514 90.4961H141.694V92.0261H136.879L136.489 94.2311C137.044 93.8711 137.899 93.5711 138.829 93.5711C141.064 93.5711 142.489 94.9661 142.489 97.2311C142.489 99.3461 141.004 101.146 138.484 101.146ZM146.333 95.5061C144.818 95.5061 143.783 94.4111 143.783 92.9261C143.783 91.4411 144.818 90.3461 146.333 90.3461C147.848 90.3461 148.883 91.4411 148.883 92.9261C148.883 94.4111 147.848 95.5061 146.333 95.5061ZM153.788 91.3661L145.883 100.921L144.923 100.126L152.828 90.5711L153.788 91.3661ZM146.333 94.3361C147.083 94.3361 147.668 93.8561 147.668 92.9261C147.668 91.9961 147.083 91.5161 146.333 91.5161C145.583 91.5161 144.998 91.9961 144.998 92.9261C144.998 93.8561 145.583 94.3361 146.333 94.3361ZM152.393 101.146C150.878 101.146 149.843 100.051 149.843 98.5661C149.843 97.0811 150.878 95.9861 152.393 95.9861C153.908 95.9861 154.943 97.0811 154.943 98.5661C154.943 100.051 153.908 101.146 152.393 101.146ZM152.393 99.9761C153.143 99.9761 153.728 99.4961 153.728 98.5661C153.728 97.6361 153.143 97.1561 152.393 97.1561C151.643 97.1561 151.058 97.6361 151.058 98.5661C151.058 99.4961 151.643 99.9761 152.393 99.9761ZM163.737 101.146C162.597 101.146 161.832 100.681 161.337 100.171V100.996H159.627V90.0461H161.337V94.2461C161.907 93.7211 162.717 93.3461 163.737 93.3461C165.612 93.3461 167.217 94.7261 167.217 97.2461C167.217 99.7661 165.492 101.146 163.737 101.146ZM163.347 99.6761C164.532 99.6761 165.492 98.8961 165.492 97.2461C165.492 95.5961 164.532 94.8161 163.347 94.8161C162.252 94.8161 161.337 95.6261 161.337 96.7061V97.8011C161.337 98.8811 162.282 99.6761 163.347 99.6761ZM172.113 101.146C169.863 101.146 168.363 99.5861 168.363 97.2461C168.363 94.9061 170.118 93.3461 172.113 93.3461C174.243 93.3461 175.773 94.7711 175.773 97.1861V97.7111H170.028C170.103 98.9411 170.943 99.6911 172.143 99.6911C173.208 99.6911 173.838 99.1661 174.108 98.3711L175.608 98.4611L175.653 98.5361C175.173 100.216 173.943 101.146 172.113 101.146ZM170.058 96.4661H174.153C174.048 95.3561 173.193 94.7411 172.113 94.7411C171.093 94.7411 170.268 95.3711 170.058 96.4661ZM179.894 101.146C178.664 101.146 177.824 100.471 177.824 99.0611V94.9661H176.429V93.4961H177.824V91.2911H177.959L179.549 91.8461V93.4961H181.229V94.9661H179.549V98.9111C179.549 99.4061 179.834 99.6911 180.404 99.6911C180.689 99.6911 180.869 99.6611 181.109 99.6011L181.154 99.6311V100.996C180.719 101.101 180.404 101.146 179.894 101.146ZM185.592 101.146C184.362 101.146 183.522 100.471 183.522 99.0611V94.9661H182.127V93.4961H183.522V91.2911H183.657L185.247 91.8461V93.4961H186.927V94.9661H185.247V98.9111C185.247 99.4061 185.532 99.6911 186.102 99.6911C186.387 99.6911 186.567 99.6611 186.807 99.6011L186.852 99.6311V100.996C186.417 101.101 186.102 101.146 185.592 101.146ZM191.625 101.146C189.375 101.146 187.875 99.5861 187.875 97.2461C187.875 94.9061 189.63 93.3461 191.625 93.3461C193.755 93.3461 195.285 94.7711 195.285 97.1861V97.7111H189.54C189.615 98.9411 190.455 99.6911 191.655 99.6911C192.72 99.6911 193.35 99.1661 193.62 98.3711L195.12 98.4611L195.165 98.5361C194.685 100.216 193.455 101.146 191.625 101.146ZM189.57 96.4661H193.665C193.56 95.3561 192.705 94.7411 191.625 94.7411C190.605 94.7411 189.78 95.3711 189.57 96.4661ZM198.442 100.996H196.732V93.4961H198.442V94.4261C198.952 93.8411 199.672 93.3461 200.602 93.3461C200.872 93.3461 201.097 93.3911 201.247 93.4661L201.022 94.8461L200.962 94.8911C200.842 94.8611 200.707 94.8461 200.467 94.8461C199.642 94.8461 198.907 95.3261 198.442 96.2411V100.996ZM208.62 101.146C207.39 101.146 206.55 100.471 206.55 99.0611V94.9661H205.155V93.4961H206.55V91.2911H206.685L208.275 91.8461V93.4961H209.955V94.9661H208.275V98.9111C208.275 99.4061 208.56 99.6911 209.13 99.6911C209.415 99.6911 209.595 99.6611 209.835 99.6011L209.88 99.6311V100.996C209.445 101.101 209.13 101.146 208.62 101.146ZM213.178 100.996H211.468V90.0461H213.178V94.4411C213.733 93.8711 214.723 93.3461 215.833 93.3461C217.438 93.3461 218.473 94.3211 218.473 95.8811V100.996H216.763V96.2711C216.763 95.3261 216.148 94.8461 215.293 94.8461C214.483 94.8461 213.688 95.3111 213.178 96.0311V100.996ZM222.355 101.146C221.02 101.146 219.97 100.291 219.97 98.9111C219.97 97.4861 221.065 96.6911 222.565 96.5411L224.74 96.3161V95.9111C224.74 95.1011 224.155 94.7111 223.3 94.7111C222.535 94.7111 222.01 95.0861 221.875 95.8361L220.345 95.7611L220.315 95.7011C220.6 94.1111 221.89 93.3461 223.36 93.3461C225.145 93.3461 226.405 94.2911 226.405 95.8961V98.9711C226.405 99.4511 226.6 99.7211 227.005 99.7211C227.11 99.7211 227.2 99.7061 227.335 99.6761L227.38 99.7061V100.936C227.005 101.056 226.72 101.086 226.435 101.086C225.775 101.086 225.13 100.816 224.845 99.9911H224.8C224.215 100.621 223.39 101.146 222.355 101.146ZM222.67 99.7511C223.51 99.7511 224.14 99.3011 224.74 98.6111V97.5161L222.79 97.7411C221.995 97.8461 221.605 98.2811 221.605 98.8211C221.605 99.4361 222.07 99.7511 222.67 99.7511ZM230.463 100.996H228.753V93.4961H230.463V94.4711C231.018 93.8861 231.933 93.3461 233.028 93.3461C234.663 93.3461 235.563 94.3661 235.563 95.8361V100.996H233.853V96.2711C233.853 95.3561 233.373 94.8461 232.473 94.8461C231.663 94.8461 230.928 95.4161 230.463 96.1061V100.996ZM242.285 100.996H240.575V90.0461H242.285V100.996ZM246.232 101.146C244.897 101.146 243.847 100.291 243.847 98.9111C243.847 97.4861 244.942 96.6911 246.442 96.5411L248.617 96.3161V95.9111C248.617 95.1011 248.032 94.7111 247.177 94.7111C246.412 94.7111 245.887 95.0861 245.752 95.8361L244.222 95.7611L244.192 95.7011C244.477 94.1111 245.767 93.3461 247.237 93.3461C249.022 93.3461 250.282 94.2911 250.282 95.8961V98.9711C250.282 99.4511 250.477 99.7211 250.882 99.7211C250.987 99.7211 251.077 99.7061 251.212 99.6761L251.257 99.7061V100.936C250.882 101.056 250.597 101.086 250.312 101.086C249.652 101.086 249.007 100.816 248.722 99.9911H248.677C248.092 100.621 247.267 101.146 246.232 101.146ZM246.547 99.7511C247.387 99.7511 248.017 99.3011 248.617 98.6111V97.5161L246.667 97.7411C245.872 97.8461 245.482 98.2811 245.482 98.8211C245.482 99.4361 245.947 99.7511 246.547 99.7511ZM255.198 101.146C253.413 101.146 252.288 100.261 252.018 98.7911L252.048 98.7011L253.473 98.4611C253.653 99.2261 254.118 99.7361 255.228 99.7361C255.918 99.7361 256.503 99.4061 256.503 98.8361C256.503 98.2661 255.993 97.9961 254.598 97.6511C253.098 97.2761 252.303 96.6311 252.303 95.4311C252.303 94.2911 253.368 93.3461 254.928 93.3461C256.533 93.3461 257.583 94.1111 257.793 95.5211L257.763 95.5961L256.308 95.7911C256.173 95.0411 255.648 94.6511 254.913 94.6511C254.373 94.6511 253.833 94.8761 253.833 95.3561C253.833 95.8661 254.418 96.1211 255.798 96.4961C257.313 96.9011 258.123 97.5011 258.123 98.6861C258.123 100.081 256.983 101.146 255.198 101.146ZM262.233 101.146C261.003 101.146 260.163 100.471 260.163 99.0611V94.9661H258.768V93.4961H260.163V91.2911H260.298L261.888 91.8461V93.4961H263.568V94.9661H261.888V98.9111C261.888 99.4061 262.173 99.6911 262.743 99.6911C263.028 99.6911 263.208 99.6611 263.448 99.6011L263.493 99.6311V100.996C263.058 101.101 262.743 101.146 262.233 101.146ZM271.666 100.996H269.821L267.571 93.4961H269.356L270.571 97.8311L270.766 99.0911H270.796L271.006 97.8311L272.311 93.4961H273.946L275.221 97.8311L275.446 99.0911H275.476L275.671 97.8311L276.901 93.4961H278.671L276.436 100.996H274.591L273.121 95.5661L271.666 100.996ZM283.09 101.146C280.84 101.146 279.34 99.5861 279.34 97.2461C279.34 94.9061 281.095 93.3461 283.09 93.3461C285.22 93.3461 286.75 94.7711 286.75 97.1861V97.7111H281.005C281.08 98.9411 281.92 99.6911 283.12 99.6911C284.185 99.6911 284.815 99.1661 285.085 98.3711L286.585 98.4611L286.63 98.5361C286.15 100.216 284.92 101.146 283.09 101.146ZM281.035 96.4661H285.13C285.025 95.3561 284.17 94.7411 283.09 94.7411C282.07 94.7411 281.245 95.3711 281.035 96.4661ZM291.557 101.146C289.307 101.146 287.807 99.5861 287.807 97.2461C287.807 94.9061 289.562 93.3461 291.557 93.3461C293.687 93.3461 295.217 94.7711 295.217 97.1861V97.7111H289.472C289.547 98.9411 290.387 99.6911 291.587 99.6911C292.652 99.6911 293.282 99.1661 293.552 98.3711L295.052 98.4611L295.097 98.5361C294.617 100.216 293.387 101.146 291.557 101.146ZM289.502 96.4661H293.597C293.492 95.3561 292.637 94.7411 291.557 94.7411C290.537 94.7411 289.712 95.3711 289.502 96.4661ZM298.373 100.996H296.663V90.0461H298.373V96.0761H298.433L300.818 93.4961H302.918L299.813 96.8261L303.158 100.996H301.073L298.433 97.7411H298.373V100.996Z" fill="black"/>
<rect x="90.265" y="87.0684" width="9.49709" height="1.5" transform="rotate(-45 90.265 87.0684)" fill="white"/>
<rect x="102.636" y="88.1309" width="9.50185" height="1.5" transform="rotate(-135 102.636 88.1309)" fill="white"/>
</svg>
