<svg width="336" height="359" viewBox="0 0 336 359" fill="none" xmlns="http://www.w3.org/2000/svg">
<g filter="url(#filter0_d_58592_611)">
<rect x="15" y="11" width="306" height="300" rx="48" fill="white"/>
<rect x="15.5" y="11.5" width="305" height="299" rx="47.5" stroke="#D9D9DA"/>
</g>
<rect x="126.5" y="214.5" width="38" height="37" rx="18.5" fill="white" stroke="#D9D9DA"/>
<rect x="173.5" y="214.5" width="38" height="37" rx="18.5" fill="white" stroke="#D9D9DA"/>
<path d="M70.7555 97H76.8355C77.7289 97 78.5155 97.1533 79.1955 97.46C79.8755 97.7667 80.4022 98.1933 80.7755 98.74C81.1489 99.2733 81.3355 99.8733 81.3355 100.54C81.3355 101.247 81.2022 101.827 80.9355 102.28C80.6689 102.72 80.2689 103.107 79.7355 103.44V103.58C80.4422 103.847 81.0089 104.26 81.4355 104.82C81.8755 105.367 82.0955 106.047 82.0955 106.86C82.0955 107.673 81.8889 108.393 81.4755 109.02C81.0755 109.647 80.4889 110.133 79.7155 110.48C78.9555 110.827 78.0489 111 76.9955 111H70.7555V97ZM76.7755 102.58C77.3222 102.58 77.7422 102.453 78.0355 102.2C78.3422 101.947 78.4955 101.58 78.4955 101.1C78.4955 100.607 78.3422 100.233 78.0355 99.98C77.7422 99.7267 77.3222 99.6 76.7755 99.6H73.8155V102.58H76.7755ZM77.2755 108.4C77.8222 108.4 78.2622 108.267 78.5955 108C78.9289 107.72 79.0955 107.313 79.0955 106.78C79.0955 106.26 78.9222 105.867 78.5755 105.6C78.2422 105.32 77.8089 105.18 77.2755 105.18H73.8155V108.4H77.2755ZM88.5963 111.2C87.6097 111.2 86.723 110.987 85.9363 110.56C85.163 110.12 84.5563 109.507 84.1163 108.72C83.6763 107.933 83.4563 107.027 83.4563 106C83.4563 104.987 83.6897 104.087 84.1563 103.3C84.6363 102.513 85.2697 101.9 86.0563 101.46C86.843 101.02 87.6897 100.8 88.5963 100.8C89.583 100.8 90.4563 101.007 91.2163 101.42C91.9763 101.833 92.563 102.427 92.9763 103.2C93.403 103.973 93.6163 104.887 93.6163 105.94V106.68H86.0963C86.163 107.373 86.423 107.927 86.8763 108.34C87.343 108.74 87.9363 108.94 88.6563 108.94C89.803 108.94 90.563 108.427 90.9363 107.4L93.2763 107.64L93.4163 107.88C93.043 108.987 92.443 109.82 91.6163 110.38C90.803 110.927 89.7963 111.2 88.5963 111.2ZM90.9763 104.88C90.9097 104.28 90.6563 103.8 90.2163 103.44C89.7763 103.08 89.2297 102.9 88.5763 102.9C87.9897 102.9 87.4697 103.08 87.0163 103.44C86.5763 103.8 86.2963 104.28 86.1763 104.88H90.9763ZM94.4635 101H97.3235L98.7435 106.1L98.9435 107.7H99.0435L99.2835 106.1L100.824 101H103.384L104.944 106.1L105.184 107.7H105.284L105.484 106.1L106.884 101H109.764L106.764 111H103.824L102.104 104.44L100.384 111H97.4435L94.4635 101ZM113.493 111.2C112.919 111.2 112.386 111.08 111.893 110.84C111.413 110.587 111.026 110.233 110.733 109.78C110.453 109.313 110.313 108.773 110.313 108.16C110.313 107.253 110.626 106.527 111.253 105.98C111.879 105.42 112.739 105.087 113.833 104.98L116.533 104.7V104.26C116.533 103.807 116.386 103.453 116.093 103.2C115.813 102.947 115.413 102.82 114.893 102.82C114.426 102.82 114.053 102.947 113.773 103.2C113.493 103.44 113.319 103.773 113.253 104.2L110.893 104L110.793 103.88C110.993 102.88 111.466 102.12 112.213 101.6C112.959 101.067 113.866 100.8 114.933 100.8C116.199 100.8 117.226 101.12 118.013 101.76C118.799 102.387 119.193 103.273 119.193 104.42V108C119.193 108.307 119.253 108.54 119.373 108.7C119.506 108.86 119.686 108.94 119.913 108.94C120.059 108.94 120.186 108.92 120.293 108.88L120.393 109V110.92C119.993 111.053 119.533 111.12 119.013 111.12C117.933 111.12 117.186 110.667 116.773 109.76H116.633C116.166 110.24 115.686 110.6 115.193 110.84C114.699 111.08 114.133 111.2 113.493 111.2ZM114.133 109.08C114.613 109.08 115.033 108.96 115.393 108.72C115.766 108.48 116.146 108.113 116.533 107.62V106.46L114.333 106.74C113.866 106.793 113.506 106.933 113.253 107.16C113.013 107.387 112.893 107.667 112.893 108C112.893 108.333 113.006 108.6 113.233 108.8C113.473 108.987 113.773 109.08 114.133 109.08ZM122.199 101H124.999V102.2C125.359 101.773 125.772 101.433 126.239 101.18C126.706 100.927 127.219 100.8 127.779 100.8C128.179 100.8 128.499 100.853 128.739 100.96L128.379 103.16L128.239 103.3C127.972 103.233 127.746 103.2 127.559 103.2C127.012 103.2 126.519 103.353 126.079 103.66C125.639 103.967 125.279 104.413 124.999 105V111H122.199V101ZM134.671 111.2C133.684 111.2 132.797 110.987 132.011 110.56C131.237 110.12 130.631 109.507 130.191 108.72C129.751 107.933 129.531 107.027 129.531 106C129.531 104.987 129.764 104.087 130.231 103.3C130.711 102.513 131.344 101.9 132.131 101.46C132.917 101.02 133.764 100.8 134.671 100.8C135.657 100.8 136.531 101.007 137.291 101.42C138.051 101.833 138.637 102.427 139.051 103.2C139.477 103.973 139.691 104.887 139.691 105.94V106.68H132.171C132.237 107.373 132.497 107.927 132.951 108.34C133.417 108.74 134.011 108.94 134.731 108.94C135.877 108.94 136.637 108.427 137.011 107.4L139.351 107.64L139.491 107.88C139.117 108.987 138.517 109.82 137.691 110.38C136.877 110.927 135.871 111.2 134.671 111.2ZM137.051 104.88C136.984 104.28 136.731 103.8 136.291 103.44C135.851 103.08 135.304 102.9 134.651 102.9C134.064 102.9 133.544 103.08 133.091 103.44C132.651 103.8 132.371 104.28 132.251 104.88H137.051ZM149.773 111.2C148.84 111.2 148.1 110.947 147.553 110.44C147.007 109.933 146.733 109.173 146.733 108.16V103.32H144.953V101H146.733V98.14H147.093L149.513 98.98V101H151.633V103.32H149.513V107.92C149.513 108.24 149.607 108.487 149.793 108.66C149.98 108.833 150.247 108.92 150.593 108.92C150.807 108.92 151.073 108.873 151.393 108.78L151.533 108.86V111C150.96 111.133 150.373 111.2 149.773 111.2ZM153.605 96.4H156.405V102.24C156.805 101.813 157.312 101.467 157.925 101.2C158.539 100.933 159.185 100.8 159.865 100.8C160.945 100.8 161.819 101.113 162.485 101.74C163.152 102.367 163.485 103.213 163.485 104.28V111H160.685V104.98C160.685 104.393 160.519 103.953 160.185 103.66C159.865 103.353 159.445 103.2 158.925 103.2C158.432 103.2 157.965 103.327 157.525 103.58C157.085 103.82 156.712 104.167 156.405 104.62V111H153.605V96.4ZM170.51 111.2C169.524 111.2 168.637 110.987 167.85 110.56C167.077 110.12 166.47 109.507 166.03 108.72C165.59 107.933 165.37 107.027 165.37 106C165.37 104.987 165.604 104.087 166.07 103.3C166.55 102.513 167.184 101.9 167.97 101.46C168.757 101.02 169.604 100.8 170.51 100.8C171.497 100.8 172.37 101.007 173.13 101.42C173.89 101.833 174.477 102.427 174.89 103.2C175.317 103.973 175.53 104.887 175.53 105.94V106.68H168.01C168.077 107.373 168.337 107.927 168.79 108.34C169.257 108.74 169.85 108.94 170.57 108.94C171.717 108.94 172.477 108.427 172.85 107.4L175.19 107.64L175.33 107.88C174.957 108.987 174.357 109.82 173.53 110.38C172.717 110.927 171.71 111.2 170.51 111.2ZM172.89 104.88C172.824 104.28 172.57 103.8 172.13 103.44C171.69 103.08 171.144 102.9 170.49 102.9C169.904 102.9 169.384 103.08 168.93 103.44C168.49 103.8 168.21 104.28 168.09 104.88H172.89ZM187.613 111.2C186.306 111.2 185.24 110.773 184.413 109.92V111H181.613V96.4H184.413V101.96C185.306 101.187 186.353 100.8 187.553 100.8C188.393 100.8 189.173 100.993 189.893 101.38C190.626 101.767 191.213 102.353 191.653 103.14C192.093 103.927 192.313 104.88 192.313 106C192.313 107.12 192.08 108.073 191.613 108.86C191.16 109.633 190.573 110.22 189.853 110.62C189.133 111.007 188.386 111.2 187.613 111.2ZM186.853 108.88C187.626 108.88 188.253 108.627 188.733 108.12C189.226 107.613 189.473 106.907 189.473 106C189.473 105.093 189.233 104.387 188.753 103.88C188.273 103.373 187.653 103.12 186.893 103.12C186.186 103.12 185.593 103.34 185.113 103.78C184.646 104.22 184.413 104.8 184.413 105.52V106.48C184.413 107.2 184.653 107.78 185.133 108.22C185.613 108.66 186.186 108.88 186.853 108.88ZM196.969 111.2C196.396 111.2 195.863 111.08 195.369 110.84C194.889 110.587 194.503 110.233 194.209 109.78C193.929 109.313 193.789 108.773 193.789 108.16C193.789 107.253 194.103 106.527 194.729 105.98C195.356 105.42 196.216 105.087 197.309 104.98L200.009 104.7V104.26C200.009 103.807 199.863 103.453 199.569 103.2C199.289 102.947 198.889 102.82 198.369 102.82C197.903 102.82 197.529 102.947 197.249 103.2C196.969 103.44 196.796 103.773 196.729 104.2L194.369 104L194.269 103.88C194.469 102.88 194.943 102.12 195.689 101.6C196.436 101.067 197.343 100.8 198.409 100.8C199.676 100.8 200.703 101.12 201.489 101.76C202.276 102.387 202.669 103.273 202.669 104.42V108C202.669 108.307 202.729 108.54 202.849 108.7C202.983 108.86 203.163 108.94 203.389 108.94C203.536 108.94 203.663 108.92 203.769 108.88L203.869 109V110.92C203.469 111.053 203.009 111.12 202.489 111.12C201.409 111.12 200.663 110.667 200.249 109.76H200.109C199.643 110.24 199.163 110.6 198.669 110.84C198.176 111.08 197.609 111.2 196.969 111.2ZM197.609 109.08C198.089 109.08 198.509 108.96 198.869 108.72C199.243 108.48 199.623 108.113 200.009 107.62V106.46L197.809 106.74C197.343 106.793 196.983 106.933 196.729 107.16C196.489 107.387 196.369 107.667 196.369 108C196.369 108.333 196.483 108.6 196.709 108.8C196.949 108.987 197.249 109.08 197.609 109.08ZM205.676 101H208.476V102.2C208.836 101.773 209.249 101.433 209.716 101.18C210.182 100.927 210.696 100.8 211.256 100.8C211.656 100.8 211.976 100.853 212.216 100.96L211.856 103.16L211.716 103.3C211.449 103.233 211.222 103.2 211.036 103.2C210.489 103.2 209.996 103.353 209.556 103.66C209.116 103.967 208.756 104.413 208.476 105V111H205.676V101ZM218.147 111.2C217.16 111.2 216.274 110.987 215.487 110.56C214.714 110.12 214.107 109.507 213.667 108.72C213.227 107.933 213.007 107.027 213.007 106C213.007 104.987 213.24 104.087 213.707 103.3C214.187 102.513 214.82 101.9 215.607 101.46C216.394 101.02 217.24 100.8 218.147 100.8C219.134 100.8 220.007 101.007 220.767 101.42C221.527 101.833 222.114 102.427 222.527 103.2C222.954 103.973 223.167 104.887 223.167 105.94V106.68H215.647C215.714 107.373 215.974 107.927 216.427 108.34C216.894 108.74 217.487 108.94 218.207 108.94C219.354 108.94 220.114 108.427 220.487 107.4L222.827 107.64L222.967 107.88C222.594 108.987 221.994 109.82 221.167 110.38C220.354 110.927 219.347 111.2 218.147 111.2ZM220.527 104.88C220.46 104.28 220.207 103.8 219.767 103.44C219.327 103.08 218.78 102.9 218.127 102.9C217.54 102.9 217.02 103.08 216.567 103.44C216.127 103.8 215.847 104.28 215.727 104.88H220.527ZM225.051 101H227.851V102.3C228.797 101.3 229.904 100.8 231.171 100.8C232.251 100.8 233.097 101.113 233.711 101.74C234.324 102.367 234.631 103.173 234.631 104.16V111H231.831V104.98C231.831 104.393 231.691 103.953 231.411 103.66C231.144 103.353 230.744 103.2 230.211 103.2C229.744 103.2 229.297 103.347 228.871 103.64C228.444 103.92 228.104 104.273 227.851 104.7V111H225.051V101ZM241.643 111.2C240.657 111.2 239.77 110.987 238.983 110.56C238.21 110.12 237.603 109.507 237.163 108.72C236.723 107.933 236.503 107.027 236.503 106C236.503 104.987 236.737 104.087 237.203 103.3C237.683 102.513 238.317 101.9 239.103 101.46C239.89 101.02 240.737 100.8 241.643 100.8C242.63 100.8 243.503 101.007 244.263 101.42C245.023 101.833 245.61 102.427 246.023 103.2C246.45 103.973 246.663 104.887 246.663 105.94V106.68H239.143C239.21 107.373 239.47 107.927 239.923 108.34C240.39 108.74 240.983 108.94 241.703 108.94C242.85 108.94 243.61 108.427 243.983 107.4L246.323 107.64L246.463 107.88C246.09 108.987 245.49 109.82 244.663 110.38C243.85 110.927 242.843 111.2 241.643 111.2ZM244.023 104.88C243.957 104.28 243.703 103.8 243.263 103.44C242.823 103.08 242.277 102.9 241.623 102.9C241.037 102.9 240.517 103.08 240.063 103.44C239.623 103.8 239.343 104.28 239.223 104.88H244.023ZM252.247 111.2C251.073 111.2 250.113 110.947 249.367 110.44C248.62 109.92 248.12 109.193 247.867 108.26L247.947 108L250.087 107.36C250.327 108.48 251.047 109.04 252.247 109.04C252.66 109.04 253 108.953 253.267 108.78C253.533 108.607 253.667 108.367 253.667 108.06C253.667 107.74 253.513 107.493 253.207 107.32C252.913 107.133 252.333 106.927 251.467 106.7C250.413 106.447 249.62 106.08 249.087 105.6C248.553 105.107 248.287 104.46 248.287 103.66C248.287 103.127 248.433 102.647 248.727 102.22C249.033 101.78 249.46 101.433 250.007 101.18C250.553 100.927 251.18 100.8 251.887 100.8C252.94 100.8 253.8 101.033 254.467 101.5C255.147 101.953 255.587 102.6 255.787 103.44L255.667 103.66L253.547 104.18C253.453 103.713 253.253 103.36 252.947 103.12C252.64 102.867 252.267 102.74 251.827 102.74C251.493 102.74 251.213 102.813 250.987 102.96C250.76 103.093 250.647 103.28 250.647 103.52C250.647 103.813 250.833 104.053 251.207 104.24C251.58 104.427 252.26 104.653 253.247 104.92C254.273 105.2 255.027 105.567 255.507 106.02C256 106.473 256.247 107.1 256.247 107.9C256.247 108.513 256.08 109.073 255.747 109.58C255.427 110.087 254.96 110.487 254.347 110.78C253.747 111.06 253.047 111.2 252.247 111.2ZM261.876 111.2C260.702 111.2 259.742 110.947 258.996 110.44C258.249 109.92 257.749 109.193 257.496 108.26L257.576 108L259.716 107.36C259.956 108.48 260.676 109.04 261.876 109.04C262.289 109.04 262.629 108.953 262.896 108.78C263.162 108.607 263.296 108.367 263.296 108.06C263.296 107.74 263.142 107.493 262.836 107.32C262.542 107.133 261.962 106.927 261.096 106.7C260.042 106.447 259.249 106.08 258.716 105.6C258.182 105.107 257.916 104.46 257.916 103.66C257.916 103.127 258.062 102.647 258.356 102.22C258.662 101.78 259.089 101.433 259.636 101.18C260.182 100.927 260.809 100.8 261.516 100.8C262.569 100.8 263.429 101.033 264.096 101.5C264.776 101.953 265.216 102.6 265.416 103.44L265.296 103.66L263.176 104.18C263.082 103.713 262.882 103.36 262.576 103.12C262.269 102.867 261.896 102.74 261.456 102.74C261.122 102.74 260.842 102.813 260.616 102.96C260.389 103.093 260.276 103.28 260.276 103.52C260.276 103.813 260.462 104.053 260.836 104.24C261.209 104.427 261.889 104.653 262.876 104.92C263.902 105.2 264.656 105.567 265.136 106.02C265.629 106.473 265.876 107.1 265.876 107.9C265.876 108.513 265.709 109.073 265.376 109.58C265.056 110.087 264.589 110.487 263.976 110.78C263.376 111.06 262.676 111.2 261.876 111.2ZM112.637 137.2C111.597 137.2 110.663 136.973 109.837 136.52C109.01 136.067 108.363 135.447 107.897 134.66C107.43 133.873 107.197 132.987 107.197 132C107.197 131.013 107.43 130.127 107.897 129.34C108.363 128.553 109.01 127.933 109.837 127.48C110.663 127.027 111.597 126.8 112.637 126.8C113.69 126.8 114.63 127.027 115.457 127.48C116.283 127.933 116.93 128.553 117.397 129.34C117.863 130.127 118.097 131.013 118.097 132C118.097 132.987 117.863 133.873 117.397 134.66C116.93 135.447 116.283 136.067 115.457 136.52C114.63 136.973 113.69 137.2 112.637 137.2ZM112.637 134.78C113.41 134.78 114.043 134.533 114.537 134.04C115.043 133.533 115.297 132.853 115.297 132C115.297 131.147 115.043 130.473 114.537 129.98C114.043 129.473 113.41 129.22 112.637 129.22C111.863 129.22 111.23 129.473 110.737 129.98C110.243 130.473 109.997 131.147 109.997 132C109.997 132.853 110.243 133.533 110.737 134.04C111.23 134.533 111.863 134.78 112.637 134.78ZM120.591 129.32H118.911V127H120.591V125.36C120.591 124.307 120.918 123.52 121.571 123C122.238 122.467 123.058 122.2 124.031 122.2C124.538 122.2 125.011 122.267 125.451 122.4V124.56L125.311 124.66C125.018 124.54 124.718 124.48 124.411 124.48C124.091 124.48 123.838 124.567 123.651 124.74C123.464 124.913 123.371 125.173 123.371 125.52V127H125.431V129.32H123.371V137H120.591V129.32ZM134.128 137.2C133.554 137.2 133.021 137.08 132.528 136.84C132.048 136.587 131.661 136.233 131.368 135.78C131.088 135.313 130.948 134.773 130.948 134.16C130.948 133.253 131.261 132.527 131.888 131.98C132.514 131.42 133.374 131.087 134.468 130.98L137.168 130.7V130.26C137.168 129.807 137.021 129.453 136.728 129.2C136.448 128.947 136.048 128.82 135.528 128.82C135.061 128.82 134.688 128.947 134.408 129.2C134.128 129.44 133.954 129.773 133.888 130.2L131.528 130L131.428 129.88C131.628 128.88 132.101 128.12 132.848 127.6C133.594 127.067 134.501 126.8 135.568 126.8C136.834 126.8 137.861 127.12 138.648 127.76C139.434 128.387 139.828 129.273 139.828 130.42V134C139.828 134.307 139.888 134.54 140.008 134.7C140.141 134.86 140.321 134.94 140.548 134.94C140.694 134.94 140.821 134.92 140.928 134.88L141.028 135V136.92C140.628 137.053 140.168 137.12 139.648 137.12C138.568 137.12 137.821 136.667 137.408 135.76H137.268C136.801 136.24 136.321 136.6 135.828 136.84C135.334 137.08 134.768 137.2 134.128 137.2ZM134.768 135.08C135.248 135.08 135.668 134.96 136.028 134.72C136.401 134.48 136.781 134.113 137.168 133.62V132.46L134.968 132.74C134.501 132.793 134.141 132.933 133.888 133.16C133.648 133.387 133.528 133.667 133.528 134C133.528 134.333 133.641 134.6 133.868 134.8C134.108 134.987 134.408 135.08 134.768 135.08ZM153.033 137.2C151.726 137.2 150.66 136.773 149.833 135.92V137H147.033V122.4H149.833V127.96C150.726 127.187 151.773 126.8 152.973 126.8C153.813 126.8 154.593 126.993 155.313 127.38C156.046 127.767 156.633 128.353 157.073 129.14C157.513 129.927 157.733 130.88 157.733 132C157.733 133.12 157.5 134.073 157.033 134.86C156.58 135.633 155.993 136.22 155.273 136.62C154.553 137.007 153.806 137.2 153.033 137.2ZM152.273 134.88C153.046 134.88 153.673 134.627 154.153 134.12C154.646 133.613 154.893 132.907 154.893 132C154.893 131.093 154.653 130.387 154.173 129.88C153.693 129.373 153.073 129.12 152.313 129.12C151.606 129.12 151.013 129.34 150.533 129.78C150.066 130.22 149.833 130.8 149.833 131.52V132.48C149.833 133.2 150.073 133.78 150.553 134.22C151.033 134.66 151.606 134.88 152.273 134.88ZM163.129 137.2C162.036 137.2 161.176 136.873 160.549 136.22C159.923 135.567 159.609 134.693 159.609 133.6V127H162.409V133.02C162.409 133.593 162.556 134.033 162.849 134.34C163.143 134.647 163.556 134.8 164.089 134.8C164.569 134.8 165.009 134.667 165.409 134.4C165.809 134.12 166.136 133.753 166.389 133.3V127H169.189V137H166.389V135.76C165.496 136.72 164.409 137.2 163.129 137.2ZM175.362 137.2C174.189 137.2 173.229 136.947 172.482 136.44C171.735 135.92 171.235 135.193 170.982 134.26L171.062 134L173.202 133.36C173.442 134.48 174.162 135.04 175.362 135.04C175.775 135.04 176.115 134.953 176.382 134.78C176.649 134.607 176.782 134.367 176.782 134.06C176.782 133.74 176.629 133.493 176.322 133.32C176.029 133.133 175.449 132.927 174.582 132.7C173.529 132.447 172.735 132.08 172.202 131.6C171.669 131.107 171.402 130.46 171.402 129.66C171.402 129.127 171.549 128.647 171.842 128.22C172.149 127.78 172.575 127.433 173.122 127.18C173.669 126.927 174.295 126.8 175.002 126.8C176.055 126.8 176.915 127.033 177.582 127.5C178.262 127.953 178.702 128.6 178.902 129.44L178.782 129.66L176.662 130.18C176.569 129.713 176.369 129.36 176.062 129.12C175.755 128.867 175.382 128.74 174.942 128.74C174.609 128.74 174.329 128.813 174.102 128.96C173.875 129.093 173.762 129.28 173.762 129.52C173.762 129.813 173.949 130.053 174.322 130.24C174.695 130.427 175.375 130.653 176.362 130.92C177.389 131.2 178.142 131.567 178.622 132.02C179.115 132.473 179.362 133.1 179.362 133.9C179.362 134.513 179.195 135.073 178.862 135.58C178.542 136.087 178.075 136.487 177.462 136.78C176.862 137.06 176.162 137.2 175.362 137.2ZM184.003 136.74L179.883 127H183.083L185.123 131.98L185.223 133.44H185.383L187.923 127H190.883L185.203 141H182.283L184.003 136.74ZM196.681 122.4H199.481V137H196.681V122.4ZM203.255 125.9C202.815 125.9 202.435 125.74 202.115 125.42C201.795 125.1 201.635 124.72 201.635 124.28C201.635 123.84 201.795 123.46 202.115 123.14C202.435 122.82 202.815 122.66 203.255 122.66C203.708 122.66 204.088 122.82 204.395 123.14C204.715 123.46 204.875 123.84 204.875 124.28C204.875 124.72 204.715 125.1 204.395 125.42C204.088 125.74 203.708 125.9 203.255 125.9ZM201.855 127H204.655V137H201.855V127ZM208.013 129.32H206.333V127H208.013V125.36C208.013 124.307 208.34 123.52 208.993 123C209.66 122.467 210.48 122.2 211.453 122.2C211.96 122.2 212.433 122.267 212.873 122.4V124.56L212.733 124.66C212.44 124.54 212.14 124.48 211.833 124.48C211.513 124.48 211.26 124.567 211.073 124.74C210.886 124.913 210.793 125.173 210.793 125.52V127H212.853V129.32H210.793V137H208.013V129.32ZM218.958 137.2C217.971 137.2 217.084 136.987 216.298 136.56C215.524 136.12 214.918 135.507 214.478 134.72C214.038 133.933 213.818 133.027 213.818 132C213.818 130.987 214.051 130.087 214.518 129.3C214.998 128.513 215.631 127.9 216.418 127.46C217.204 127.02 218.051 126.8 218.958 126.8C219.944 126.8 220.818 127.007 221.578 127.42C222.338 127.833 222.924 128.427 223.338 129.2C223.764 129.973 223.978 130.887 223.978 131.94V132.68H216.458C216.524 133.373 216.784 133.927 217.238 134.34C217.704 134.74 218.298 134.94 219.018 134.94C220.164 134.94 220.924 134.427 221.298 133.4L223.638 133.64L223.778 133.88C223.404 134.987 222.804 135.82 221.978 136.38C221.164 136.927 220.158 137.2 218.958 137.2ZM221.338 130.88C221.271 130.28 221.018 129.8 220.578 129.44C220.138 129.08 219.591 128.9 218.938 128.9C218.351 128.9 217.831 129.08 217.378 129.44C216.938 129.8 216.658 130.28 216.538 130.88H221.338ZM226.89 137C226.436 137 226.036 136.833 225.69 136.5C225.356 136.153 225.19 135.753 225.19 135.3C225.19 134.833 225.356 134.433 225.69 134.1C226.023 133.753 226.423 133.58 226.89 133.58C227.356 133.58 227.756 133.753 228.09 134.1C228.436 134.433 228.61 134.833 228.61 135.3C228.61 135.767 228.436 136.167 228.09 136.5C227.756 136.833 227.356 137 226.89 137Z" fill="black"/>
<path opacity="0.5" d="M132.245 182.24H137.637V183.52H132.245V182.24ZM146.701 188.16C145.976 188.16 145.298 188.011 144.669 187.712C144.05 187.413 143.544 186.987 143.149 186.432C142.754 185.877 142.536 185.237 142.493 184.512H143.981C144.056 185.216 144.344 185.765 144.845 186.16C145.357 186.555 145.976 186.752 146.701 186.752C147.405 186.752 147.986 186.576 148.445 186.224C148.914 185.861 149.149 185.344 149.149 184.672C149.149 184.245 149.053 183.893 148.861 183.616C148.68 183.328 148.381 183.088 147.965 182.896C147.549 182.704 146.973 182.528 146.237 182.368C145.17 182.133 144.344 181.792 143.757 181.344C143.17 180.885 142.877 180.24 142.877 179.408C142.877 178.864 143.032 178.384 143.341 177.968C143.65 177.541 144.072 177.216 144.605 176.992C145.149 176.757 145.746 176.64 146.397 176.64C147.506 176.64 148.397 176.923 149.069 177.488C149.741 178.053 150.114 178.837 150.189 179.84H148.733C148.648 179.243 148.408 178.795 148.013 178.496C147.618 178.197 147.08 178.048 146.397 178.048C145.8 178.048 145.314 178.171 144.941 178.416C144.568 178.651 144.381 178.965 144.381 179.36C144.381 179.829 144.6 180.197 145.037 180.464C145.474 180.731 146.216 180.981 147.261 181.216C148.37 181.461 149.218 181.861 149.805 182.416C150.392 182.971 150.685 183.707 150.685 184.624C150.685 185.317 150.509 185.936 150.157 186.48C149.805 187.013 149.325 187.429 148.717 187.728C148.12 188.016 147.448 188.16 146.701 188.16ZM156.182 188.16C155.382 188.16 154.667 187.984 154.038 187.632C153.419 187.269 152.934 186.773 152.582 186.144C152.24 185.504 152.07 184.789 152.07 184C152.07 183.211 152.24 182.501 152.582 181.872C152.934 181.232 153.419 180.736 154.038 180.384C154.667 180.021 155.382 179.84 156.182 179.84C156.982 179.84 157.691 180.021 158.31 180.384C158.939 180.736 159.424 181.232 159.766 181.872C160.118 182.501 160.294 183.211 160.294 184C160.294 184.789 160.118 185.504 159.766 186.144C159.424 186.773 158.939 187.269 158.31 187.632C157.691 187.984 156.982 188.16 156.182 188.16ZM156.182 186.88C156.971 186.88 157.616 186.629 158.118 186.128C158.63 185.627 158.886 184.917 158.886 184C158.886 183.083 158.63 182.373 158.118 181.872C157.616 181.371 156.971 181.12 156.182 181.12C155.392 181.12 154.742 181.371 154.23 181.872C153.728 182.373 153.478 183.083 153.478 184C153.478 184.917 153.728 185.627 154.23 186.128C154.742 186.629 155.392 186.88 156.182 186.88ZM165.57 188.16C164.812 188.16 164.13 187.989 163.522 187.648C162.914 187.296 162.434 186.805 162.082 186.176C161.74 185.547 161.57 184.821 161.57 184C161.57 183.179 161.74 182.453 162.082 181.824C162.434 181.195 162.914 180.709 163.522 180.368C164.13 180.016 164.812 179.84 165.57 179.84C166.604 179.84 167.458 180.112 168.13 180.656C168.802 181.189 169.207 181.936 169.346 182.896H168.018C167.89 182.331 167.618 181.893 167.202 181.584C166.786 181.275 166.247 181.12 165.586 181.12C164.818 181.12 164.188 181.381 163.698 181.904C163.218 182.416 162.978 183.115 162.978 184C162.978 184.885 163.218 185.589 163.698 186.112C164.188 186.624 164.818 186.88 165.586 186.88C166.247 186.88 166.786 186.725 167.202 186.416C167.618 186.107 167.89 185.669 168.018 185.104H169.346C169.207 186.064 168.802 186.816 168.13 187.36C167.458 187.893 166.604 188.16 165.57 188.16ZM171.048 180H172.456V181.04C172.766 180.688 173.118 180.4 173.512 180.176C173.907 179.952 174.339 179.84 174.808 179.84C175.086 179.84 175.299 179.883 175.448 179.968L175.224 181.136C175.096 181.104 174.926 181.088 174.712 181.088C174.264 181.088 173.843 181.221 173.448 181.488C173.054 181.755 172.723 182.133 172.456 182.624V188H171.048V180ZM178.536 188.16C177.779 188.16 177.166 187.952 176.696 187.536C176.227 187.109 175.992 186.544 175.992 185.84C175.992 185.093 176.248 184.507 176.76 184.08C177.272 183.653 177.918 183.403 178.696 183.328L181.192 183.072V182.528C181.192 182.069 181.027 181.723 180.696 181.488C180.376 181.243 179.95 181.12 179.416 181.12C178.968 181.12 178.59 181.227 178.28 181.44C177.982 181.653 177.779 181.979 177.672 182.416H176.344C176.462 181.573 176.819 180.933 177.416 180.496C178.024 180.059 178.723 179.84 179.512 179.84C180.451 179.84 181.198 180.075 181.752 180.544C182.318 181.003 182.6 181.611 182.6 182.368V186.112C182.6 186.379 182.659 186.587 182.776 186.736C182.894 186.875 183.07 186.944 183.304 186.944C183.443 186.944 183.582 186.923 183.72 186.88V187.936C183.4 188.043 183.102 188.096 182.824 188.096C181.96 188.096 181.432 187.68 181.24 186.848C180.931 187.2 180.531 187.509 180.04 187.776C179.55 188.032 179.048 188.16 178.536 188.16ZM178.696 186.88C179.528 186.88 180.36 186.464 181.192 185.632V184.192L178.792 184.464C178.344 184.517 177.998 184.667 177.752 184.912C177.518 185.147 177.4 185.435 177.4 185.776C177.4 186.139 177.518 186.416 177.752 186.608C177.998 186.789 178.312 186.88 178.696 186.88ZM187.522 188.16C186.903 188.16 186.418 187.989 186.066 187.648C185.725 187.296 185.554 186.795 185.554 186.144V181.28H183.97V180H185.554V177.6L186.962 178.112V180H188.882V181.28H186.962V186.048C186.962 186.325 187.042 186.539 187.202 186.688C187.373 186.837 187.623 186.912 187.954 186.912C188.157 186.912 188.333 186.901 188.482 186.88C188.642 186.848 188.749 186.827 188.802 186.816V188C188.386 188.107 187.959 188.16 187.522 188.16ZM193.817 188.16C193.017 188.16 192.324 187.989 191.737 187.648C191.151 187.296 190.697 186.811 190.377 186.192C190.068 185.563 189.913 184.832 189.913 184C189.913 183.189 190.089 182.469 190.441 181.84C190.793 181.211 191.268 180.72 191.865 180.368C192.463 180.016 193.113 179.84 193.817 179.84C194.532 179.84 195.172 180.005 195.737 180.336C196.313 180.656 196.761 181.12 197.081 181.728C197.412 182.336 197.577 183.061 197.577 183.904V184.448H191.337C191.359 185.205 191.593 185.803 192.041 186.24C192.5 186.667 193.097 186.88 193.833 186.88C194.441 186.88 194.948 186.736 195.353 186.448C195.759 186.149 196.036 185.755 196.185 185.264H197.497C197.273 186.171 196.847 186.88 196.217 187.392C195.588 187.904 194.788 188.16 193.817 188.16ZM196.249 183.232C196.196 182.56 195.94 182.043 195.481 181.68C195.033 181.307 194.479 181.12 193.817 181.12C193.177 181.12 192.633 181.307 192.185 181.68C191.737 182.053 191.46 182.571 191.353 183.232H196.249ZM201.925 188.16C200.976 188.16 200.208 187.925 199.621 187.456C199.035 186.987 198.704 186.336 198.629 185.504H199.957C200.075 185.941 200.283 186.283 200.581 186.528C200.891 186.763 201.349 186.88 201.957 186.88C202.405 186.88 202.784 186.779 203.093 186.576C203.413 186.373 203.573 186.096 203.573 185.744C203.573 185.403 203.397 185.131 203.045 184.928C202.704 184.725 202.112 184.517 201.269 184.304C200.459 184.101 199.861 183.819 199.477 183.456C199.104 183.093 198.917 182.608 198.917 182C198.917 181.616 199.029 181.259 199.253 180.928C199.488 180.597 199.808 180.336 200.213 180.144C200.629 179.941 201.099 179.84 201.621 179.84C202.485 179.84 203.184 180.059 203.717 180.496C204.251 180.933 204.555 181.557 204.629 182.368H203.237C203.184 181.941 203.013 181.616 202.725 181.392C202.437 181.168 202.069 181.056 201.621 181.056C201.269 181.056 200.955 181.136 200.677 181.296C200.4 181.445 200.261 181.669 200.261 181.968C200.261 182.256 200.421 182.496 200.741 182.688C201.061 182.869 201.6 183.061 202.357 183.264C203.243 183.499 203.893 183.792 204.309 184.144C204.736 184.496 204.949 184.971 204.949 185.568C204.949 186.059 204.821 186.501 204.565 186.896C204.32 187.291 203.968 187.6 203.509 187.824C203.051 188.048 202.523 188.16 201.925 188.16Z" fill="black"/>
<path d="M120.126 346.72H116.966V344.48H120.126V341.32H122.366V344.48H125.546V346.72H122.366V349.9H120.126V346.72ZM132.558 352.2C131.598 352.2 130.725 352.02 129.938 351.66C129.165 351.3 128.531 350.8 128.038 350.16C127.545 349.52 127.245 348.787 127.138 347.96L127.318 347.6L129.918 347.2C130.011 347.907 130.285 348.507 130.738 349C131.191 349.48 131.798 349.72 132.558 349.72C133.385 349.72 134.025 349.493 134.478 349.04C134.931 348.573 135.158 347.913 135.158 347.06C135.158 346.233 134.911 345.593 134.418 345.14C133.925 344.673 133.278 344.44 132.478 344.44C131.891 344.44 131.338 344.54 130.818 344.74C130.311 344.94 129.865 345.18 129.478 345.46L127.498 344.46L128.418 338H136.958V340.32H130.578L130.078 342.86C130.985 342.353 131.965 342.1 133.018 342.1C134.031 342.1 134.911 342.3 135.658 342.7C136.418 343.087 136.998 343.653 137.398 344.4C137.811 345.133 138.018 345.993 138.018 346.98C138.018 347.953 137.798 348.84 137.358 349.64C136.918 350.427 136.285 351.053 135.458 351.52C134.631 351.973 133.665 352.2 132.558 352.2ZM145.938 352.2C144.738 352.2 143.678 351.907 142.758 351.32C141.838 350.72 141.124 349.88 140.618 348.8C140.111 347.707 139.858 346.44 139.858 345C139.858 343.56 140.111 342.3 140.618 341.22C141.124 340.127 141.838 339.287 142.758 338.7C143.678 338.1 144.738 337.8 145.938 337.8C147.151 337.8 148.211 338.1 149.118 338.7C150.038 339.287 150.751 340.127 151.258 341.22C151.764 342.3 152.018 343.56 152.018 345C152.018 346.44 151.764 347.707 151.258 348.8C150.751 349.88 150.038 350.72 149.118 351.32C148.211 351.907 147.151 352.2 145.938 352.2ZM145.938 349.56C146.964 349.56 147.758 349.167 148.318 348.38C148.878 347.58 149.158 346.453 149.158 345C149.158 343.547 148.878 342.427 148.318 341.64C147.758 340.84 146.964 340.44 145.938 340.44C144.911 340.44 144.118 340.84 143.558 341.64C142.998 342.427 142.718 343.547 142.718 345C142.718 346.453 142.998 347.58 143.558 348.38C144.118 349.167 144.911 349.56 145.938 349.56ZM159.941 352.2C158.741 352.2 157.681 351.907 156.761 351.32C155.841 350.72 155.128 349.88 154.621 348.8C154.115 347.707 153.861 346.44 153.861 345C153.861 343.56 154.115 342.3 154.621 341.22C155.128 340.127 155.841 339.287 156.761 338.7C157.681 338.1 158.741 337.8 159.941 337.8C161.155 337.8 162.215 338.1 163.121 338.7C164.041 339.287 164.755 340.127 165.261 341.22C165.768 342.3 166.021 343.56 166.021 345C166.021 346.44 165.768 347.707 165.261 348.8C164.755 349.88 164.041 350.72 163.121 351.32C162.215 351.907 161.155 352.2 159.941 352.2ZM159.941 349.56C160.968 349.56 161.761 349.167 162.321 348.38C162.881 347.58 163.161 346.453 163.161 345C163.161 343.547 162.881 342.427 162.321 341.64C161.761 340.84 160.968 340.44 159.941 340.44C158.915 340.44 158.121 340.84 157.561 341.64C157.001 342.427 156.721 343.547 156.721 345C156.721 346.453 157.001 347.58 157.561 348.38C158.121 349.167 158.915 349.56 159.941 349.56ZM172.385 342H175.185V343.18C175.971 342.26 176.958 341.8 178.145 341.8C179.331 341.8 180.165 342.267 180.645 343.2C181.538 342.267 182.605 341.8 183.845 341.8C184.871 341.8 185.665 342.087 186.225 342.66C186.785 343.233 187.065 344.02 187.065 345.02V352H184.265V345.64C184.265 344.68 183.838 344.2 182.985 344.2C182.211 344.2 181.585 344.62 181.105 345.46V352H178.305V345.66C178.305 344.687 177.891 344.2 177.065 344.2C176.678 344.2 176.318 344.327 175.985 344.58C175.651 344.833 175.385 345.16 175.185 345.56V352H172.385V342ZM194.375 352.2C193.335 352.2 192.402 351.973 191.575 351.52C190.748 351.067 190.102 350.447 189.635 349.66C189.168 348.873 188.935 347.987 188.935 347C188.935 346.013 189.168 345.127 189.635 344.34C190.102 343.553 190.748 342.933 191.575 342.48C192.402 342.027 193.335 341.8 194.375 341.8C195.428 341.8 196.368 342.027 197.195 342.48C198.022 342.933 198.668 343.553 199.135 344.34C199.602 345.127 199.835 346.013 199.835 347C199.835 347.987 199.602 348.873 199.135 349.66C198.668 350.447 198.022 351.067 197.195 351.52C196.368 351.973 195.428 352.2 194.375 352.2ZM194.375 349.78C195.148 349.78 195.782 349.533 196.275 349.04C196.782 348.533 197.035 347.853 197.035 347C197.035 346.147 196.782 345.473 196.275 344.98C195.782 344.473 195.148 344.22 194.375 344.22C193.602 344.22 192.968 344.473 192.475 344.98C191.982 345.473 191.735 346.147 191.735 347C191.735 347.853 191.982 348.533 192.475 349.04C192.968 349.533 193.602 349.78 194.375 349.78ZM201.799 342H204.599V343.2C204.959 342.773 205.372 342.433 205.839 342.18C206.305 341.927 206.819 341.8 207.379 341.8C207.779 341.8 208.099 341.853 208.339 341.96L207.979 344.16L207.839 344.3C207.572 344.233 207.345 344.2 207.159 344.2C206.612 344.2 206.119 344.353 205.679 344.66C205.239 344.967 204.879 345.413 204.599 346V352H201.799V342ZM214.27 352.2C213.283 352.2 212.397 351.987 211.61 351.56C210.837 351.12 210.23 350.507 209.79 349.72C209.35 348.933 209.13 348.027 209.13 347C209.13 345.987 209.363 345.087 209.83 344.3C210.31 343.513 210.943 342.9 211.73 342.46C212.517 342.02 213.363 341.8 214.27 341.8C215.257 341.8 216.13 342.007 216.89 342.42C217.65 342.833 218.237 343.427 218.65 344.2C219.077 344.973 219.29 345.887 219.29 346.94V347.68H211.77C211.837 348.373 212.097 348.927 212.55 349.34C213.017 349.74 213.61 349.94 214.33 349.94C215.477 349.94 216.237 349.427 216.61 348.4L218.95 348.64L219.09 348.88C218.717 349.987 218.117 350.82 217.29 351.38C216.477 351.927 215.47 352.2 214.27 352.2ZM216.65 345.88C216.583 345.28 216.33 344.8 215.89 344.44C215.45 344.08 214.903 343.9 214.25 343.9C213.663 343.9 213.143 344.08 212.69 344.44C212.25 344.8 211.97 345.28 211.85 345.88H216.65Z" fill="black"/>
<path d="M188.182 239.683H196.152C197.604 239.683 198.334 238.961 198.334 237.529V230.594C198.334 229.163 197.604 228.44 196.152 228.44H194.213V229.559H196.131C196.819 229.559 197.215 229.934 197.215 230.657V237.467C197.215 238.189 196.819 238.565 196.131 238.565H188.196C187.501 238.565 187.119 238.189 187.119 237.467V230.657C187.119 229.934 187.501 229.559 188.196 229.559H190.121V228.44H188.182C186.73 228.44 186 229.163 186 230.594V237.529C186 238.961 186.73 239.683 188.182 239.683ZM192.164 234.242C192.462 234.242 192.719 233.992 192.719 233.7V226.564L192.678 225.522L193.143 226.015L194.199 227.141C194.297 227.252 194.436 227.308 194.575 227.308C194.86 227.308 195.082 227.099 195.082 226.814C195.082 226.668 195.019 226.557 194.915 226.453L192.567 224.188C192.428 224.049 192.309 224 192.164 224C192.025 224 191.906 224.049 191.76 224.188L189.412 226.453C189.308 226.557 189.252 226.668 189.252 226.814C189.252 227.099 189.46 227.308 189.752 227.308C189.884 227.308 190.037 227.252 190.134 227.141L191.184 226.015L191.656 225.522L191.615 226.564V233.7C191.615 233.992 191.865 234.242 192.164 234.242Z" fill="#A8A8A8"/>
<path d="M145.5 224.947L147.923 228.844L148.031 229.017L148.228 229.066L152.683 230.166L149.726 233.675L149.595 233.83L149.609 234.033L149.94 238.611L145.688 236.882L145.5 236.805L145.312 236.882L141.06 238.611L141.391 234.033L141.405 233.83L141.274 233.675L138.317 230.166L142.772 229.066L142.969 229.017L143.077 228.844L145.5 224.947Z" stroke="#A8A8A8"/>
<defs>
<filter id="filter0_d_58592_611" x="0" y="0" width="336" height="330" filterUnits="userSpaceOnUse" color-interpolation-filters="sRGB">
<feFlood flood-opacity="0" result="BackgroundImageFix"/>
<feColorMatrix in="SourceAlpha" type="matrix" values="0 0 0 0 0 0 0 0 0 0 0 0 0 0 0 0 0 0 127 0" result="hardAlpha"/>
<feOffset dy="4"/>
<feGaussianBlur stdDeviation="7.5"/>
<feComposite in2="hardAlpha" operator="out"/>
<feColorMatrix type="matrix" values="0 0 0 0 0 0 0 0 0 0 0 0 0 0 0 0 0 0 0.06 0"/>
<feBlend mode="normal" in2="BackgroundImageFix" result="effect1_dropShadow_58592_611"/>
<feBlend mode="normal" in="SourceGraphic" in2="effect1_dropShadow_58592_611" result="shape"/>
</filter>
</defs>
</svg>
